<svg width="24" height="24" viewBox="0 0 24 24" fill="none" xmlns="http://www.w3.org/2000/svg">
<path d="M1.99998 10.3995L2.97998 14.5795C3.81998 18.1895 5.47998 19.6495 8.59998 19.3495C9.09998 19.3095 9.63998 19.2195 10.22 19.0795L11.9 18.6795C16.07 17.6895 17.36 15.6295 16.38 11.4495L15.4 7.25948C15.2 6.40948 14.96 5.66948 14.66 5.05948C13.49 2.63948 11.5 1.98948 8.15998 2.77948L6.48998 3.16948C2.29998 4.14948 1.01998 6.21948 1.99998 10.3995Z" stroke="#000000" stroke-width="1.5" stroke-linecap="round" stroke-linejoin="round"/>
<path opacity="0.4" d="M8.62521 19.29C9.24521 19.71 10.0252 20.06 10.9752 20.37L12.5552 20.89C16.5252 22.17 18.6152 21.1 19.9052 17.13L21.1852 13.18C22.4652 9.21 21.4052 7.11 17.4352 5.83L15.8552 5.31C15.4452 5.18 15.0552 5.07 14.6852 5C14.9852 5.61 15.2252 6.35 15.4252 7.2L16.4052 11.39C17.3852 15.57 16.0952 17.63 11.9252 18.62L10.2452 19.02C9.66521 19.16 9.12521 19.25 8.62521 19.29Z" stroke="#000000" stroke-width="1.5" stroke-linecap="round" stroke-linejoin="round"/>
<g opacity="0.4">
<path d="M7.16211 11.8379L11.4503 10.6889" stroke="#000000" stroke-width="1.33185" stroke-linecap="round" stroke-linejoin="round"/>
<path d="M9.88145 13.4069L8.73242 9.11865" stroke="#000000" stroke-width="1.33185" stroke-linecap="round" stroke-linejoin="round"/>
</g>
</svg>
