<svg width="24" height="24" viewBox="0 0 24 24" fill="none" xmlns="http://www.w3.org/2000/svg">
<path opacity="0.4" d="M2.836 10.7323C2.836 11.5848 3.47538 12.5692 4.25684 12.9143L11.1479 15.9793C11.6757 16.2127 12.2745 16.2127 12.7921 15.9793L19.6832 12.9143C20.4646 12.5692 21.104 11.5848 21.104 10.7323" stroke="#292D32" stroke-width="1.52233" stroke-linecap="round" stroke-linejoin="round"/>
<path opacity="0.4" d="M2.836 15.8066C2.836 16.7505 3.39419 17.603 4.25684 17.9887L11.1479 21.0536C11.6757 21.287 12.2745 21.287 12.7921 21.0536L19.6832 17.9887C20.5458 17.603 21.104 16.7505 21.104 15.8066" stroke="#292D32" stroke-width="1.52233" stroke-linecap="round" stroke-linejoin="round"/>
<path d="M22 6.8282C22 7.18316 21.948 7.53814 21.8528 7.86713C21.7576 8.21343 21.6191 8.53377 21.4372 8.83679C21.2295 9.18309 20.9697 9.49476 20.6667 9.75449C19.9828 10.3605 19.091 10.7241 18.104 10.7241C17.6625 10.7241 17.2469 10.6549 16.8573 10.5164C15.9743 10.222 15.2384 9.61598 14.7708 8.83679C14.4159 8.24806 14.2081 7.55544 14.2081 6.8282C14.2081 5.59881 14.7708 4.49928 15.6712 3.78935C16.3379 3.25258 17.1863 2.93225 18.104 2.93225C20.2598 2.93225 22 4.67244 22 6.8282Z" stroke="#292D32" stroke-width="1.29865" stroke-miterlimit="10" stroke-linecap="round" stroke-linejoin="round"/>
<path d="M18.1226 8.2825V5.37354Z" fill="#292D32"/>
<path d="M18.1226 8.2825V5.37354" stroke="#292D32" stroke-width="1.29865" stroke-miterlimit="10" stroke-linecap="round" stroke-linejoin="round"/>
<path d="M19.5419 6.82837H16.6329Z" fill="#292D32"/>
<path d="M19.5419 6.82837H16.6329" stroke="#292D32" stroke-width="1.29865" stroke-miterlimit="10" stroke-linecap="round" stroke-linejoin="round"/>
<path fill-rule="evenodd" clip-rule="evenodd" d="M11.7456 3.56178C11.3492 3.56178 10.997 3.6311 10.7721 3.73177L10.7699 3.73278L4.48239 6.52487L4.48063 6.52565C3.65509 6.88986 3.59853 7.21937 3.59853 7.25438C3.59853 7.28938 3.65509 7.6189 4.48062 7.9831L4.48239 7.98388L10.7699 10.776L10.7721 10.777C10.997 10.8776 11.3492 10.9469 11.7456 10.9469C12.1421 10.9469 12.4943 10.8776 12.7191 10.777L12.7214 10.776L14.3117 10.0698C14.7282 10.5222 15.232 10.8948 15.798 11.1588L13.3724 12.2359L13.3713 12.2364C12.8824 12.4551 12.2919 12.5455 11.7456 12.5455C11.1994 12.5455 10.609 12.4551 10.1201 12.2365L10.1189 12.2359L3.8354 9.44562L3.83455 9.44525C2.84879 9.01015 2 8.27944 2 7.25438C2 6.22934 2.84875 5.49864 3.83448 5.06353L3.8354 5.06313L10.1189 2.27282L10.1201 2.2723C10.609 2.05365 11.1994 1.96326 11.7456 1.96326C12.2919 1.96326 12.8822 2.05364 13.3712 2.27227L13.3724 2.27282L14.9627 2.97904C14.9202 3.01104 14.8781 3.04374 14.8367 3.07712C14.4315 3.39662 14.0818 3.78022 13.8012 4.2123L12.7214 3.73278L12.7191 3.73177C12.4943 3.6311 12.1421 3.56178 11.7456 3.56178Z" fill="#292D32"/>
</svg>
