<svg width="100" height="100" viewBox="0 0 100 100" fill="none" xmlns="http://www.w3.org/2000/svg">
<path d="M66.758 82.4855C75.6177 82.4855 79.6502 62.8676 79.6502 55.4291C79.6502 49.6313 75.6497 46.1177 70.3905 46.1177C65.1639 46.1177 60.9207 48.3652 60.868 51.1484C60.8678 58.4933 59.5751 82.4855 66.758 82.4855Z" fill="white" stroke="black" stroke-width="2.63841"/>
<path d="M34.3962 82.4855C25.5365 82.4855 21.5039 62.8676 21.5039 55.4291C21.5039 49.6313 25.5045 46.1177 30.7638 46.1177C35.9903 46.1177 40.2335 48.3652 40.2862 51.1484C40.2864 58.4933 41.5791 82.4855 34.3962 82.4855Z" fill="white" stroke="black" stroke-width="2.63841"/>
<path d="M27.0456 53.0709L27.0455 53.0706C27.036 52.9797 27.0545 52.9271 27.0733 52.8928C27.0956 52.8522 27.1378 52.8039 27.2087 52.7636C27.3556 52.6801 27.5612 52.6651 27.7527 52.7769C34.3331 56.6343 41.9234 58.8456 50.1754 58.8456C58.4289 58.8456 66.1597 56.5914 72.7826 52.6668C72.9728 52.554 73.178 52.568 73.3254 52.6509C73.3966 52.691 73.4392 52.7391 73.4617 52.7799C73.4808 52.8144 73.4995 52.8672 73.4903 52.9582C72.4658 63.1107 66.9589 71.5042 59.5571 75.3677C57.1125 76.6439 55.4313 78.861 53.9548 80.8082C53.9284 80.8432 53.902 80.8781 53.8757 80.9127L53.8754 80.9131C52.6754 82.4961 51.5894 83.9138 50.262 84.9584C48.9348 83.9138 47.8486 82.4961 46.6486 80.9131L46.6484 80.9127C46.6222 80.8781 46.5957 80.8432 46.5693 80.8082C45.0928 78.861 43.4118 76.6439 40.967 75.3677C33.5934 71.5191 28.1005 63.1742 27.0456 53.0709Z" fill="#FFDF6F" stroke="black" stroke-width="2.625"/>
<path d="M50.3117 60.6096C63.1347 60.6096 73.5297 57.1446 73.5297 52.8702C73.5297 48.5959 63.1347 45.1309 50.3117 45.1309C37.4888 45.1309 27.0938 48.5959 27.0938 52.8702C27.0938 57.1446 37.4888 60.6096 50.3117 60.6096Z" fill="black" stroke="black" stroke-width="2.63841"/>
<path d="M31.668 65.8862C31.668 65.8862 43.12 69.7558 50.4886 69.7558C57.857 69.7558 69.3091 65.8862 69.3091 65.8862" stroke="black" stroke-width="2.63841" stroke-linecap="round"/>
<path d="M28.4766 25.0254C25.5771 25.0254 23.2266 22.675 23.2266 19.7754C23.2266 16.8759 25.5771 14.5254 28.4766 14.5254C31.376 14.5254 33.7266 16.8759 33.7266 19.7754C33.7266 22.675 31.376 25.0254 28.4766 25.0254Z" fill="black"/>
<path d="M27.6016 18.9878L37.4016 28.7878" stroke="black" stroke-width="2.625"/>
<path d="M71.3516 25.0254C74.2511 25.0254 76.6016 22.675 76.6016 19.7754C76.6016 16.8759 74.2511 14.5254 71.3516 14.5254C68.452 14.5254 66.1016 16.8759 66.1016 19.7754C66.1016 22.675 68.452 25.0254 71.3516 25.0254Z" fill="black"/>
<path d="M72.3117 18.9878L62.5117 28.7878" stroke="black" stroke-width="2.625"/>
<path fill-rule="evenodd" clip-rule="evenodd" d="M29.9642 51.1034C27.1347 49.7563 25.4879 46.7314 26.0395 43.6463C28.4071 30.4058 38.274 20.4751 50.0865 20.4751C61.9275 20.4751 71.8136 30.4541 74.1506 43.7427C74.6941 46.8332 73.0339 49.8567 70.1947 51.1928C64.1192 54.052 57.3333 55.6501 50.174 55.6501C42.9404 55.6501 36.0877 54.0186 29.9642 51.1034Z" fill="#FFDF6F"/>
<path d="M27.3319 43.8775C29.6197 31.0836 39.0763 21.7876 50.0869 21.7876V19.1626C37.4726 19.1626 27.1954 29.7282 24.7479 43.4153L27.3319 43.8775ZM50.0869 21.7876C61.124 21.7876 70.6001 31.1289 72.8583 43.9701L75.4437 43.5154C73.028 29.7791 62.7321 19.1626 50.0869 19.1626V21.7876ZM69.6362 50.0053C63.732 52.7838 57.1364 54.3376 50.1744 54.3376V56.9626C57.5309 56.9626 64.5073 55.32 70.7539 52.3806L69.6362 50.0053ZM50.1744 54.3376C43.1401 54.3376 36.4798 52.7514 30.5288 49.9183L29.4005 52.2885C35.6965 55.2857 42.7415 56.9626 50.1744 56.9626V54.3376ZM72.8583 43.9701C73.294 46.4479 71.9673 48.9084 69.6362 50.0053L70.7539 52.3806C74.1013 50.8052 76.0949 47.2186 75.4437 43.5154L72.8583 43.9701ZM24.7479 43.4153C24.0869 47.112 26.0646 50.7004 29.4005 52.2885L30.5288 49.9183C28.2055 48.8123 26.8897 46.3506 27.3319 43.8775L24.7479 43.4153Z" fill="black"/>
<path fill-rule="evenodd" clip-rule="evenodd" d="M35.0153 47.8116C32.7376 46.8839 31.3865 44.4605 32.1758 42.1312C34.6096 34.9482 41.7095 29.75 50.0889 29.75C58.4682 29.75 65.5682 34.9482 68.0021 42.1312C68.7913 44.4605 67.4402 46.8839 65.1625 47.8116C60.5107 49.7061 55.4217 50.75 50.0889 50.75C44.7561 50.75 39.6671 49.7061 35.0153 47.8116Z" fill="black"/>
<path d="M56.125 44.4502C58.5412 44.4502 60.5 42.8832 60.5 40.9502C60.5 39.0171 58.5412 37.4502 56.125 37.4502C53.7088 37.4502 51.75 39.0171 51.75 40.9502C51.75 42.8832 53.7088 44.4502 56.125 44.4502Z" fill="white"/>
<path d="M43.6016 44.4521C46.0178 44.4521 47.9766 42.8852 47.9766 40.9521C47.9766 39.0191 46.0178 37.4521 43.6016 37.4521C41.1853 37.4521 39.2266 39.0191 39.2266 40.9521C39.2266 42.8852 41.1853 44.4521 43.6016 44.4521Z" fill="white"/>
</svg>
