<svg width="24" height="24" viewBox="0 0 24 24" fill="none" xmlns="http://www.w3.org/2000/svg">
<path d="M12 22C17.5228 22 22 17.5228 22 12C22 6.47715 17.5228 2 12 2C6.47715 2 2 6.47715 2 12C2 17.5228 6.47715 22 12 22Z" fill="#86318C"/>
<path d="M15.5276 10.9714L12.5276 7.97141C12.2376 7.68141 11.7575 7.68141 11.4675 7.97141L8.4675 10.9714C8.1775 11.2614 8.1775 11.7414 8.4675 12.0314C8.7575 12.3214 9.2375 12.3214 9.5275 12.0314L11.2476 10.3114V15.5014C11.2476 15.9114 11.5876 16.2514 11.9976 16.2514C12.4076 16.2514 12.7476 15.9114 12.7476 15.5014V10.3114L14.4675 12.0314C14.6175 12.1814 14.8076 12.2514 14.9976 12.2514C15.1876 12.2514 15.3776 12.1814 15.5276 12.0314C15.8176 11.7414 15.8176 11.2614 15.5276 10.9714Z" fill="white"/>
</svg>
