<svg width="24" height="24" viewBox="0 0 24 24" fill="none" xmlns="http://www.w3.org/2000/svg">
<path d="M11.69 22.6593C15.9371 22.6593 19.38 19.2164 19.38 14.9693C19.38 10.7222 15.9371 7.2793 11.69 7.2793C7.44293 7.2793 4 10.7222 4 14.9693C4 19.2164 7.44293 22.6593 11.69 22.6593Z" fill="#CCCCCC"/>
<path d="M17.6866 14.8974C17.5069 14.2978 16.9782 13.8405 16.9782 13.8405L17.4881 13.8586C17.4558 13.7814 17.4136 13.7058 17.3656 13.6329C17.0147 13.1027 16.3187 12.7046 16.3187 12.7046C16.8185 11.4834 16.5632 10.3912 16.5632 10.3912L16.1229 10.0975C16.1233 9.62335 16.0496 9.00526 16.0496 9.00526C16.2542 8.78144 16.4254 8.52116 16.5679 8.24359C17.2405 6.93333 17.2815 5.24184 17.2815 5.24184C17.3599 4.0095 17.2097 2.81326 16.971 2.0251C14.8384 2.51496 14.0928 3.55534 14.0928 3.55534C14.0928 3.55534 14.3608 4.19109 14.6545 4.54774C14.6568 5.45567 14.5143 6.35325 14.4141 6.87037C14.36 7.14946 14.3186 7.31761 14.3186 7.31761C13.7412 7.25005 12.9879 6.7575 12.4263 6.32752C11.966 5.9751 11.6343 5.66452 11.6343 5.66452L11.7809 6.278C11.7614 6.27723 11.7414 6.27685 11.7214 6.27646C11.5368 6.20621 10.9989 5.9847 10.6757 5.67604L10.7912 6.197L9.93129 5.73401C9.93129 5.73401 10.0227 6.11906 10.1536 6.46381C10.2242 6.64885 10.3056 6.82199 10.3901 6.91759C10.3901 6.91759 9.51897 6.93333 9.08132 7.3276C9.08132 7.3276 9.04255 7.13987 8.99149 6.84234C8.90933 6.36246 8.7957 5.59618 8.76268 4.87444C8.70932 3.70507 8.61104 1.75022 7.47737 0C7.47737 0 5.89875 1.72988 6.11143 5.08137C6.11143 5.08137 6.16556 6.87075 6.81935 8.20175C6.96524 8.49927 7.14145 8.77377 7.35337 9.00027C7.35337 9.00027 7.25278 9.62412 7.30922 10.0925L6.77981 10.3773C6.77981 10.3773 6.63316 11.8369 7.06121 12.6773C7.06121 12.6773 6.36596 13.1019 6.03235 13.6547C5.99626 13.7146 5.9644 13.7753 5.93829 13.8379H6.35905C6.35905 13.8379 5.87303 14.2805 5.69336 14.8802L6.35099 14.7155L6.24618 14.8802C6.24618 14.8802 6.5679 15.2917 7.10037 15.7278C7.48773 16.0453 7.92769 16.3805 8.60413 16.6845C8.51468 16.7755 8.48435 16.8047 8.48435 16.8047C7.10459 18.1184 6.80054 19.4912 6.761 19.937C6.72146 20.3827 6.7752 20.7858 6.7752 20.7858L7.05929 20.5339C7.17792 20.9942 7.50155 21.3213 7.50155 21.3213V20.962L7.78526 21.2676L7.97568 20.9009C8.29585 20.9332 8.50431 20.7823 8.50431 20.7823L8.15342 21.9421C9.14428 22.9057 11.6692 23.0339 11.6692 23.0339C11.6692 23.0339 14.1942 22.9057 15.185 21.9421L14.8341 20.7823C14.8341 20.7823 15.043 20.9332 15.3628 20.9009L15.5532 21.2676L15.8369 20.962V21.3213C15.8369 21.3213 16.1605 20.9942 16.2792 20.5339L16.5632 20.7858C16.5632 20.7858 16.617 20.3831 16.5775 19.937C16.5379 19.4912 16.2342 18.118 14.8541 16.8047C14.8541 16.8047 14.81 16.7559 14.7439 16.6818C15.3236 16.4342 15.7912 16.1451 16.1544 15.8722C16.8404 15.3566 17.1548 14.9013 17.1548 14.9013L17.0193 14.6514L17.6866 14.8974Z" fill="#4C2F39"/>
<path d="M14.6468 16.8853C14.6468 16.8853 14.1915 17.0653 13.6925 17.1206C13.6925 17.1206 13.5869 17.3287 13.3681 17.5452C13.1988 17.7133 12.9607 17.8869 12.6517 17.9725C12.6517 17.9725 12.8763 17.8116 13.1066 17.5824C13.2299 17.4596 13.3546 17.3175 13.4475 17.1697L13.504 17.0876C13.4053 17.1106 13.3043 17.1325 13.2014 17.1524L13.16 17.2089C13.16 17.2089 13.0018 17.4285 12.712 17.6243C12.459 17.7947 12.1054 17.9475 11.6693 17.9199C11.2263 17.9479 10.8688 17.7901 10.6151 17.6162C10.6147 17.6162 10.6147 17.6162 10.6147 17.6162C10.3321 17.4227 10.1782 17.2089 10.1782 17.2089L9.89141 17.1697C9.98317 17.3152 10.106 17.4557 10.2273 17.5774L10.2277 17.5778C10.46 17.8097 10.6876 17.9725 10.6876 17.9725C10.3786 17.8872 10.1406 17.7137 9.97127 17.5456C9.75244 17.329 9.64687 17.121 9.64687 17.121C9.62652 17.1137 9.6054 17.0684 9.58275 17.0027C9.31287 16.9236 9.05987 16.8327 8.82301 16.7344L8.3842 17.2411L7.81641 17.8972C7.82677 17.9418 7.84482 17.9867 7.86823 18.0308C8.00414 18.2923 8.31932 18.5334 8.31932 18.5334C8.31932 18.5334 8.45945 18.3245 8.75275 18.0769C9.04644 17.8289 9.37928 17.6139 9.69984 17.6104C10.0204 17.607 9.96973 17.979 9.96973 17.979L10.0968 17.9825L10.4101 18.2953C10.8147 18.1748 11.6693 18.1909 11.6693 18.1909C11.6693 18.1909 12.5239 18.1744 12.9285 18.2953L13.2418 17.9825L13.3688 17.979C13.3688 17.979 13.3182 17.607 13.6387 17.6104C13.9593 17.6139 14.2921 17.8289 14.5854 18.0769C14.8791 18.3249 15.0192 18.5334 15.0192 18.5334C15.0192 18.5334 15.4504 18.204 15.5218 17.8972L14.8883 17.1655L14.6468 16.8853Z" fill="#EE7700"/>
<path d="M9.8362 17.976C9.8362 17.976 9.44461 17.963 9.32061 18.1784C9.32061 18.1784 9.06608 18.1331 8.82461 18.56C8.82461 18.56 9.07261 18.3538 9.25343 18.3396H9.25381C9.28107 18.3377 9.30718 18.3396 9.33059 18.348C9.50681 18.4098 9.72525 18.5338 9.69914 18.6483C9.67304 18.7623 9.64732 18.8045 9.64732 18.8045L9.36668 18.7066L9.68072 18.9174C9.68072 18.9174 9.8408 19.1109 9.69338 19.4307L9.47916 19.5946L9.67265 19.5401C9.67265 19.5401 9.83274 19.8011 9.63465 19.9313C9.5498 19.9873 9.42657 20.0372 9.31255 20.0768C9.15976 20.1297 9.02462 20.1628 9.02462 20.1628C9.02462 20.1628 8.68218 20.7528 7.89709 20.7263L7.76234 21.0043L7.34158 20.6004L7.37114 20.8864C7.37114 20.8864 7.21144 20.5835 7.1527 20.2848L6.96766 20.453C6.96766 20.453 6.81333 19.2951 7.58575 18.2333C7.62375 18.181 7.66406 18.1284 7.70668 18.077C7.70668 18.077 7.90477 18.4951 8.20383 18.6172C8.21381 18.6214 8.22418 18.6248 8.23493 18.6283L8.1927 18.7488C8.1927 18.7488 7.92589 18.826 7.69132 19.0828C7.67558 19.1001 7.66022 19.1182 7.64448 19.137L7.6583 19.1281C7.72088 19.0886 7.98155 18.9274 8.17005 18.8759L8.18579 18.9546L8.22226 19.137L8.22264 19.1362C8.22572 19.1193 8.27524 18.8452 8.3071 18.7976C8.33974 18.7488 8.78852 18.0359 9.6285 17.7699C9.6285 17.7699 9.7621 17.7123 9.81547 17.8305C9.82967 17.8643 9.8385 17.9108 9.8362 17.976Z" fill="#AC8364"/>
<path d="M13.1443 20.2153L12.6322 19.4088L12.6867 19.633C12.6867 19.633 11.9515 19.537 11.6709 19.5274C11.3898 19.537 10.6551 19.633 10.6551 19.633L10.7096 19.4088L10.1974 20.2153C9.3682 20.3562 9.38087 20.2153 9.38087 20.2153C9.83887 20.1608 9.89645 19.7865 9.89645 19.7865L10.0473 19.7819L10.3418 19.7735L10.361 19.2387L10.0569 19.2287L9.86152 19.2226V19.1205L10.0542 19.1132L10.361 19.1013L10.3418 18.5791H9.8381C9.84079 18.4287 9.46418 18.2175 9.46418 18.2175C9.521 18.1876 9.5805 18.1668 9.63809 18.1526C9.82428 18.1066 9.99397 18.1281 9.99397 18.1281L10.3783 18.4705C10.6858 18.3396 11.6712 18.3396 11.6712 18.3396C11.6712 18.3396 11.7764 18.3396 11.9288 18.3442C11.9296 18.3442 11.93 18.3438 11.9308 18.3442C12.2448 18.3534 12.7577 18.3826 12.9642 18.4705L13.3485 18.1281C13.3485 18.1281 13.6391 18.0912 13.8779 18.2175C13.8779 18.2175 13.5017 18.429 13.5044 18.5791H13.0007L12.9815 19.1013L13.481 19.1205V19.2226L12.9815 19.2387L13.0007 19.7735L13.4457 19.7861C13.4457 19.7861 13.5032 20.1608 13.9612 20.215C13.9609 20.2153 13.9735 20.3562 13.1443 20.2153Z" fill="#CCCCCC"/>
<path d="M9.81211 18.7285L9.76758 18.8468L9.83706 18.975L10.206 18.9589L10.1933 18.7285H9.81211Z" fill="#FA5858"/>
<path d="M9.83728 19.3691L9.80273 19.459C9.80273 19.459 9.89257 19.5392 9.89257 19.6352H10.2062V19.3695H9.83728V19.3691Z" fill="#D769B5"/>
<path d="M14.9183 21.8843C13.7044 22.79 11.6701 22.8307 11.6701 22.8307C11.6701 22.8307 9.82044 22.7934 8.59617 22.0045C8.53628 21.9665 8.47831 21.9262 8.42188 21.884L8.73898 20.667C8.73898 20.667 8.8768 20.5656 8.99121 20.4489C9.04764 20.3917 9.09832 20.3307 9.12365 20.2762L9.4231 20.4716C9.4231 20.4716 10.1456 20.4531 10.308 20.3675L10.5986 19.8585C10.5986 19.8585 11.1891 19.7303 11.6701 19.7345C12.1511 19.7303 12.7412 19.8585 12.7412 19.8585L13.0318 20.3675C13.1942 20.4531 13.9167 20.4716 13.9167 20.4716L14.2162 20.2762C14.2937 20.4405 14.6008 20.6666 14.6008 20.6666L14.9183 21.8843Z" fill="#EE7700"/>
<path d="M15.6329 18.0771C15.6329 18.0771 15.421 18.524 15.1043 18.6284L15.1465 18.7489C15.1465 18.7489 15.4498 18.8368 15.6947 19.1371C15.6947 19.1371 15.3849 18.9347 15.1696 18.876L15.1173 19.1371C15.1173 19.1371 15.0651 18.8468 15.0325 18.7977C14.9999 18.7489 14.5511 18.036 13.7111 17.77C13.7111 17.77 13.4927 17.6755 13.5023 17.9754C13.5023 17.9754 13.8938 17.9623 14.0178 18.1777C14.0178 18.1777 14.2724 18.132 14.5139 18.5593C14.5139 18.5593 14.1845 18.2852 14.0082 18.3474C13.832 18.4092 13.6136 18.5332 13.6397 18.6476C13.6658 18.7616 13.6919 18.8042 13.6919 18.8042L13.9725 18.7063L13.6581 18.9171C13.6581 18.9171 13.4984 19.1106 13.6455 19.4304L13.8601 19.5943L13.6666 19.5398C13.6666 19.5398 13.5069 19.8004 13.7046 19.931C13.9023 20.0615 14.3146 20.1625 14.3146 20.1625C14.3146 20.1625 14.657 20.7525 15.4421 20.726L15.5769 21.0036L15.9976 20.5997L15.9685 20.8857C15.9685 20.8857 16.1282 20.5828 16.1869 20.2842L16.372 20.4523C16.3716 20.4531 16.5413 19.1777 15.6329 18.0771Z" fill="#AC8364"/>
<path d="M13.5287 18.7285L13.5732 18.8468L13.5037 18.975L13.1348 18.9589L13.1474 18.7285H13.5287Z" fill="#FA5858"/>
<path d="M13.5037 19.3691L13.5383 19.459C13.5383 19.459 13.4484 19.5392 13.4484 19.6352H13.1348V19.3695H13.5037V19.3691Z" fill="#D769B5"/>
<path d="M10.1787 17.2101L10.1277 17.1414C10.0279 17.1199 9.92996 17.0968 9.83398 17.0723L9.89234 17.1709C9.98409 17.3164 10.1069 17.4569 10.2283 17.5786L10.2286 17.579C10.3538 17.5932 10.4832 17.6063 10.6156 17.6178C10.3327 17.4235 10.1787 17.2101 10.1787 17.2101Z" fill="#A35200"/>
<path d="M8.8637 16.945L7.86823 18.0303C7.84482 17.9862 7.82677 17.9413 7.81641 17.8967L8.3842 17.2407L8.69209 16.8848C8.69248 16.8844 8.75697 16.9101 8.8637 16.945Z" fill="#FFBB77"/>
<path d="M14.4746 16.945L15.4701 18.0303C15.4935 17.9862 15.5115 17.9413 15.5219 17.8967L14.9541 17.2407L14.6462 16.8848C14.6462 16.8844 14.5813 16.9101 14.4746 16.945Z" fill="#FFBB77"/>
<path d="M8.23512 18.6275L8.19289 18.748C8.19289 18.748 7.92608 18.8252 7.69151 19.082L8.01361 18.6731C7.80822 18.639 7.67078 18.4286 7.58594 18.2324C7.62394 18.1802 7.66425 18.1276 7.70687 18.0762C7.70687 18.0762 7.91878 18.523 8.23512 18.6275Z" fill="#7D534C"/>
<path d="M9.67223 19.5394C9.67223 19.5394 9.83231 19.8005 9.63422 19.9306C9.54938 19.9867 9.42614 20.0366 9.31212 20.0761C9.14013 19.5686 9.25339 18.3386 9.25339 18.3386H9.25377C9.28103 18.3367 9.30713 18.3386 9.33055 18.347C9.50676 18.4088 9.7252 18.5328 9.6991 18.6472C9.67299 18.7613 9.64727 18.8035 9.64727 18.8035L9.36664 18.7056L9.68067 18.9163C9.68067 18.9163 9.84076 19.1098 9.69334 19.4296L9.47912 19.5936L9.67223 19.5394Z" fill="#7D534C"/>
<path d="M8.95743 20.15C8.95743 20.15 8.5789 19.8904 8.42226 19.5449C8.42226 19.5449 8.35546 20.7995 7.26172 20.3538C7.26133 20.3538 8.16735 21.1527 8.95743 20.15Z" fill="#7D534C"/>
<path d="M8.18545 18.9557L7.64453 19.138L7.65835 19.1292C7.72093 19.0896 7.9816 18.9284 8.1701 18.877L8.18545 18.9557Z" fill="#D1B783"/>
<path d="M9.81509 17.8307C9.1137 17.7792 8.38543 18.8096 8.38543 18.8096L8.22266 19.1363C8.22573 19.1194 8.27525 18.8453 8.30712 18.7977C8.33975 18.749 8.78853 18.0361 9.62852 17.77C9.62813 17.77 9.76135 17.7121 9.81509 17.8307Z" fill="#D1B783"/>
<path d="M8.99121 20.4512L8.59617 22.0064C8.53628 21.9684 8.47831 21.9281 8.42188 21.8858L8.73898 20.6688C8.73898 20.6688 8.8768 20.5675 8.99121 20.4512Z" fill="#FFBB77"/>
<path d="M15.1055 18.6275L15.1477 18.748C15.1477 18.748 15.4145 18.8252 15.6491 19.082L15.327 18.6731C15.5324 18.639 15.6698 18.4286 15.7547 18.2324C15.7166 18.1802 15.6763 18.1276 15.6337 18.0762C15.6337 18.0762 15.4218 18.5234 15.1055 18.6275Z" fill="#7D534C"/>
<path d="M13.6675 19.5394C13.6675 19.5394 13.5074 19.8005 13.7055 19.9306C13.7903 19.9867 13.9136 20.0366 14.0276 20.0761C14.1996 19.5686 14.0863 18.3386 14.0863 18.3386H14.0859C14.0587 18.3367 14.0326 18.3386 14.0092 18.347C13.833 18.4088 13.6145 18.5328 13.6406 18.6472C13.6667 18.7613 13.6924 18.8035 13.6924 18.8035L13.9731 18.7056L13.659 18.9163C13.659 18.9163 13.499 19.1098 13.6464 19.4296L13.8606 19.5936L13.6675 19.5394Z" fill="#7D534C"/>
<path d="M14.3828 20.15C14.3828 20.15 14.7613 19.8904 14.918 19.5449C14.918 19.5449 14.9848 20.7995 16.0785 20.3538C16.0789 20.3538 15.1733 21.1523 14.3828 20.15Z" fill="#7D534C"/>
<path d="M15.1543 18.9557L15.6952 19.138L15.6814 19.1292C15.6188 19.0896 15.3582 18.9284 15.1697 18.877L15.1543 18.9557Z" fill="#D1B783"/>
<path d="M13.5254 17.8305C14.2268 17.7791 14.9551 18.8095 14.9551 18.8095L15.1178 19.1362C15.1148 19.1193 15.0652 18.8452 15.0334 18.7976C15.0007 18.7488 14.552 18.0359 13.712 17.7699C13.7124 17.7699 13.5791 17.7123 13.5254 17.8305Z" fill="#D1B783"/>
<path d="M14.3496 20.4512L14.7446 22.0064C14.8045 21.9684 14.8625 21.9281 14.9189 21.8858L14.6018 20.6688C14.6018 20.6688 14.464 20.5675 14.3496 20.4512Z" fill="#FFBB77"/>
<path d="M8.70703 21.9629C8.70703 21.9629 11.4443 23.5672 14.6341 22.0047C14.6341 22.0047 11.8055 23.2033 8.70703 21.9629Z" fill="#AC5600"/>
<path d="M9.46289 18.2168C9.46289 18.2168 9.88135 18.3013 9.98654 18.5784H9.8372C9.8395 18.4283 9.46289 18.2168 9.46289 18.2168Z" fill="#9FA1B0"/>
<path d="M9.85938 19.1206L10.0521 19.1133C10.0532 19.1521 10.054 19.1908 10.0548 19.2292L9.85938 19.2231V19.1206Z" fill="#9FA1B0"/>
<path d="M13.8811 18.2168C13.8811 18.2168 13.4626 18.3013 13.3574 18.5784H13.5068C13.5045 18.4283 13.8811 18.2168 13.8811 18.2168Z" fill="#9FA1B0"/>
<path d="M13.4825 19.1206L13.2898 19.1133C13.2886 19.1521 13.2879 19.1908 13.2871 19.2292L13.4825 19.2231V19.1206Z" fill="#9FA1B0"/>
<path d="M13.1443 20.2142L12.6322 19.4077L12.6867 19.6319C12.6867 19.6319 11.9515 19.5359 11.6709 19.5263C11.3898 19.5359 10.6551 19.6319 10.6551 19.6319L10.7096 19.4077L10.1974 20.2142C9.3682 20.3551 9.38087 20.2142 9.38087 20.2142C9.83887 20.1597 9.89645 19.7854 9.89645 19.7854L10.0473 19.7808L10.3418 19.7724L10.361 19.2376L10.0569 19.2276L9.86152 19.2215V19.1931C10.5318 19.1631 12.2145 19.1028 13.4814 19.1812V19.2215L12.9819 19.2376L13.0011 19.7724L13.446 19.785C13.446 19.785 13.5036 20.1597 13.9616 20.2139C13.9609 20.2142 13.9735 20.3551 13.1443 20.2142Z" fill="#9FA1B0"/>
<path d="M11.9279 18.3438C11.2034 18.3638 10.3519 18.5338 10.3519 18.5338L9.97187 18.1776L9.63672 18.1526C9.82291 18.1066 9.9926 18.1281 9.9926 18.1281L10.3769 18.4705C10.6844 18.3396 11.6699 18.3396 11.6699 18.3396C11.6699 18.3396 11.7755 18.3392 11.9279 18.3438Z" fill="white"/>
<path d="M9.57833 17.0008C9.31074 16.9221 9.05967 16.8323 8.8251 16.7344L8.38477 17.2404C8.69189 17.3198 9.25585 17.4496 9.97144 17.5448C9.75262 17.3283 9.64704 17.1202 9.64704 17.1202C9.63092 17.1187 9.60597 17.0684 9.57833 17.0008Z" fill="#A35200"/>
<path d="M14.5469 16.7637C14.2985 16.8612 14.0306 16.9506 13.743 17.0278C13.7185 17.08 13.6977 17.1207 13.6916 17.1211C13.6916 17.1211 13.586 17.3292 13.3672 17.5457C13.8755 17.4674 14.3884 17.3449 14.8882 17.1656L14.646 16.8858C14.6464 16.8858 14.5957 16.8213 14.5469 16.7637Z" fill="#A35200"/>
<path d="M13.2043 17.1524L13.1609 17.2092C13.1609 17.2092 13.0027 17.4288 12.7129 17.6246C12.8438 17.6135 12.9751 17.5993 13.1072 17.5827C13.2304 17.4599 13.3552 17.3178 13.4481 17.17L13.5049 17.0879C13.4066 17.1109 13.3064 17.1324 13.2043 17.1524Z" fill="#A35200"/>
<path d="M15.8052 8.97718C15.8052 8.97718 15.9203 9.63289 15.8743 10.0011C15.8743 10.0011 14.6811 9.52501 13.1727 9.29851C12.9105 9.25935 12.6391 9.22749 12.3627 9.20714C12.1258 9.18948 11.8851 9.18027 11.644 9.18219C9.91376 9.19332 8.2933 9.72004 7.73318 9.92274C7.59958 9.97073 7.52587 10.0011 7.52587 10.0011C7.52587 10.0011 7.51743 9.23056 7.61072 8.96643C7.61072 8.96643 6.76459 7.91184 6.4233 6.11901C6.12231 4.53617 6.26244 2.33447 7.43412 0.398438C7.43412 0.398438 8.29291 1.34284 8.49638 4.00868C8.70024 6.67452 8.70638 7.34366 9.23079 8.11954L9.10718 7.56134C9.10718 7.56134 9.37207 7.19317 10.6666 7.04575C10.6666 7.04575 10.2862 6.3958 10.237 6.11325L11.1208 6.56702L10.9795 6.13782L12.1512 6.63459L11.9607 6.14396C11.9607 6.14396 12.1469 6.33284 12.4625 6.57278C12.4625 6.57278 12.4625 6.57317 12.4629 6.57355C12.5028 6.60349 12.5447 6.63497 12.5888 6.66646V6.66684C13.0188 6.97742 13.6346 7.33982 14.3271 7.49108L14.1344 8.14564C14.1344 8.14564 14.7744 7.69801 14.8489 4.72965L15.0961 4.89051C15.0961 4.89051 15.0907 6.60695 14.7122 8.1372C15.2182 6.63881 15.3072 5.00108 15.3072 5.00108L15.6178 5.13084C15.6178 5.13084 16.4336 3.92537 16.6286 3.33339C16.6286 3.33339 16.6966 5.53969 16.1576 7.53216C16.1576 7.53216 17.0099 5.84029 16.7592 3.04508L16.8974 2.72951C16.8981 2.73028 17.7427 6.23264 15.8052 8.97718Z" fill="#AC8364"/>
<path d="M16.821 2.26172C16.6072 3.37504 15.5579 4.85193 15.5579 4.85193C15.5579 4.85193 15.5576 4.85193 15.5572 4.85154C14.7229 4.63694 14.3379 3.56738 14.3379 3.56738C15.1383 2.71434 16.7688 2.27554 16.8195 2.26172C16.8198 2.2621 16.8206 2.26172 16.821 2.26172Z" fill="#AC8364"/>
<path d="M16.327 14.352L16.894 14.8511C16.894 14.8511 16.3915 15.5751 15.1833 16.2074L15.1829 16.2078C14.9695 16.3195 14.7345 16.4286 14.4758 16.5299C14.2907 16.6025 14.0934 16.6716 13.8842 16.7349C13.2465 16.928 12.4956 17.0712 11.6184 17.1169C9.46889 17.0044 8.11985 16.3088 7.3482 15.7176C7.34744 15.7168 7.34705 15.7164 7.34628 15.7156C7.34513 15.7149 7.34398 15.7137 7.34244 15.7126C6.73933 15.2492 6.49171 14.8511 6.49171 14.8511L6.91017 14.352L6.10742 14.5528C6.35389 14.048 6.95624 13.6809 6.95624 13.6809H6.29707C6.51705 13.3251 7.17621 12.8694 7.19694 12.8552H7.19733C7.19771 12.8548 7.19771 12.8548 7.19771 12.8548C7.19771 12.8548 7.19771 12.8552 7.1981 12.8555C7.21038 12.8767 7.53939 13.4429 7.8181 13.6326C8.10258 13.8257 8.86463 13.8046 9.50345 13.7558C10.1419 13.7078 10.3246 13.3588 10.3246 13.3588C10.8333 12.8866 11.408 12.8083 11.5727 12.7957C11.6026 12.7934 11.6191 12.793 11.6191 12.793C11.6191 12.793 11.6295 12.7934 11.6495 12.7941C11.6541 12.7945 11.6591 12.7949 11.6644 12.7949C11.8468 12.8056 12.544 12.8778 13.0622 13.3588C13.0622 13.3588 13.1087 13.4479 13.2365 13.5416C13.3022 13.59 13.3897 13.6399 13.5034 13.6802C13.6066 13.7163 13.7322 13.7447 13.8834 13.7558C14.4673 13.8 15.1545 13.8218 15.4855 13.6775C15.5165 13.664 15.5442 13.6491 15.5688 13.6326C15.8532 13.4395 16.1895 12.8548 16.1895 12.8548C16.1895 12.8548 16.193 12.8571 16.2003 12.8621C16.2867 12.9223 16.8829 13.3462 17.0898 13.6806H16.4302C16.4302 13.6806 17.0326 14.0476 17.2791 14.5524L16.327 14.352Z" fill="#E5DDBE"/>
<path d="M13.1733 15.5954C11.9137 16.1421 9.75 15.6349 9.75 15.6349L10.537 14.7082C10.8675 14.9224 11.2292 15.0875 11.5755 15.2134V14.598C11.2545 14.5604 10.3343 14.4053 10.3612 13.8506C10.3934 13.1787 11.6841 13.168 11.6841 13.168C11.6841 13.168 12.9752 13.1787 13.0074 13.8506C13.0343 14.413 12.0876 14.565 11.7793 14.5992V15.2833C12.5372 15.5321 13.1733 15.5954 13.1733 15.5954Z" fill="#4C2F39"/>
<path d="M12.5954 14.1292C12.5954 14.1292 12.595 13.9246 12.2676 14.0183C11.9397 14.1119 12.0165 14.4014 12.0165 14.4014C12.0165 14.4014 11.9393 14.4482 11.7205 14.4524C11.5013 14.4482 11.4241 14.4014 11.4241 14.4014C11.4241 14.4014 11.5009 14.1119 11.173 14.0183C10.8456 13.9246 10.7857 14.1292 10.7857 14.1292C10.5004 14.0524 10.5388 13.8228 10.5388 13.8228C10.5895 13.3545 11.7205 13.3203 11.7205 13.3203C11.7205 13.3203 11.9796 13.3288 12.2491 13.3925C12.5275 13.4589 12.8165 13.5844 12.8423 13.8225C12.8423 13.8225 12.8803 14.0524 12.5954 14.1292Z" fill="#8D6869"/>
<path d="M12.523 15.6364C12.523 15.6364 11.0887 15.8664 10.0664 15.5489L10.415 15.4065C10.415 15.4065 10.9697 15.5807 11.4607 15.565C11.4607 15.565 10.8438 15.4541 10.5363 15.3343L10.6319 15.1266L10.6926 14.9941C10.6926 14.9941 10.6983 14.9972 10.7091 15.0026C10.8446 15.0698 11.7821 15.5262 12.523 15.6364Z" fill="white"/>
<path d="M12.2474 16.5813C11.903 16.3349 11.483 16.3349 11.1387 16.5813C11.1387 16.5813 11.3157 16.2116 11.6957 16.207C12.0758 16.2116 12.2474 16.5813 12.2474 16.5813Z" fill="#4C2F39"/>
<path d="M12.5894 10.8075C12.5894 10.9039 12.5111 10.9822 12.4147 10.9822H11.0419C10.9455 10.9822 10.8672 10.9039 10.8672 10.8075C10.8672 10.7111 10.9455 10.6328 11.0419 10.6328H12.4147C12.5111 10.6328 12.5894 10.7111 12.5894 10.8075Z" fill="#F65A70"/>
<path d="M10.3594 17.1777L10.3943 17.2073C10.9103 17.7547 11.665 17.7559 11.6696 17.7559C11.6743 17.7559 12.429 17.7551 12.945 17.2073L12.9676 17.1885C11.8716 17.3563 10.918 17.2672 10.3594 17.1777Z" fill="#7D534C"/>
<path d="M15.8038 8.97776C15.8038 8.97776 15.919 9.63347 15.8729 10.0016C15.8729 10.0016 14.6797 9.52559 13.1714 9.29909C12.9092 9.25993 12.6377 9.22806 12.3613 9.20772C13.2293 8.38654 12.4773 6.60945 12.4619 6.57413C12.5018 6.60407 12.5437 6.63555 12.5878 6.66703V6.66742C13.0178 6.97799 13.6336 7.3404 14.3262 7.49166L14.1334 8.14622C14.1334 8.14622 14.7734 7.69858 14.8479 4.73023L15.0951 4.89109C15.0951 4.89109 15.0928 5.63893 14.9822 6.58795C14.9254 7.07589 14.8402 7.61758 14.7116 8.13739C14.7116 8.13662 14.7124 8.13585 14.7124 8.13508C14.7273 8.0894 14.7427 8.04333 14.7573 7.99726C14.7584 7.99458 14.7592 7.99189 14.7596 7.9892C15.2226 6.53343 15.3063 5.00165 15.3063 5.00165L15.6168 5.13141C15.6168 5.13141 16.4326 3.92595 16.6277 3.33397C16.6277 3.33397 16.6434 3.84187 16.6 4.59087C16.5532 5.40245 16.4369 6.49658 16.1566 7.53312C16.1566 7.53312 16.157 7.53274 16.1574 7.53235C16.1758 7.49473 16.7398 6.34532 16.7993 4.3993V4.39892C16.8119 3.98353 16.8016 3.53129 16.7582 3.04604L16.8964 2.73047C16.8968 2.73085 17.7414 6.23322 15.8038 8.97776Z" fill="#7D534C"/>
<path d="M15.0961 4.89094C15.0961 4.89094 15.0938 5.63879 14.9832 6.5878L14.7125 8.13801C14.7125 8.13801 14.3156 8.23168 14.1348 8.14646C14.1348 8.14646 14.7747 7.69882 14.8492 4.73047L15.0961 4.89094Z" fill="#AC8364"/>
<path d="M16.6017 4.59089C16.3986 5.29612 15.5042 5.56332 15.5042 5.56332C15.4519 6.25281 14.7582 8.02262 14.7148 8.1328C14.7298 8.09134 14.7444 8.04565 14.759 7.99728C14.7601 7.99459 14.7609 7.9919 14.7613 7.98922C15.2243 6.53345 15.308 5.00167 15.308 5.00167L15.6186 5.13143C15.6186 5.13143 16.4344 3.92597 16.6294 3.33398C16.6294 3.33437 16.6455 3.84227 16.6017 4.59089Z" fill="#69393C"/>
<path d="M15.5572 4.85154C14.7229 4.63694 14.3379 3.56738 14.3379 3.56738C15.1383 2.71434 16.7688 2.27554 16.8195 2.26172C15.875 2.59303 14.5621 3.55663 14.5621 3.55663C14.6208 4.23384 15.5288 4.83311 15.5572 4.85154Z" fill="#D1B783"/>
<path d="M16.9299 4.11719C16.8554 6.5308 16.182 7.49901 16.1582 7.53241C16.1766 7.49478 16.7406 6.34537 16.8001 4.39936V4.39897L16.9299 4.11719Z" fill="#AC8364"/>
<path d="M7.3883 7.89679C7.3883 7.89679 5.87303 5.24247 7.3883 0.855591C7.3883 0.855591 8.09392 0.743107 8.31927 7.33092C8.31927 7.33092 7.9177 2.14398 7.45203 1.14352C7.45241 1.14352 6.2458 3.98979 7.3883 7.89679Z" fill="#4C2F39"/>
<path d="M7.45405 1.14258C7.45405 1.14258 6.24782 3.98885 7.38994 7.89585L7.51893 7.53076H7.75772V7.07238L8.07598 7.48392L8.32091 7.32959C8.32091 7.32998 7.91935 2.14265 7.45405 1.14258Z" fill="#7D534C"/>
<path d="M7.79307 8.86201L7.73318 9.92274C7.59958 9.97073 7.52587 10.0011 7.52587 10.0011C7.52587 10.0011 7.51743 9.23056 7.61072 8.96643C7.61072 8.96643 6.76459 7.91184 6.4233 6.11901C6.12231 4.53617 6.26244 2.33447 7.43412 0.398438C5.92269 3.72574 6.45286 6.11901 6.92698 7.35249C7.40187 8.58598 7.79307 8.86201 7.79307 8.86201Z" fill="#D1B783"/>
<path d="M12.5954 14.1286C12.5954 14.1286 12.595 13.924 12.2676 14.0177C11.9397 14.1113 12.0165 14.4008 12.0165 14.4008C12.0165 14.4008 11.9393 14.4476 11.7205 14.4519C11.5013 14.4476 11.4241 14.4008 11.4241 14.4008C11.4241 14.4008 11.5009 14.1113 11.173 14.0177C10.8456 13.924 10.7857 14.1286 10.7857 14.1286C10.5004 14.0518 10.5388 13.8223 10.5388 13.8223C10.5388 13.8223 11.5274 14.1401 12.8427 13.8223C12.8423 13.8219 12.8803 14.0518 12.5954 14.1286Z" fill="#734D54"/>
<path d="M11.7203 13.3203C11.7203 13.3203 10.7548 13.3495 10.5686 13.7238C10.5456 13.7557 10.5352 13.7868 10.5406 13.8136C10.5402 13.8167 10.5394 13.8194 10.5391 13.8225C10.5391 13.8225 10.5402 13.8209 10.5421 13.819C10.5429 13.8213 10.5433 13.8236 10.5441 13.8255C10.5755 13.9031 10.7471 13.9069 10.928 13.8336C11.1088 13.7607 11.2297 13.6386 11.1986 13.561C11.1867 13.5318 11.1548 13.513 11.1099 13.505C11.3741 13.4232 11.7438 13.3645 12.2482 13.3921H12.2497C11.9799 13.3284 11.7203 13.3203 11.7203 13.3203Z" fill="white"/>
<path d="M9.11395 9.74414V10.1484L8.66824 10.5941V12.0683L8.98957 12.3896V13.5913C8.55499 13.617 8.06551 13.6139 7.96416 13.5241C7.88469 13.4538 7.60559 13.2231 7.3691 12.767C7.21439 12.4687 7.07772 12.0737 7.02704 11.5639C6.9948 11.2437 6.9971 10.8778 7.0497 10.4624C7.0497 10.4624 7.54301 10.1814 8.45018 9.91575C8.65058 9.85662 8.87248 9.79827 9.11395 9.74414Z" fill="#CCCCCC"/>
<path d="M16.3201 10.462C16.3197 10.462 16.3197 10.462 16.3193 10.4616C16.2882 10.4439 15.2889 9.88537 13.5383 9.60627C12.9913 9.51874 12.3713 9.45885 11.6848 9.45117C10.7754 9.46154 9.9826 9.56366 9.32267 9.69917V10.2343L9.2647 10.2923L8.87695 10.6804V11.9823L9.19828 12.3036V13.5766C9.38332 13.5613 9.54226 13.5417 9.63094 13.524C9.94651 13.4611 10.1166 13.2465 10.1166 13.2465C10.7665 12.5838 11.6848 12.5731 11.6848 12.5731C11.6848 12.5731 12.6035 12.5838 13.2535 13.2465C13.2535 13.2465 13.3805 13.4065 13.6189 13.4906C13.6566 13.5041 13.6965 13.5152 13.7395 13.524C14.0551 13.5874 15.2417 13.6695 15.406 13.524C15.5696 13.3789 16.5846 12.5501 16.3201 10.462ZM12.4154 11.2206H11.0426C10.8153 11.2206 10.6299 11.0355 10.6299 10.8079C10.6299 10.5802 10.8149 10.3952 11.0426 10.3952H12.4154C12.6427 10.3952 12.8281 10.5802 12.8281 10.8079C12.8281 11.0355 12.6427 11.2206 12.4154 11.2206Z" fill="#CCCCCC"/>
<path d="M15.4044 13.5232C15.2405 13.6687 14.0538 13.5866 13.7379 13.5232C13.6949 13.5148 13.655 13.5033 13.6173 13.4898C14.0454 12.0425 13.7771 10.5042 13.5371 9.60547C15.3154 9.88917 16.3189 10.4612 16.3189 10.4612C16.5838 12.5493 15.5687 13.3781 15.4044 13.5232Z" fill="#9FA1B0"/>
<path d="M8.66667 12.0686L8.988 12.3899V12.507C8.64479 12.6878 8.22096 12.7942 7.76257 12.7942C7.62744 12.7942 7.49538 12.7849 7.36715 12.7673C7.21244 12.469 7.07577 12.0739 7.02509 11.5641C6.99284 11.2439 6.99515 10.8781 7.04774 10.4627C7.04774 10.4627 7.54106 10.1817 8.44823 9.91602C8.68318 9.97475 8.89893 10.0631 9.08628 10.1748L8.66667 10.5944V12.0686Z" fill="#E6E4E5"/>
<path d="M9.83323 11.3118C9.83323 11.7318 9.58906 12.1111 9.19633 12.3806V12.3023L8.875 11.981V10.6791L9.26274 10.291C9.61632 10.5567 9.83323 10.916 9.83323 11.3118Z" fill="#E6E4E5"/>
<path d="M7.04758 10.4605C7.04758 10.4605 7.78391 10.0409 9.11222 9.74219V9.89805C7.87029 10.166 7.2165 10.5588 7.2165 10.5588L7.02493 11.5619C6.99307 11.2421 6.99499 10.8759 7.04758 10.4605Z" fill="white"/>
<path d="M16.3174 10.462C13.2373 9.47113 10.8682 9.55675 9.32031 9.85696V9.69917C9.98063 9.56366 10.7734 9.46154 11.6825 9.45117C12.3693 9.45885 12.9893 9.51912 13.536 9.60627C15.287 9.88614 16.2867 10.4447 16.3174 10.462Z" fill="white"/>
<path d="M11.5743 14.7445V14.599C11.2533 14.5614 10.3331 14.4063 10.36 13.8516C10.36 13.8516 10.2928 14.7234 11.5743 14.7445Z" fill="#BB9C79"/>
<path d="M11.7793 14.6012V14.7417C13.0358 14.6787 13.0074 13.8867 13.0074 13.8867H13.007C12.9944 14.4211 12.0807 14.5674 11.7793 14.6012Z" fill="#BB9C79"/>
<path d="M7.34244 15.7129C6.73933 15.2495 6.49171 14.8514 6.49171 14.8514L6.91017 14.3523L6.10742 14.5531C6.35389 14.0483 6.95624 13.6812 6.95624 13.6812H6.29707C6.51705 13.3254 7.17621 12.8697 7.19694 12.8555H7.19733L7.1981 12.8559L6.60381 13.5269H7.32517C7.32517 13.5269 6.59805 14.1005 6.41608 14.3277L7.19771 14.1231L6.60343 14.8391C6.60343 14.8391 7.2553 15.6376 7.34244 15.7129Z" fill="white"/>
<path d="M13.3536 15.1621C13.3536 15.1621 13.3559 15.1621 13.3609 15.1621C13.3363 15.1871 13.3536 15.1621 13.3536 15.1621Z" fill="white"/>
<path d="M17.2782 14.5544C17.0314 14.0495 16.4294 13.6825 16.4294 13.6825H17.089C16.8817 13.3477 16.2858 12.9243 16.1995 12.864C16.1922 12.859 16.1887 12.8567 16.1887 12.8567C16.1887 12.8567 15.8524 13.441 15.5679 13.6345C15.5568 13.6418 15.5449 13.6491 15.5326 13.6556C15.5292 13.6576 15.5257 13.6591 15.5222 13.661C15.5107 13.6668 15.4992 13.6725 15.4865 13.6783C15.1568 13.8238 14.468 13.8023 13.8826 13.7578C13.2442 13.7098 13.0614 13.3608 13.0614 13.3608C12.5431 12.8798 11.8464 12.8076 11.6636 12.7968C11.6579 12.7965 11.6529 12.7961 11.6486 12.7961C11.6291 12.7949 11.6183 12.7949 11.6183 12.7949C11.6183 12.7949 11.6018 12.7953 11.5719 12.7976C11.4072 12.8103 10.8325 12.8886 10.3238 13.3608C10.3238 13.3608 10.1414 13.7098 9.50262 13.7578C8.8638 13.8061 8.10175 13.8276 7.81727 13.6345C7.53856 13.4449 7.20955 12.8786 7.19727 12.8575L7.59576 13.772C7.59576 13.772 7.80844 14.0537 8.38507 14.0319C8.96131 14.01 9.85466 14.1735 10.3161 13.6057C10.7518 13.0698 11.5657 13.0272 11.6556 13.0241C11.7454 13.0272 12.5593 13.0698 12.995 13.6057C13.4565 14.1735 14.3494 14.01 14.926 14.0319C15.3272 14.0468 15.5518 13.9152 15.6516 13.8338L16.0601 14.038L15.5894 14.1816L16.2858 14.7997C16.2858 14.7997 15.6697 15.8251 15.1833 16.2094C16.3914 15.5771 16.8939 14.853 16.8939 14.853L16.3269 14.354L17.2782 14.5544Z" fill="#BB9C79"/>
<path d="M10.438 6.36551L10.979 7.2005C10.438 7.11681 9.10742 7.56137 9.10742 7.56137C9.10742 7.56137 9.37232 7.19321 10.6668 7.04579C10.6668 7.04579 10.2864 6.39584 10.2373 6.11328L11.121 6.56706L10.438 6.36551Z" fill="#D1B783"/>
<path d="M12.5894 10.8066C12.5894 10.903 12.5111 10.9813 12.4147 10.9813H11.0419C10.9455 10.9813 10.8672 10.903 10.8672 10.8066C10.8672 10.8066 11.6891 10.9767 12.5894 10.8066Z" fill="#B7365B"/>
<path d="M12.5239 15.6364C12.0379 15.6437 10.9572 15.2494 10.6328 15.1266L10.6935 14.9941C10.6935 14.9941 10.6992 14.9972 10.71 15.0026C10.8455 15.0698 11.783 15.5262 12.5239 15.6364Z" fill="#AEB0C0"/>
<path d="M9.75 15.6333C9.75 15.6333 11.4902 16.3493 13.1733 15.5938C11.9133 16.1404 9.75 15.6333 9.75 15.6333Z" fill="white"/>
<path d="M11.1387 16.5813C11.1387 16.5813 11.8339 16.3767 12.2474 16.5813C11.903 16.3349 11.4834 16.3349 11.1387 16.5813Z" fill="#BB9C79"/>
</svg>
