<svg width="67" height="66" viewBox="0 0 67 66" fill="none" xmlns="http://www.w3.org/2000/svg">
<path d="M29.481 6.24592C31.412 4.59478 34.5744 4.59478 36.5333 6.24592L40.955 10.0519C41.7946 10.7796 43.3618 11.3672 44.4812 11.3672H49.2387C52.2052 11.3672 54.6399 13.802 54.6399 16.7684V21.5259C54.6399 22.6174 55.2276 24.2125 55.9552 25.0521L59.7612 29.4738C61.4124 31.4048 61.4124 34.5671 59.7612 36.5261L55.9552 40.9478C55.2276 41.7874 54.6399 43.3545 54.6399 44.474V49.2315C54.6399 52.1979 52.2052 54.6327 49.2387 54.6327H44.4812C43.3898 54.6327 41.7946 55.2203 40.955 55.948L36.5333 59.754C34.6024 61.4051 31.44 61.4051 29.481 59.754L25.0593 55.948C24.2198 55.2203 22.6526 54.6327 21.5332 54.6327H16.6917C13.7253 54.6327 11.2905 52.1979 11.2905 49.2315V44.446C11.2905 43.3545 10.7028 41.7874 10.0032 40.9478L6.22518 36.4981C4.60202 34.5671 4.60202 31.4328 6.22518 29.5018L10.0032 25.0521C10.7028 24.2125 11.2905 22.6454 11.2905 21.5539V16.7404C11.2905 13.774 13.7253 11.3393 16.6917 11.3393H21.5332C22.6246 11.3393 24.2198 10.7516 25.0593 10.0239L29.481 6.24592Z" fill="#86318C"/>
<path d="M29.5929 41.8435C29.0332 41.8435 28.5015 41.6196 28.1097 41.2278L21.3372 34.4554C20.5256 33.6438 20.5256 32.3005 21.3372 31.4889C22.1488 30.6773 23.4921 30.6773 24.3036 31.4889L29.5929 36.7781L41.6266 24.7444C42.4382 23.9328 43.7815 23.9328 44.593 24.7444C45.4046 25.556 45.4046 26.8993 44.593 27.7109L31.0761 41.2278C30.6843 41.6196 30.1526 41.8435 29.5929 41.8435Z" fill="white"/>
</svg>
