<svg width="24" height="24" viewBox="0 0 24 24" fill="none" xmlns="http://www.w3.org/2000/svg">
<path d="M15.2934 15.9192L19.5091 15.9192C20.8184 15.9192 21.3477 15.3249 21.3477 13.8485L21.3477 10.0971C21.3477 8.62065 20.8184 8.02637 19.5091 8.02637L15.3027 8.02637C13.9841 8.02637 13.4641 8.62065 13.4641 10.0971L13.4641 13.8485C13.4548 15.3249 13.9841 15.9192 15.2934 15.9192Z" stroke="#292D32" stroke-width="1.39286" stroke-linecap="round" stroke-linejoin="round"/>
<path opacity="0.4" d="M4.84584 15.9192L8.59726 15.9192C10.0737 15.9192 10.668 15.3249 10.668 13.8485L10.668 10.0971C10.668 8.62065 10.0737 8.02637 8.59726 8.02637L4.84584 8.02637C3.36941 8.02637 2.77513 8.62065 2.77513 10.0971L2.77513 13.8485C2.77513 15.3249 3.36941 15.9192 4.84584 15.9192Z" stroke="#292D32" stroke-width="1.39286" stroke-linecap="round" stroke-linejoin="round"/>
</svg>
