<svg width="24" height="24" viewBox="0 0 24 24" fill="none" xmlns="http://www.w3.org/2000/svg">
<path d="M13.0209 7.99972L19.3352 7.99972C20.728 7.99972 21.2852 8.59401 21.2852 10.0704L21.2852 13.8219C21.2852 15.2983 20.728 15.8926 19.3352 15.8926L13.0209 15.8926C11.6281 15.8926 11.0709 15.2983 11.0709 13.8219L11.0709 10.0704C11.0709 8.59401 11.6281 7.99972 13.0209 7.99972Z" stroke="#292D32" stroke-width="1.39285" stroke-linecap="round" stroke-linejoin="round"/>
<path opacity="0.4" d="M4.66375 7.99972L6.33517 7.99972C7.72802 7.99972 8.28516 8.59401 8.28516 10.0704L8.28516 13.8219C8.28516 15.2983 7.72802 15.8926 6.33517 15.8926L4.66375 15.8926C3.2709 15.8926 2.71376 15.2983 2.71376 13.8219L2.71376 10.0704C2.71376 8.59401 3.2709 7.99972 4.66375 7.99972Z" stroke="#292D32" stroke-width="1.39285" stroke-linecap="round" stroke-linejoin="round"/>
</svg>
