<svg width="24" height="24" viewBox="0 0 24 24" fill="none" xmlns="http://www.w3.org/2000/svg">
<path d="M10.9771 7.99972L4.66288 7.99972C3.27003 7.99972 2.71289 8.59401 2.71289 10.0704L2.71289 13.8219C2.71289 15.2983 3.27003 15.8926 4.66288 15.8926L10.9771 15.8926C12.37 15.8926 12.9271 15.2983 12.9271 13.8219L12.9271 10.0704C12.9271 8.59401 12.37 7.99972 10.9771 7.99972Z" stroke="#292D32" stroke-width="1.39285" stroke-linecap="round" stroke-linejoin="round"/>
<path opacity="0.4" d="M19.3343 7.99972L17.6629 7.99972C16.27 7.99972 15.7129 8.59401 15.7129 10.0704L15.7129 13.8219C15.7129 15.2983 16.27 15.8926 17.6629 15.8926L19.3343 15.8926C20.7272 15.8926 21.2843 15.2983 21.2843 13.8219L21.2843 10.0704C21.2843 8.59401 20.7271 7.99972 19.3343 7.99972Z" stroke="#292D32" stroke-width="1.39285" stroke-linecap="round" stroke-linejoin="round"/>
</svg>
