<svg width="24" height="24" viewBox="0 0 24 24" fill="none" xmlns="http://www.w3.org/2000/svg">
<path opacity="0.4" d="M2.83594 10.7305C2.83594 11.583 3.47532 12.5674 4.25678 12.9125L11.1478 15.9775C11.6756 16.2109 12.2744 16.2109 12.792 15.9775L19.6831 12.9125C20.4645 12.5674 21.1039 11.583 21.1039 10.7305" stroke="#292D32" stroke-width="1.52233" stroke-linecap="round" stroke-linejoin="round"/>
<path opacity="0.4" d="M2.83594 15.8047C2.83594 16.7486 3.39413 17.6011 4.25678 17.9868L11.1478 21.0517C11.6756 21.2851 12.2744 21.2851 12.792 21.0517L19.6831 17.9868C20.5457 17.6011 21.1039 16.7486 21.1039 15.8047" stroke="#292D32" stroke-width="1.52233" stroke-linecap="round" stroke-linejoin="round"/>
<path d="M20.7919 6.89595C20.7919 7.25091 20.7399 7.60589 20.6447 7.93488C20.5495 8.28118 20.411 8.60152 20.2291 8.90454C20.0214 9.25084 19.7616 9.56251 19.4586 9.82224C18.7747 10.4282 17.8829 10.7919 16.8959 10.7919C16.4544 10.7919 16.0388 10.7227 15.6492 10.5842C14.7662 10.2898 14.0303 9.68373 13.5627 8.90454C13.2078 8.31581 13 7.62319 13 6.89595C13 5.66656 13.5627 4.56703 14.4631 3.8571C15.1298 3.32033 15.9782 3 16.8959 3C19.0517 3 20.7919 4.74019 20.7919 6.89595Z" stroke="#292D32" stroke-width="1.29865" stroke-miterlimit="10" stroke-linecap="round" stroke-linejoin="round"/>
<g opacity="0.4">
<path d="M16.9141 8.35037V5.44141" stroke="#292D32" stroke-width="1.21875" stroke-miterlimit="10" stroke-linecap="round" stroke-linejoin="round"/>
<path d="M18.3328 6.89844H15.4238" stroke="#292D32" stroke-width="1.21875" stroke-miterlimit="10" stroke-linecap="round" stroke-linejoin="round"/>
</g>
<path fill-rule="evenodd" clip-rule="evenodd" d="M11.7456 3.56336C11.3492 3.56336 10.997 3.63268 10.7721 3.73335L10.7699 3.73436L4.48239 6.52645L4.48063 6.52723C3.65509 6.89144 3.59853 7.22095 3.59853 7.25596C3.59853 7.29096 3.65509 7.62048 4.48062 7.98468L4.48239 7.98546L10.7699 10.7776L10.7721 10.7786C10.997 10.8792 11.3492 10.9485 11.7456 10.9485C12.1421 10.9485 12.4943 10.8792 12.7191 10.7786L12.7214 10.7776L14.3117 10.0714C14.7282 10.5238 15.232 10.8964 15.798 11.1604L13.3724 12.2375L13.3713 12.238C12.8824 12.4567 12.2919 12.5471 11.7456 12.5471C11.1994 12.5471 10.609 12.4567 10.1201 12.2381L10.1189 12.2375L3.8354 9.4472C2.84964 9.0121 2 8.28102 2 7.25596C2 6.23092 2.84875 5.50022 3.83448 5.06511L3.8354 5.06471L10.1189 2.2744L10.1201 2.27388C10.609 2.05523 11.1994 1.96484 11.7456 1.96484C12.2919 1.96484 12.8822 2.05522 13.3712 2.27385L13.3724 2.2744L14.9627 2.98062C14.9202 3.01262 14.8781 3.04532 14.8367 3.0787C14.4315 3.3982 14.0818 3.7818 13.8012 4.21388L12.7214 3.73436L12.7191 3.73335C12.4943 3.63268 12.1421 3.56336 11.7456 3.56336Z" fill="#292D32"/>
</svg>
