<svg width="24" height="24" viewBox="0 0 24 24" fill="none" xmlns="http://www.w3.org/2000/svg">
<path d="M21.0602 11.8216L20.9002 11.6016C20.6202 11.2616 20.2902 10.9916 19.9102 10.7916C19.4002 10.5016 18.8202 10.3516 18.2202 10.3516H5.7702C5.1702 10.3516 4.6002 10.5016 4.0802 10.7916C3.6902 11.0016 3.3402 11.2916 3.0502 11.6516C2.4802 12.3816 2.2102 13.2816 2.3002 14.1816L2.6702 18.8516C2.8002 20.2616 2.9702 22.0016 6.1402 22.0016H17.8602C21.0302 22.0016 21.1902 20.2616 21.3302 18.8416L21.7002 14.1916C21.7902 13.3516 21.5702 12.5116 21.0602 11.8216ZM14.3902 17.3416H9.6002C9.2102 17.3416 8.9002 17.0216 8.9002 16.6416C8.9002 16.2616 9.2102 15.9416 9.6002 15.9416H14.3902C14.7802 15.9416 15.0902 16.2616 15.0902 16.6416C15.0902 17.0316 14.7802 17.3416 14.3902 17.3416Z" fill="#292D32"/>
<path d="M20.562 8.59643C20.5995 8.97928 20.1842 9.23561 19.8194 9.11348C19.3147 8.94449 18.7833 8.86 18.2309 8.86H5.77086C5.21402 8.86 4.66576 8.95012 4.1542 9.12194C3.7938 9.24298 3.38086 8.99507 3.38086 8.61489V6.66C3.38086 3.09 4.47086 2 8.04086 2H9.22086C10.6509 2 11.1009 2.46 11.6809 3.21L12.8809 4.81C13.1309 5.15 13.1409 5.17 13.5809 5.17H15.9609C19.0865 5.17 20.3079 6.00724 20.562 8.59643Z" fill="#292D32"/>
</svg>
