<svg width="24" height="24" viewBox="0 0 24 24" fill="none" xmlns="http://www.w3.org/2000/svg">
<path fill-rule="evenodd" clip-rule="evenodd" d="M11.0271 2.02003C8.70369 2.25817 6.57923 3.26929 4.92968 4.92204C3.4869 6.36764 2.57621 8.06404 2.18015 10.0437C2.04178 10.7353 2 11.1884 2 11.9976C2 12.8059 2.04166 13.2587 2.1798 13.9515C2.49114 15.513 3.13062 16.9009 4.1424 18.2111C4.51533 18.694 5.42813 19.5859 5.94694 19.9742C7.41309 21.0716 9.01769 21.7233 10.7915 21.9417C11.4227 22.0194 12.5863 22.0194 13.2139 21.9417C15.0455 21.715 16.7175 21.019 18.2176 19.859C18.6447 19.5286 19.5351 18.6382 19.8655 18.2111C21.0567 16.6707 21.77 14.9137 21.9715 13.0236C22.041 12.3714 22.0003 10.9724 21.8945 10.3758C21.5121 8.22031 20.5863 6.42684 19.0797 4.92318C18.0464 3.89193 16.9145 3.15213 15.5888 2.64153C14.8198 2.3454 13.9049 2.1232 13.0901 2.03472C12.7419 1.99689 11.3495 1.98697 11.0271 2.02003ZM8.38696 6.3567C8.91101 6.51715 9.22875 6.96554 9.2293 7.54547C9.22961 7.85747 9.13348 8.09933 8.91355 8.34001C8.6264 8.6542 8.41623 8.73451 7.88132 8.73455C7.38253 8.73455 7.20308 8.67355 6.91171 8.40496C6.65395 8.16736 6.55336 7.91323 6.55504 7.50357C6.55617 7.22299 6.57235 7.14065 6.65895 6.97355C6.96048 6.39179 7.67198 6.13782 8.38696 6.3567ZM15.7864 9.71651C16.7129 9.91038 17.4365 10.6374 17.7065 11.6459C17.8477 12.1735 17.8659 12.5401 17.8659 14.8591V17.1169H16.6776H15.4892L15.4724 14.9187C15.4578 13.0251 15.4465 12.6893 15.3908 12.4947C15.2065 11.8507 14.8826 11.5691 14.2902 11.5377C14.0372 11.5243 13.9351 11.5371 13.7548 11.6051C13.4467 11.7213 13.1696 11.9812 13.0116 12.3021L12.8834 12.5625L12.8721 14.8397L12.8609 17.1169H11.6705H10.48V13.4631V9.80921H11.6719H12.8638L12.8657 10.327L12.8675 10.8448L12.9731 10.708C13.1853 10.4333 13.4662 10.1578 13.6763 10.0183C14.2104 9.6638 14.9968 9.55133 15.7864 9.71651ZM9.07322 13.4631V17.1169H7.88132H6.68943V13.4631V9.80921H7.88132H9.07322V13.4631Z" fill="black"/>
</svg>
