<svg width="66" height="66" viewBox="0 0 66 66" fill="none" xmlns="http://www.w3.org/2000/svg">
<rect width="66" height="66" rx="33" fill="#86318C"/>
<path d="M26.175 48C25.56 48 25.05 47.49 25.05 46.875V19.125C25.05 18.51 25.56 18 26.175 18C26.79 18 27.3 18.51 27.3 19.125V46.875C27.3 47.49 26.79 48 26.175 48Z" fill="white"/>
<path opacity="0.4" d="M39.3 25.74L27.15 20.49C26.97 20.4 26.775 20.43 26.61 20.535C26.46 20.64 26.37 20.805 26.37 21V40.5C26.37 40.695 26.475 40.875 26.64 40.98C26.73 41.04 26.835 41.07 26.94 41.07C27.03 41.07 27.105 41.055 27.195 41.01L39.645 34.86C39.645 34.86 39.645 34.86 39.66 34.86C42.15 33.57 43.485 31.905 43.41 30.15C43.32 28.38 41.865 26.82 39.3 25.74Z" fill="white"/>
</svg>
