<svg width="24" height="24" viewBox="0 0 24 24" fill="none" xmlns="http://www.w3.org/2000/svg">
<g opacity="0.4">
<path d="M16.4902 5L4.99023 16.5" stroke="white" stroke-width="1.5" stroke-linecap="round" stroke-linejoin="round"/>
<path fill-rule="evenodd" clip-rule="evenodd" d="M4.4599 4.46967C4.7528 4.17678 5.22767 4.17678 5.52056 4.46967L13.8562 12.8053C13.4372 13.0878 13.0905 13.4734 12.8533 13.9238L4.4599 5.53033C4.16701 5.23744 4.16701 4.76256 4.4599 4.46967Z" fill="white"/>
</g>
<path fill-rule="evenodd" clip-rule="evenodd" d="M12.7707 2.33139C11.6521 1.22156 9.82614 1.22453 8.72035 2.33033L2.33221 8.71845L2.33133 8.71934C1.22156 9.83801 1.22455 11.6639 2.33033 12.7697L8.71845 19.1578L8.71952 19.1589C9.8382 20.2685 11.664 20.2654 12.7697 19.1597L13.2959 18.6335L13.7495 20.2991C12.0493 21.9138 9.33619 21.885 7.66158 20.2222L7.65968 20.2203L1.26967 13.8303C-0.424261 12.1364 -0.421557 9.36299 1.26779 7.66158L1.26967 7.65968L1.26967 7.65968L7.65968 1.26967C9.35362 -0.424261 12.127 -0.421557 13.8284 1.26779L13.8303 1.26967L20.2203 7.65968L20.2222 7.66157C21.897 9.34827 21.9141 12.0885 20.2639 13.7861L18.6929 13.2365L19.1597 12.7697C20.2654 11.664 20.2685 9.8382 19.1589 8.71952L19.1578 8.71845L12.7716 2.33221L12.7707 2.33139ZM19.0871 14.9636L19.087 14.9637L17.5155 14.4139L17.5156 14.4138L19.0871 14.9636Z" fill="white"/>
<path opacity="0.4" d="M21.834 18.8525L20.1855 19.3442C19.7304 19.4781 19.3582 19.8151 19.1919 20.2695L18.5843 21.8789C18.0645 23.2713 16.0868 23.1709 15.6972 21.7462L14.0599 15.7341C13.7421 14.5421 14.8705 13.4815 16.0266 13.8929L21.9171 15.9536C23.3006 16.4431 23.2498 18.4325 21.834 18.8525Z" stroke="white" stroke-width="1.5" stroke-linecap="round" stroke-linejoin="round"/>
</svg>
