<svg width="24" height="24" viewBox="0 0 24 24" fill="none" xmlns="http://www.w3.org/2000/svg">
<path opacity="0.4" fill-rule="evenodd" clip-rule="evenodd" d="M4.25158 10.6782C3.32485 11.0898 2.53125 11.7775 2.53125 12.7394C2.53125 13.7049 3.33077 14.3942 4.26194 14.8052L4.26283 14.8056L10.2021 17.4431L10.203 17.4435C10.6643 17.6498 11.2216 17.7352 11.7375 17.7352C12.2534 17.7352 12.8108 17.6498 13.272 17.4435L13.2729 17.4431L19.2123 14.8056L19.213 14.8053C20.1443 14.3943 20.9438 13.7049 20.9438 12.7394C20.9438 11.82 20.2187 11.151 19.3453 10.7343L17.4995 11.5539L18.6051 12.0449L18.6068 12.0456C19.3877 12.3901 19.4438 12.703 19.4438 12.7394C19.4438 12.7759 19.3877 13.0887 18.6068 13.4332L18.6051 13.434L12.6621 16.0731L12.6599 16.0741C12.4465 16.1696 12.1128 16.2352 11.7375 16.2352C11.3623 16.2352 11.0286 16.1696 10.8151 16.074L10.813 16.0731L4.86995 13.434L4.86829 13.4332C4.08743 13.0887 4.03125 12.7759 4.03125 12.7394C4.03125 12.703 4.08743 12.3901 4.86829 12.0456L4.86829 12.0456L4.86995 12.0449L6.09956 11.4989L4.25158 10.6782Z" fill="#292D32"/>
<path d="M13.0548 2.25869L19.8383 5.27103C21.7929 6.13334 21.7929 7.55903 19.8383 8.42134L13.0548 11.4337C12.2845 11.7786 11.0198 11.7786 10.2494 11.4337L3.46593 8.42134C1.51136 7.55903 1.51136 6.13334 3.46593 5.27103L10.2494 2.25869C11.0198 1.91377 12.2845 1.91377 13.0548 2.25869Z" stroke="#292D32" stroke-width="1.5" stroke-linecap="round" stroke-linejoin="round"/>
<path fill-rule="evenodd" clip-rule="evenodd" d="M4.82505 16.189C4.27464 16.5416 3.86523 17.0372 3.86523 17.6762C3.86523 18.5018 4.5486 19.088 5.33651 19.4357L5.33725 19.4361L10.3519 21.6629L10.3528 21.6633C10.745 21.8387 11.218 21.911 11.6551 21.911C12.0923 21.911 12.5653 21.8387 12.9575 21.6633L12.9584 21.6629L17.973 19.4361L17.9738 19.4357C18.7617 19.088 19.4451 18.5018 19.4451 17.6762C19.4451 17.0555 19.0588 16.5701 18.5322 16.2196L16.9925 16.9033L17.4469 17.1051L17.4483 17.1057C18.1059 17.3958 18.1451 17.6558 18.1451 17.6762C18.1451 17.6966 18.1059 17.9566 17.4483 18.2467L17.4469 18.2473L12.4289 20.4756L12.4271 20.4764C12.2497 20.5559 11.9704 20.611 11.6551 20.611C11.3399 20.611 11.0606 20.5559 10.8832 20.4764L10.8813 20.4756L5.86342 18.2473L5.86198 18.2467C5.20436 17.9566 5.16523 17.6966 5.16523 17.6762C5.16523 17.6558 5.20436 17.3958 5.86198 17.1057L5.86198 17.1057L5.86342 17.1051L6.37574 16.8776L4.82505 16.189Z" fill="#292D32"/>
</svg>
