<svg width="24" height="24" viewBox="0 0 24 24" fill="none" xmlns="http://www.w3.org/2000/svg">
<path d="M10.8822 3.00034L4.85984 3.00034C3.53138 3.00034 3 3.56715 3 4.97533L3 8.55333C3 9.96151 3.53138 10.5283 4.85984 10.5283L10.8822 10.5283C12.2107 10.5283 12.742 9.96151 12.742 8.55333L12.742 4.97533C12.742 3.56715 12.2107 3.00034 10.8822 3.00034Z" stroke="#292D32" stroke-width="1.32846" stroke-linecap="round" stroke-linejoin="round"/>
<path opacity="0.4" d="M18.8524 3.00034L17.2583 3.00034C15.9298 3.00034 15.3984 3.56715 15.3984 4.97533L15.3984 8.55333C15.3984 9.96151 15.9298 10.5283 17.2583 10.5283L18.8524 10.5283C20.1809 10.5283 20.7123 9.96151 20.7123 8.55333L20.7123 4.97533C20.7123 3.56715 20.1809 3.00034 18.8524 3.00034Z" stroke="#292D32" stroke-width="1.32846" stroke-linecap="round" stroke-linejoin="round"/>
<path d="M12.8326 14.3431L18.855 14.3431C20.1835 14.3431 20.7148 14.9099 20.7148 16.3181L20.7148 19.8961C20.7148 21.3043 20.1835 21.8711 18.855 21.8711L12.8326 21.8711C11.5042 21.8711 10.9728 21.3043 10.9728 19.8961L10.9728 16.3181C10.9728 14.9099 11.5042 14.3431 12.8326 14.3431Z" stroke="#292D32" stroke-width="1.32846" stroke-linecap="round" stroke-linejoin="round"/>
<path opacity="0.4" d="M4.86046 14.3431L6.45461 14.3431C7.78307 14.3431 8.31445 14.9099 8.31445 16.3181L8.31445 19.8961C8.31445 21.3043 7.78307 21.8711 6.45461 21.8711L4.86046 21.8711C3.532 21.8711 3.00061 21.3043 3.00061 19.8961L3.00061 16.3181C3.00061 14.9099 3.532 14.3431 4.86046 14.3431Z" stroke="#292D32" stroke-width="1.32846" stroke-linecap="round" stroke-linejoin="round"/>
</svg>
