<svg width="24" height="24" viewBox="0 0 24 24" fill="none" xmlns="http://www.w3.org/2000/svg">
<path opacity="0.4" d="M8 7H15.5" stroke="#292D32" stroke-width="1.5" stroke-linecap="round" stroke-linejoin="round"/>
<path opacity="0.4" d="M9 11H15" stroke="#292D32" stroke-width="1.5" stroke-linecap="round" stroke-linejoin="round"/>
<path d="M14.5127 18.8412H15.8833V22.0349C15.8833 22.5051 16.4688 22.7269 16.7793 22.372L20.1371 18.5573C20.4299 18.2247 20.1948 17.7057 19.7512 17.7057H18.3806V14.512C18.3806 14.0418 17.7951 13.82 17.4846 14.1749L14.1268 17.9896C13.8385 18.3223 14.0736 18.8412 14.5127 18.8412Z" fill="#292D32"/>
<path fill-rule="evenodd" clip-rule="evenodd" d="M21.25 7.98885C20.8142 8.32848 20.3049 8.57214 19.75 8.6963V11.3C19.75 11.7142 20.0858 12.05 20.5 12.05C20.9142 12.05 21.25 11.7142 21.25 11.3V7.98885ZM17.3419 1.32491C16.8586 1.27037 16.3368 1.25 15.78 1.25H8.21999C6.32849 1.25 4.84094 1.48504 3.8948 2.49637C2.96532 3.48991 2.75 5.03645 2.75 7.04V18.3C2.75 19.0254 2.84842 19.6678 3.06131 20.1898C3.27521 20.7143 3.62811 21.1671 4.15457 21.3938C4.68652 21.6229 5.25617 21.5614 5.77589 21.337C6.28526 21.1171 6.78749 20.7269 7.27026 20.2104L7.27187 20.2087L7.28575 20.1944C7.78886 19.6606 8.49042 19.7052 8.91922 20.279L8.91945 20.2793L9.92946 21.6293C10.1776 21.9609 10.6476 22.0287 10.9793 21.7805C11.3109 21.5324 11.3787 21.0624 11.1305 20.7307L10.1207 19.381L10.1205 19.3807C9.13138 18.0576 7.33876 17.9599 6.20153 19.1578L6.19811 19.1613C6.19239 19.167 6.18677 19.1729 6.18124 19.1788C5.78163 19.6077 5.44052 19.848 5.18132 19.9599C4.92947 20.0686 4.80224 20.0396 4.74794 20.0162C4.68815 19.9904 4.56542 19.9057 4.45025 19.6233C4.33408 19.3385 4.25 18.9046 4.25 18.3V7.04C4.25 5.01356 4.50468 4.0401 4.99019 3.52114C5.45905 3.01996 6.33149 2.75 8.21999 2.75H15.6418C15.866 2.41102 16.1424 2.10939 16.4606 1.8569C16.7287 1.64319 17.0248 1.46359 17.3419 1.32491Z" fill="#292D32"/>
<path d="M22.79 4.895C22.79 5.62531 22.5855 6.31667 22.2252 6.90092C22.0208 7.25147 21.7578 7.56307 21.456 7.81625C20.7743 8.42971 19.8785 8.79 18.895 8.79C17.4733 8.79 16.2366 8.03047 15.5648 6.90092C15.2045 6.31667 15 5.62531 15 4.895C15 3.66807 15.5648 2.56774 16.4606 1.8569C17.1325 1.32134 17.9797 1 18.895 1C21.047 1 22.79 2.74301 22.79 4.895Z" stroke="#292D32" stroke-width="1.46063" stroke-miterlimit="10" stroke-linecap="round" stroke-linejoin="round"/>
<g opacity="0.4">
<path d="M20.3393 4.875H17.4375" stroke="#292D32" stroke-width="1.46063" stroke-miterlimit="10" stroke-linecap="round" stroke-linejoin="round"/>
<path d="M18.8887 3.45312V6.36463" stroke="#292D32" stroke-width="1.46063" stroke-miterlimit="10" stroke-linecap="round" stroke-linejoin="round"/>
</g>
</svg>
