<svg width="24" height="24" viewBox="0 0 24 24" fill="none" xmlns="http://www.w3.org/2000/svg">
<path d="M14.5318 18.8412H15.9534V22.0349C15.9534 22.5051 16.5607 22.7269 16.8828 22.372L20.3655 18.5573C20.6692 18.2247 20.4254 17.7057 19.9653 17.7057H18.5437V14.512C18.5437 14.0418 17.9363 13.82 17.6143 14.1749L14.1315 17.9896C13.8325 18.3223 14.0763 18.8412 14.5318 18.8412Z" fill="#292D32"/>
<path fill-rule="evenodd" clip-rule="evenodd" d="M8.22 2H15.78C19.56 2 20.5 3.01 20.49 7.04V16.7965C20.3275 16.7372 20.1514 16.7043 19.966 16.7043H19.5444V14.5106C19.5444 13.0541 17.7636 12.5242 16.8758 13.5001L13.3938 17.3139L13.3886 17.3197C12.4843 18.3257 13.2481 19.785 14.4637 19.8384L13.46 21.18C12.65 22.25 11.34 22.25 10.53 21.18L9.52 19.83C8.81 18.88 7.56 18.81 6.74 19.68L6.73 19.69C4.96 21.59 3.5 20.96 3.5 18.3V7.04C3.5 3.01 4.44 2 8.22 2ZM18.4796 20.6225C18.103 20.4521 17.6912 20.1403 17.26 19.68C16.8842 19.2767 16.4181 19.073 15.9542 19.0629V18.8399H14.5325C14.0771 18.8399 13.8332 18.3209 14.1323 17.9882L17.615 14.1735C17.9371 13.8187 18.5444 14.0405 18.5444 14.5106V17.7043H19.966C20.2438 17.7043 20.4428 17.8935 20.49 18.1167V18.29C20.49 18.3003 20.49 18.3105 20.4899 18.3207C20.4722 18.4031 20.4321 18.4839 20.3663 18.556L18.4796 20.6225ZM9 11.75H15C15.41 11.75 15.75 11.41 15.75 11C15.75 10.59 15.41 10.25 15 10.25H9C8.59 10.25 8.25 10.59 8.25 11C8.25 11.41 8.59 11.75 9 11.75ZM8 7.75H16C16.41 7.75 16.75 7.41 16.75 7C16.75 6.59 16.41 6.25 16 6.25H8C7.59 6.25 7.25 6.59 7.25 7C7.25 7.41 7.59 7.75 8 7.75Z" fill="#292D32"/>
</svg>
