<svg width="80" height="80" viewBox="0 0 80 80" fill="none" xmlns="http://www.w3.org/2000/svg">
<path d="M68.3346 37.667V23.467C68.3346 10.0337 65.2013 6.66699 52.6013 6.66699H27.4013C14.8013 6.66699 11.668 10.0337 11.668 23.467V61.0003C11.668 69.867 16.5347 71.967 22.4347 65.6337L22.4679 65.6003C25.2013 62.7003 29.3679 62.9336 31.7346 66.1003L35.1013 70.6003" stroke="#292D32" stroke-width="5" stroke-linecap="round" stroke-linejoin="round"/>
<path opacity="0.4" d="M26.668 23.333H53.3346" stroke="#292D32" stroke-width="5" stroke-linecap="round" stroke-linejoin="round"/>
<path opacity="0.4" d="M30 36.667H50" stroke="#292D32" stroke-width="5" stroke-linecap="round" stroke-linejoin="round"/>
<path d="M48.377 62.8044H52.9457V73.45C52.9457 75.0173 54.8974 75.7566 55.9324 74.5737L67.1251 61.8581C68.101 60.7492 67.3174 59.0193 65.8388 59.0193H61.2701V48.3736C61.2701 46.8063 59.3183 46.0671 58.2833 47.2499L47.0907 59.9655C46.1296 61.0745 46.9132 62.8044 48.377 62.8044Z" fill="#292D32"/>
</svg>
