<svg width="24" height="24" viewBox="0 0 24 24" fill="none" xmlns="http://www.w3.org/2000/svg">
<path d="M10.745 2.4425C11.435 1.8525 12.565 1.8525 13.265 2.4425L14.845 3.80261C15.145 4.06261 15.705 4.27258 16.105 4.27258H17.805C18.865 4.27258 19.735 5.14251 19.735 6.20251V7.90258C19.735 8.29258 19.945 8.86259 20.205 9.16259L21.565 10.7425C22.155 11.4325 22.155 12.5626 21.565 13.2626L20.205 14.8425C19.945 15.1425 19.735 15.7025 19.735 16.1025V17.8026C19.735 18.8626 18.865 19.7325 17.805 19.7325H16.105C15.715 19.7325 15.145 19.9425 14.845 20.2025L13.265 21.5625C12.575 22.1525 11.445 22.1525 10.745 21.5625L9.16501 20.2025C8.86501 19.9425 8.305 19.7325 7.905 19.7325H6.17499C5.11499 19.7325 4.245 18.8626 4.245 17.8026V16.0925C4.245 15.7025 4.03501 15.1425 3.78501 14.8425L2.435 13.2526C1.855 12.5626 1.855 11.4426 2.435 10.7526L3.78501 9.16259C4.03501 8.86259 4.245 8.30259 4.245 7.91259V6.20251C4.245 5.14251 5.11499 4.27258 6.17499 4.27258H7.905C8.295 4.27258 8.86501 4.06261 9.16501 3.80261L10.745 2.4425Z" stroke="#292D32" stroke-width="1.5" stroke-linecap="round" stroke-linejoin="round"/>
<path opacity="0.4" d="M16.8202 9.5H13.76L13 11.7901H15.2901C16.1302 11.7901 16.8202 12.4702 16.8202 13.3202C16.8202 14.1602 16.1402 14.8502 15.2901 14.8502H13" stroke="#292D32" stroke-width="1.50007" stroke-linecap="round" stroke-linejoin="round"/>
<path opacity="0.4" d="M9 9.5C10.1 9.5 11 10.4 11 11.5V12.85C11 13.95 10.1 14.85 9 14.85C7.9 14.85 7 13.95 7 12.85V11.5C7 10.39 7.9 9.5 9 9.5Z" stroke="#292D32" stroke-width="1.5" stroke-linecap="round" stroke-linejoin="round"/>
</svg>
