<svg width="24" height="24" viewBox="0 0 24 24" fill="none" xmlns="http://www.w3.org/2000/svg">
<path d="M12 0C5.37306 0 0 5.37306 0 12C0 18.6269 5.37306 24 12 24C18.6269 24 24 18.6269 24 12C24 5.37306 18.6269 0 12 0ZM18.8914 9.2449C18.3845 10.0873 17.351 10.6604 17.2555 10.7094C17.062 10.8122 16.991 10.9616 17.0033 11.1845C17.0155 11.4073 16.9616 12.5118 16.2882 12.9992C15.9429 13.249 14.5494 13.5722 13.9102 13.68C13.582 13.7363 13.5061 13.8367 13.3249 13.9445C13.08 14.0963 12.2106 15.3012 12.0637 15.5682C12.0833 15.5657 14.8041 14.7208 14.9265 14.7012C15.2498 14.6522 15.4947 14.7453 15.6539 14.9804C15.8057 15.2057 15.9551 15.4335 16.1045 15.6612C16.1584 15.742 16.2098 15.8253 16.2612 15.9086L16.3151 15.9943C16.3347 16.0261 16.3616 16.0629 16.3739 16.1118C16.3837 16.1461 16.4057 16.2612 16.3396 16.3298C16.2784 16.3935 16.1731 16.3935 16.1167 16.3788C16.0629 16.3641 15.982 16.3322 15.9159 16.2784L15.8253 16.2025C15.7543 16.1412 15.6196 16.1118 15.5143 16.1167C15.3918 16.1216 15.2302 16.0824 15.1518 16.0335C15 15.9355 14.9608 15.6906 14.9608 15.6882C14.9412 15.6073 14.8824 15.5853 14.8286 15.5853C14.7306 15.5829 14.6547 15.6122 14.5763 15.6343C14.2188 15.742 13.8637 15.8522 13.5061 15.9649L12.9943 16.1241C12.742 16.2024 12.4898 16.2808 12.24 16.3641C12.1714 16.3861 12.1053 16.4204 12.0343 16.4571C12.0049 16.4718 11.9755 16.4865 11.9461 16.5012C11.9167 16.5159 11.8849 16.5331 11.8555 16.5502C11.7894 16.5869 11.7184 16.6261 11.64 16.6482C11.3853 16.7241 11.1624 16.6139 11.0571 16.3592C10.9886 16.1951 11.0498 15.8694 11.0865 15.7739C11.3167 15.1763 12.0661 14.0498 12.0661 14.0424C12.0539 14.0376 11.2359 14.3657 11.1012 14.4686C10.7314 14.7502 9.86449 15.4163 9.85224 15.48C9.79592 15.7763 9.61224 15.9992 9.33061 16.1094C9.12735 16.1878 9.0049 16.3494 8.8849 16.5061C8.8849 16.5061 6.71265 19.4988 6.56571 19.6604C6.52163 19.7094 6.1151 20.1355 6.00735 20.3339C5.98286 20.3829 5.8898 20.5788 5.86531 20.6278C5.84571 20.6669 5.80163 20.7722 5.6351 20.7649C5.46857 20.7576 5.46367 20.5249 5.45633 20.4245C5.43918 20.1771 5.49306 19.9347 5.62286 19.68C5.6351 19.6555 5.78204 19.4327 5.72816 19.2539C5.67918 19.0971 5.63265 18.8547 5.70612 18.7322C5.82122 18.5388 6.02449 18.5314 6.29633 18.4873C6.4849 18.4555 6.62204 18.3624 6.75429 18.169C7.03347 17.7624 8.08408 16.271 8.32163 15.9257C8.38531 15.8351 8.43429 15.7176 8.45633 15.6024C8.5249 15.2547 8.73551 15.0122 9.10286 14.8629C9.18122 14.831 10.6433 13.609 10.6433 13.4522C10.6433 13.3396 10.4841 13.2784 10.3616 13.2441C10.3445 13.2392 9.42612 13.0016 9.00735 12.8106C8.77959 12.7078 8.60816 12.6171 8.4049 12.4702C8.12816 12.2669 7.57469 12.3649 7.49388 12.3771C7.10204 12.4335 6.81061 12.6098 6.48 12.8327C6.42122 12.8743 6.12 12.982 5.96816 12.8963C5.67184 12.7273 5.02041 12.4237 4.78041 12.0588C4.6702 11.8898 4.6849 11.6155 4.76327 11.3118C5.01551 10.6065 5.38775 10.2906 6.07592 10.0996C6.56571 9.93061 7.55265 9.89388 8.02775 9.85714C8.05959 9.84735 9.11265 9.82286 9.85224 9.44327C10.3445 9.19102 11.8065 8.21878 13.9102 8.2849C14.76 8.31184 16.3665 9.14204 16.9861 9.16653C17.618 9.19347 17.9339 9.12245 18.2988 8.74531C18.4016 8.63755 18.84 7.69224 18.4261 7.17551C18.2718 6.98449 18.1127 6.81306 17.929 6.65633C17.6816 6.44571 17.4245 6.2449 17.2016 6.00735C16.7094 5.48571 16.5575 4.77306 16.7902 4.21714C16.9396 3.82775 17.2531 3.65878 17.7061 3.74694C18.0245 3.80816 18.2571 4.09469 18.4849 4.24653C18.6122 4.33225 18.8253 4.38122 18.9649 4.41551C19.1412 4.45714 19.2735 4.59184 19.2661 4.68245C19.2588 4.77306 19.0261 4.85143 18.8033 4.83429C18.5388 4.81714 18.0857 4.81469 17.8139 4.90531C17.6327 4.97143 17.5518 5.17224 17.6057 5.37061C17.6498 5.53224 17.9951 5.82122 18.1249 5.92898C18.3845 6.14204 18.6612 6.33551 18.8767 6.60245C19.1192 6.90612 19.2465 7.25143 19.2857 7.63347C19.3445 8.21877 19.1902 8.74531 18.8914 9.2449Z" fill="black"/>
</svg>
