<svg width="24" height="24" viewBox="0 0 24 24" fill="none" xmlns="http://www.w3.org/2000/svg">
<g clip-path="url(#clip0_66_197)">
<path d="M17.9912 8.21503C17.959 7.90045 17.8554 7.61624 17.6552 7.36779C17.4782 7.14794 17.2512 6.99064 17.0367 6.81369C16.9295 6.7261 16.6453 6.48837 16.6095 6.35432C16.5666 6.19166 16.6328 6.02543 16.7811 5.97181C17.0045 5.89673 17.3781 5.89852 17.5944 5.91282C17.7785 5.92712 17.968 5.86277 17.9751 5.7877C17.9823 5.71263 17.8732 5.60181 17.7285 5.56785C17.6141 5.54103 17.4389 5.49992 17.3334 5.43021C17.1458 5.30331 16.9545 5.07094 16.6935 5.0191C16.3218 4.94582 16.0626 5.08524 15.941 5.40519C15.748 5.86277 15.8731 6.44905 16.2789 6.87803C16.4612 7.07108 16.6739 7.23731 16.8776 7.41069C17.0278 7.53938 17.1601 7.68059 17.287 7.83789C17.6266 8.26151 17.2673 9.03904 17.1815 9.12841C16.8812 9.43942 16.6203 9.49662 16.1019 9.47517C15.5925 9.45372 14.2716 8.77092 13.5727 8.74948C11.8424 8.69585 10.6413 9.49483 10.2355 9.70218C9.62782 10.0132 8.7627 10.0329 8.73589 10.0418C8.34444 10.0722 7.53295 10.1026 7.13078 10.242C6.56416 10.3993 6.25851 10.6585 6.05117 11.2376C5.98682 11.4878 5.97431 11.7148 6.06547 11.8525C6.26387 12.1527 6.79831 12.403 7.0414 12.5406C7.16652 12.6121 7.41319 12.5227 7.46145 12.4888C7.73314 12.3047 7.97266 12.1599 8.29439 12.1134C8.36232 12.1027 8.81632 12.0223 9.04512 12.1903C9.21135 12.3118 9.35434 12.3851 9.54202 12.4709C9.88521 12.6264 10.6413 12.823 10.6556 12.8266C10.7575 12.8534 10.888 12.9053 10.888 12.9964C10.888 13.1251 9.6868 14.1296 9.62067 14.1547C9.31859 14.278 9.14342 14.4764 9.08801 14.7624C9.07014 14.8553 9.02903 14.9519 8.97719 15.0287C8.78236 15.3111 7.91903 16.5373 7.69024 16.8734C7.58121 17.0306 7.4686 17.1093 7.31309 17.1343C7.08967 17.1701 6.92165 17.1754 6.82691 17.3345C6.76793 17.4364 6.80546 17.6348 6.84479 17.7635C6.88947 17.9101 6.76793 18.0924 6.75899 18.1138C6.65174 18.323 6.60706 18.5232 6.62315 18.7251C6.62851 18.8074 6.63387 18.9986 6.76971 19.004C6.90556 19.0111 6.94131 18.9235 6.9574 18.8914C6.97706 18.852 7.05213 18.6894 7.07358 18.6501C7.16116 18.4874 7.49541 18.1371 7.53295 18.096C7.65271 17.9637 9.44014 15.5024 9.44014 15.5024C9.53845 15.3737 9.64033 15.2414 9.80656 15.1771C10.0371 15.0877 10.1909 14.9036 10.2355 14.6605C10.2463 14.6069 10.9595 14.0599 11.2633 13.8294C11.3741 13.7453 12.0462 13.4754 12.0569 13.479C12.0569 13.4844 11.4421 14.4103 11.2508 14.9018C11.2204 14.9805 11.1704 15.2486 11.2258 15.3844C11.3116 15.5936 11.4957 15.6847 11.7048 15.6222C11.7692 15.6025 11.8264 15.5703 11.8818 15.5399C11.9068 15.5256 11.9318 15.5131 11.9568 15.5006C11.9819 15.4881 12.0051 15.4756 12.0301 15.4631C12.0873 15.4327 12.1427 15.4041 12.1981 15.3862C12.4037 15.3183 12.611 15.2539 12.8184 15.1896L13.2384 15.0591C13.5316 14.968 13.8247 14.8768 14.1178 14.7874C14.1822 14.7678 14.2448 14.7445 14.3252 14.7463C14.3699 14.7463 14.4181 14.7642 14.4342 14.8303C14.4342 14.8339 14.4682 15.0341 14.5915 15.1145C14.6541 15.1556 14.7881 15.1878 14.8882 15.1842C14.9758 15.1807 15.0866 15.2057 15.1438 15.2557L15.2171 15.3183C15.2707 15.363 15.3369 15.388 15.3816 15.4005C15.428 15.413 15.5138 15.413 15.5639 15.3612C15.6175 15.304 15.5978 15.211 15.5907 15.1824C15.58 15.1431 15.5585 15.1127 15.5424 15.0859L15.4977 15.0162C15.4548 14.9483 15.4137 14.8804 15.369 14.8124C15.2457 14.6248 15.1242 14.4389 14.9991 14.253C14.8686 14.0599 14.6666 13.9831 14.402 14.0242C14.3002 14.0403 12.0641 14.7338 12.048 14.7374C12.1678 14.5175 12.8845 13.5273 13.0847 13.4022C13.2331 13.3146 13.2956 13.2306 13.5655 13.1841C14.0928 13.0947 15.2368 12.8302 15.521 12.6246C16.0733 12.2242 16.118 11.3144 16.109 11.1321C16.0983 10.9498 16.1573 10.8247 16.3164 10.7407C16.395 10.6996 17.2459 10.2295 17.6623 9.53595C17.9126 9.1302 18.0413 8.69585 17.9912 8.21503Z" fill="white"/>
<path opacity="0.4" d="M12.0189 22.3438C9.86489 22.3271 7.707 21.6139 5.89467 20.1644C4.11552 18.7449 2.96407 16.8436 2.4544 14.7988" stroke="white" stroke-width="1.5" stroke-linecap="round" stroke-linejoin="round"/>
<path opacity="0.4" d="M3.53377 7.23613C4.63268 5.37836 6.32871 3.86692 8.48939 3.02203C10.6035 2.19535 12.8304 2.15133 14.8612 2.73162" stroke="white" stroke-width="1.5" stroke-linecap="round" stroke-linejoin="round"/>
<path opacity="0.4" d="M19.0033 19.6125C20.5746 18.1391 21.6764 16.1513 22.0247 13.8569C22.369 11.607 21.9254 9.42904 20.9128 7.58089" stroke="white" stroke-width="1.5" stroke-linecap="round" stroke-linejoin="round"/>
</g>
<defs>
<clipPath id="clip0_66_197">
<rect width="24" height="24" fill="white"/>
</clipPath>
</defs>
</svg>
