<svg width="24" height="24" viewBox="0 0 24 24" fill="none" xmlns="http://www.w3.org/2000/svg">
	<path d="M18.1787 10.7091C18.5729 13.4399 15.7462 14.0178 14.12 13.9672C14.0155 13.964 13.9171 14.0148 13.8554 14.0992C13.6872 14.3291 13.4183 14.6265 13.2107 14.6265C12.9775 14.6265 12.7677 15.0749 12.672 15.3539C12.662 15.3831 12.6908 15.4102 12.7202 15.4006C15.2958 14.5643 16.3064 14.2775 16.7417 14.3581C17.0932 14.4232 17.7506 15.5999 18.0354 16.1801C17.3275 16.2207 17.0916 15.5863 16.9289 15.4724C16.7987 15.3813 16.7499 15.7978 16.7417 16.0174C16.5872 15.9361 16.3919 15.8222 16.3756 15.4724C16.3594 15.1227 16.1804 15.2122 16.042 15.2284C15.9037 15.2447 13.7802 15.9279 13.4629 16.0174C13.1456 16.1069 12.7795 16.2289 12.4785 16.4404C11.974 16.6844 11.6486 16.5136 11.5591 16.0987C11.4875 15.7669 11.9523 14.7458 12.1937 14.2768C11.8954 14.3879 11.276 14.6135 11.1848 14.6265C11.0965 14.6391 9.97555 15.5045 9.37611 15.9747C9.34114 16.0021 9.31863 16.0423 9.31059 16.086C9.21469 16.6071 8.90859 16.7529 8.37791 17.026C7.95087 17.2457 6.45943 19.5377 5.69252 20.7749C5.63949 20.8605 5.56166 20.9262 5.47809 20.9823C4.99096 21.3093 4.49484 22.1416 4.29363 22.5489C4.00724 21.7225 4.38041 21.0116 4.6028 20.7594C4.50516 20.6748 4.28007 20.7242 4.17972 20.7594C4.45635 19.8078 5.42454 19.8078 5.39199 19.8078C5.57098 19.6532 7.67008 16.6518 7.71889 16.5136C7.76732 16.3764 7.68765 15.735 8.74264 15.3833C8.7594 15.3777 8.77601 15.3701 8.79087 15.3605C9.61279 14.8323 10.2294 13.9807 10.4363 13.6179C9.33898 13.5425 8.08237 12.9307 7.42534 12.5377C7.2837 12.453 7.13349 12.3793 6.9695 12.3607C6.06989 12.2589 5.16915 12.8344 4.8062 13.1624C4.65649 12.9542 4.82518 12.3491 4.92824 12.0725C4.56374 12.0204 4.02785 12.5497 3.80547 12.8208C3.56464 12.4434 3.77563 11.7688 3.91123 11.4787C3.42958 11.4917 3.10306 11.7119 3 11.8204C3.39867 8.85151 6.44808 9.71493 6.48222 9.75436C6.3195 9.58518 6.33306 9.36394 6.36018 9.27447C8.20705 9.32327 9.06947 9.01418 9.61459 8.69696C13.9104 6.29749 15.7614 7.76971 16.4448 8.1398C17.1282 8.50989 18.3689 8.66036 19.2273 8.31874C20.2524 7.85511 20.0981 6.66006 19.8904 6.20395C19.6626 5.70372 18.3771 5.01233 17.9215 4.13796C17.4658 3.26359 17.8629 2.20029 18.3907 2.05209C18.8936 1.91088 19.2527 2.07516 19.5283 2.32411C19.7121 2.49008 20.228 2.60879 20.4436 2.68606C20.6592 2.76334 21.0172 2.86501 20.9969 2.92601C20.9765 2.98702 20.6314 2.97887 20.5779 2.97887C20.468 2.97887 20.3379 2.99514 20.468 3.05615C20.6207 3.11805 20.8511 3.20802 20.9614 3.26725C20.9758 3.27495 20.9728 3.295 20.9571 3.29923C20.2084 3.50073 19.5399 3.08496 19.0442 3.56451C18.5398 4.05254 19.6138 4.42669 20.167 5.01233C20.7203 5.59796 21.2898 6.29747 20.8342 7.8917C20.4814 9.1259 19.0031 10.1753 18.2395 10.5857C18.1956 10.6093 18.1715 10.6598 18.1787 10.7091Z" fill="white" />
</svg>
