<svg width="100" height="100" viewBox="0 0 100 100" fill="none" xmlns="http://www.w3.org/2000/svg">
<g clip-path="url(#clip0_736_617)">
<mask id="mask0_736_617" style="mask-type:luminance" maskUnits="userSpaceOnUse" x="2" y="5" width="96" height="90">
<path d="M2 5H98V94.9325H2V5Z" fill="white"/>
</mask>
<g mask="url(#mask0_736_617)">
<path d="M97.4023 54.2526C93.5548 58.0851 88.2298 57.1626 84.3898 53.3151L53.3398 22.1151L67.8898 7.51257C68.8643 6.53422 70.0622 5.80761 71.3801 5.39542C72.698 4.98323 74.0964 4.89784 75.4546 5.14661C76.8129 5.39537 78.0903 5.97084 79.1765 6.82336C80.2628 7.67588 81.1254 8.77986 81.6898 10.0401L97.8748 52.2051C98.0054 52.5444 98.0345 52.9143 97.9586 53.2698C97.8827 53.6254 97.7051 53.9512 97.4473 54.2076L87.2248 64.3851L97.4098 54.2526H97.4023Z" fill="#472459"/>
<path d="M84.3886 53.3149L43.7686 12.5149C42.8566 11.5979 41.7729 10.8694 40.5794 10.3713C39.3859 9.87306 38.1059 9.61485 36.8126 9.61136C35.5193 9.60788 34.2379 9.8592 33.0418 10.351C31.8456 10.8427 30.758 11.5653 29.8411 12.4774L4.90358 37.3024C3.98654 38.2144 3.25812 39.2981 2.75992 40.4916C2.26173 41.6851 2.00352 42.9651 2.00004 44.2584C1.99655 45.5517 2.24787 46.833 2.73963 48.0292C3.23139 49.2254 3.95396 50.313 4.86608 51.2299L45.4861 92.0299C46.3986 92.9465 47.4826 93.6743 48.6764 94.1718C49.8702 94.6694 51.1503 94.9269 52.4436 94.9297C53.7369 94.9325 55.0181 94.6805 56.214 94.1881C57.41 93.6957 58.4972 92.9725 59.4136 92.0599L67.4386 84.0799L69.7786 81.7399L62.2786 74.2174C59.5304 75.9935 56.2557 76.7719 53.0023 76.4223C49.749 76.0728 46.7143 74.6167 44.4061 72.2974L39.3061 67.1599C39.1324 66.9883 38.9945 66.7839 38.9004 66.5586C38.8062 66.3333 38.7578 66.0916 38.7578 65.8474C38.7578 65.6032 38.8062 65.3615 38.9004 65.1362C38.9945 64.9109 39.1324 64.7065 39.3061 64.5349L41.8186 62.0449L35.5186 55.6999C35.0295 55.2271 34.7328 54.59 34.6857 53.9114C34.6386 53.2327 34.8445 52.5607 35.2636 52.0249C35.5023 51.7368 35.7988 51.5019 36.1339 51.3354C36.469 51.1689 36.8352 51.0744 37.2091 51.0582C37.5829 51.0419 37.956 51.1042 38.3042 51.241C38.6525 51.3778 38.9683 51.5861 39.2311 51.8524L45.6136 58.2724L50.6236 53.2999L44.3161 46.9549C43.8281 46.4812 43.5327 45.8435 43.487 45.1649C43.4413 44.4863 43.6485 43.8148 44.0686 43.2799C44.3075 42.9911 44.6042 42.7555 44.9396 42.5882C45.275 42.421 45.6418 42.3258 46.0162 42.3089C46.3906 42.2919 46.7645 42.3535 47.1136 42.4898C47.4628 42.626 47.7796 42.8339 48.0436 43.0999L54.4186 49.5274L56.9386 47.0224C57.1112 46.8501 57.3161 46.7136 57.5416 46.6207C57.7671 46.5278 58.0088 46.4803 58.2526 46.481C58.4965 46.4817 58.7379 46.5305 58.9629 46.6247C59.1878 46.7189 59.392 46.8566 59.5636 47.0299L64.6636 52.1599C66.9722 54.4826 68.4117 57.5286 68.7408 60.7869C69.0699 64.0451 68.2685 67.3175 66.4711 70.0549L73.9711 77.5774L78.2386 73.3249L84.3586 67.2349L97.4086 54.2524C93.5461 58.0849 88.2211 57.1624 84.3886 53.3149Z" fill="url(#paint0_linear_736_617)"/>
</g>
</g>
<defs>
<linearGradient id="paint0_linear_736_617" x1="49.7011" y1="9.61241" x2="49.7011" y2="94.9324" gradientUnits="userSpaceOnUse">
<stop stop-color="#FFCA4A"/>
<stop offset="1" stop-color="#F7931A"/>
</linearGradient>
<clipPath id="clip0_736_617">
<rect width="96" height="90" fill="white" transform="translate(2 5)"/>
</clipPath>
</defs>
</svg>
