<svg width="24" height="24" viewBox="0 0 24 24" fill="none" xmlns="http://www.w3.org/2000/svg">
<path d="M9.75 11.9989V10.7989C9.75 9.25891 10.84 8.62895 12.17 9.39895L13.21 9.99892L14.25 10.5989C15.58 11.3689 15.58 12.6289 14.25 13.3989L13.21 13.9989L12.17 14.5989C10.84 15.3689 9.75 14.7389 9.75 13.1989V11.9989Z" stroke="#292D32" stroke-width="1.5" stroke-miterlimit="10" stroke-linecap="round" stroke-linejoin="round"/>
<path opacity="0.4" fill-rule="evenodd" clip-rule="evenodd" d="M10.7952 20.9305L10.7952 20.9305C11.5316 21.3556 12.4464 21.3577 13.1968 20.9296L13.1981 20.9288L19.1302 17.5034L19.1325 17.502C19.8755 17.0644 20.3301 16.279 20.3301 15.42L20.3301 8.77375C20.8726 8.58268 21.3614 8.27799 21.768 7.88822C21.8089 8.11432 21.8301 8.34568 21.8301 8.58L21.8301 15.42C21.8301 16.82 21.0858 18.094 19.8902 18.7966L19.8902 18.7967L19.8852 18.7995L13.9452 22.2295L13.9452 22.2295L13.9423 22.2312C12.7329 22.9223 11.2484 22.9242 10.0452 22.2295L10.0452 22.2295L4.10512 18.7995L4.1051 18.7995L4.10018 18.7966C2.90344 18.0934 2.16016 16.8088 2.16016 15.42L2.16016 8.58C2.16016 7.18358 2.90179 5.89521 4.10517 5.20047L10.0452 1.77051L10.0481 1.76882C11.2575 1.07774 12.742 1.07583 13.9452 1.77047L13.9452 1.77051L15.684 2.77455C15.648 2.82879 15.6133 2.88395 15.58 2.94C15.3511 3.31111 15.1835 3.72431 15.0889 4.16302L13.1952 3.06953L13.1952 3.0695C12.4588 2.64443 11.544 2.64227 10.7937 3.07041L10.7923 3.07118L4.8552 6.49949L4.85514 6.49953C4.11853 6.92479 3.66016 7.71642 3.66016 8.58L3.66016 15.42C3.66016 16.2703 4.11594 17.065 4.85785 17.502L10.7952 20.9305Z" fill="black"/>
<path d="M22.8955 5.25047C22.8955 5.98078 22.691 6.67214 22.3307 7.25639C22.1262 7.60694 21.8633 7.91854 21.5614 8.17172C20.8798 8.78518 19.984 9.14547 19.0005 9.14547C17.5788 9.14547 16.3421 8.38594 15.6702 7.25639C15.3099 6.67214 15.1055 5.98078 15.1055 5.25047C15.1055 4.02354 15.6702 2.92321 16.5661 2.21237C17.238 1.67681 18.0851 1.35547 19.0005 1.35547C21.1525 1.35547 22.8955 3.09848 22.8955 5.25047Z" stroke="#292D32" stroke-width="1.46063" stroke-miterlimit="10" stroke-linecap="round" stroke-linejoin="round"/>
<g opacity="0.4">
<path d="M20.4447 5.23047H17.543" stroke="#292D32" stroke-width="1.46063" stroke-miterlimit="10" stroke-linecap="round" stroke-linejoin="round"/>
<path d="M18.9941 3.80859V6.7201" stroke="#292D32" stroke-width="1.46063" stroke-miterlimit="10" stroke-linecap="round" stroke-linejoin="round"/>
</g>
</svg>
