<svg width="214" height="214" viewBox="0 0 214 214" fill="none" xmlns="http://www.w3.org/2000/svg">
<path d="M177.31 154H36.69C23.34 154 18 157.087 18 164.756V184.244C18 191.913 23.34 195 36.69 195H177.31C190.66 195 196 191.913 196 184.244V164.756C196 157.087 190.66 154 177.31 154Z" stroke="black" stroke-width="13.375" stroke-linecap="round" stroke-linejoin="round"/>
<path d="M150.46 18H33.54C22.44 18 18 21.0871 18 28.7565V48.2435C18 55.9129 22.44 59 33.54 59H150.46C161.56 59 166 55.9129 166 48.2435V28.7565C166 21.0871 161.56 18 150.46 18Z" stroke="black" stroke-width="13.375" stroke-linecap="round" stroke-linejoin="round"/>
<path opacity="0.4" d="M100.169 86H33.8308C22.5231 86 18 89.0871 18 96.7565V116.244C18 123.913 22.5231 127 33.8308 127H100.169C111.477 127 116 123.913 116 116.244V96.7565C116 89.0871 111.477 86 100.169 86Z" stroke="black" stroke-width="13.375" stroke-linecap="round" stroke-linejoin="round"/>
</svg>
