<svg width="24" height="24" viewBox="0 0 24 24" fill="none" xmlns="http://www.w3.org/2000/svg">
<path d="M15.9101 12.3714H20.6001C20.5201 17.0414 19.6001 17.8114 16.7301 19.5114C16.4001 19.7114 16.2901 20.1314 16.4901 20.4714C16.6901 20.8014 17.1101 20.9114 17.4501 20.7114C20.8301 18.7114 22.0101 17.4914 22.0101 11.6714V6.28141C22.0101 4.57141 20.6201 3.19141 18.9201 3.19141H15.9201C14.1601 3.19141 12.8301 4.52141 12.8301 6.28141V9.28141C12.8201 11.0414 14.1501 12.3714 15.9101 12.3714Z" fill="#FF9C08"/>
<path d="M5.09 12.3714H9.78C9.7 17.0414 8.78 17.8114 5.91 19.5114C5.58 19.7114 5.47 20.1314 5.67 20.4714C5.87 20.8014 6.29 20.9114 6.63 20.7114C10.01 18.7114 11.19 17.4914 11.19 11.6714V6.28141C11.19 4.57141 9.8 3.19141 8.1 3.19141H5.1C3.33 3.19141 2 4.52141 2 6.28141V9.28141C2 11.0414 3.33 12.3714 5.09 12.3714Z" fill="#FF9C08"/>
</svg>
