<svg width="24" height="24" viewBox="0 0 24 24" fill="none" xmlns="http://www.w3.org/2000/svg">
<g opacity="0.4">
<path d="M16.9999 11.84H14.3199C13.6099 11.84 13.1299 11.3 13.1299 10.65V9.15997C13.1299 8.50997 13.6099 7.96997 14.3199 7.96997H15.8099C16.4599 7.96997 16.9999 8.50997 16.9999 9.15997V11.84Z" stroke="black" stroke-width="1.5" stroke-linecap="round" stroke-linejoin="round"/>
<path d="M16.9997 11.84C16.9997 14.63 16.4797 15.1 14.9097 16.03" stroke="black" stroke-width="1.5" stroke-linecap="round" stroke-linejoin="round"/>
<path d="M10.8602 11.84H8.18022C7.47022 11.84 6.99023 11.3 6.99023 10.65V9.15997C6.99023 8.50997 7.47022 7.96997 8.18022 7.96997H9.67023C10.3202 7.96997 10.8602 8.50997 10.8602 9.15997V11.84Z" stroke="black" stroke-width="1.5" stroke-linecap="round" stroke-linejoin="round"/>
<path d="M10.86 11.84C10.86 14.63 10.34 15.1 8.77002 16.03" stroke="black" stroke-width="1.5" stroke-linecap="round" stroke-linejoin="round"/>
</g>
<path d="M12 22C17.5228 22 22 17.5228 22 12C22 6.47715 17.5228 2 12 2C6.47715 2 2 6.47715 2 12C2 17.5228 6.47715 22 12 22Z" stroke="black" stroke-width="1.5" stroke-linecap="round" stroke-linejoin="round"/>
</svg>
