<svg width="24" height="24" viewBox="0 0 24 24" fill="none" xmlns="http://www.w3.org/2000/svg">
<path fill-rule="evenodd" clip-rule="evenodd" d="M7.18031 2H16.8203C18.9503 2 20.6803 3.74 20.6903 5.86V19.95C20.6903 21.76 19.4003 22.52 17.8203 21.64L12.9403 18.93C12.4303 18.64 11.5903 18.64 11.0703 18.93L6.19031 21.64C4.61031 22.51 3.32031 21.75 3.32031 19.95V5.86C3.32031 3.74 5.05031 2 7.18031 2ZM15.6202 9.03033C15.9131 8.73744 15.9131 8.26256 15.6202 7.96967C15.3273 7.67678 14.8524 7.67678 14.5595 7.96967L11.0898 11.4393L10.1202 10.4697C9.82728 10.1768 9.35241 10.1768 9.05951 10.4697C8.76662 10.7626 8.76662 11.2374 9.05951 11.5303L10.5595 13.0303C10.8524 13.3232 11.3273 13.3232 11.6202 13.0303L15.6202 9.03033Z" fill="#292D32"/>
</svg>
