<svg width="24" height="24" viewBox="0 0 24 24" fill="none" xmlns="http://www.w3.org/2000/svg">
<g opacity="0.4">
<path d="M17.75 6.25L6.25 17.75" stroke="#292D32" stroke-width="1.5" stroke-linecap="round" stroke-linejoin="round"/>
<path fill-rule="evenodd" clip-rule="evenodd" d="M5.71967 5.71967C6.01256 5.42678 6.48744 5.42678 6.78033 5.71967L14.2135 13.1528C13.8044 13.445 13.4365 13.7911 13.1202 14.1809L5.71967 6.78033C5.42678 6.48744 5.42678 6.01256 5.71967 5.71967Z" fill="#292D32"/>
</g>
<path fill-rule="evenodd" clip-rule="evenodd" d="M14.0304 3.58127C12.9117 2.47156 11.0859 2.47457 9.98011 3.58033L3.59198 9.96845L3.5911 9.96934C2.48132 11.088 2.48432 12.9139 3.5901 14.0197L9.97822 20.4078L9.97905 20.4086C10.7998 21.2229 12.0012 21.4381 13.0196 21.0584C13.3443 21.4837 13.7289 21.8609 14.1608 22.1773C12.4995 23.1163 10.3385 22.8794 8.92134 21.4722L8.91945 21.4703L2.52944 15.0803C0.835505 13.3864 0.838208 10.613 2.52755 8.91157L2.52943 8.90968L2.52944 8.90968L8.91945 2.51967C10.6134 0.825739 13.3868 0.828443 15.0882 2.51779L15.0901 2.51967L21.4801 8.90968L21.482 8.91157C22.9809 10.4212 23.152 12.7746 21.9884 14.4693C21.687 14.0443 21.3274 13.6634 20.9213 13.3383C21.488 12.2601 21.3221 10.8802 20.4184 9.96928L20.4176 9.96845L14.0313 3.58221L14.0304 3.58127Z" fill="#292D32"/>
<path d="M17.5045 20.8199C19.3353 20.8199 20.8195 19.3358 20.8195 17.5049C20.8195 15.6741 19.3353 14.1899 17.5045 14.1899C15.6736 14.1899 14.1895 15.6741 14.1895 17.5049C14.1895 19.3358 15.6736 20.8199 17.5045 20.8199Z" stroke="#292D32" stroke-width="1.5" stroke-linecap="round" stroke-linejoin="round"/>
<path opacity="0.4" d="M21.9013 21.8999L21.3613 21.3599" stroke="#292D32" stroke-width="1.5" stroke-linecap="round" stroke-linejoin="round"/>
</svg>
