<svg width="24" height="24" viewBox="0 0 24 24" fill="none" xmlns="http://www.w3.org/2000/svg">
<path fill-rule="evenodd" clip-rule="evenodd" d="M15.4971 8C15.5709 8.17823 15.6576 8.34964 15.7559 8.51269C15.9215 8.78855 16.1217 9.04228 16.3511 9.26731L7.28033 18.3381C6.98744 18.631 6.51256 18.631 6.21967 18.3381C5.92678 18.0452 5.92678 17.5703 6.21967 17.2774L15.4971 8Z" fill="#D2D2D4"/>
<path d="M6.25 6.25L17.75 17.75" stroke="#A2A3A6" stroke-width="1.5" stroke-linecap="round" stroke-linejoin="round"/>
<path fill-rule="evenodd" clip-rule="evenodd" d="M9.98011 3.58033C11.0859 2.47453 12.9118 2.47156 14.0305 3.58139L14.0313 3.58221L14.9066 4.4575C15.1466 4.0104 15.475 3.61693 15.8715 3.3011L15.0901 2.51967L15.0882 2.51779C13.3868 0.828443 10.6134 0.825739 8.91945 2.51967L2.52944 8.90968L2.52943 8.90968L2.52755 8.91158C0.838208 10.613 0.835504 13.3864 2.52944 15.0803L8.91945 21.4703L8.92134 21.4722C10.6228 23.1616 13.3962 23.1643 15.0901 21.4703L21.4801 15.0803C23.174 13.3864 23.1713 10.613 21.482 8.91157L21.4801 8.90968L21.1995 8.62907C21.0625 8.79901 20.9104 8.95689 20.7443 9.09961C20.5297 9.28936 20.2939 9.4547 20.0407 9.59163L20.4176 9.96845L20.4186 9.96952C21.5282 11.0882 21.5252 12.914 20.4194 14.0197L14.0294 20.4097C12.9237 21.5154 11.098 21.5185 9.97929 20.4089L9.97822 20.4078L3.5901 14.0197C2.48432 12.9139 2.48132 11.088 3.5911 9.96934L3.59198 9.96845L9.98011 3.58033Z" fill="#292D32"/>
<path d="M21.5 6.25C21.5 6.54611 21.4566 6.84223 21.3772 7.11667C21.2978 7.40556 21.1823 7.67279 21.0305 7.92557C20.8572 8.21445 20.6405 8.47444 20.3878 8.69111C19.8173 9.19664 19.0733 9.49996 18.25 9.49996C17.8817 9.49996 17.535 9.44223 17.21 9.3267C16.4734 9.08111 15.8595 8.57556 15.4694 7.92557C15.1733 7.43445 15 6.85666 15 6.25C15 5.22444 15.4694 4.30722 16.2205 3.71499C16.7767 3.26722 17.4844 3 18.25 3C20.0483 3 21.5 4.45167 21.5 6.25Z" stroke="#292D32" stroke-width="1.08333" stroke-miterlimit="10" stroke-linecap="round" stroke-linejoin="round"/>
<g opacity="0.4">
<path d="M18.2656 7.46376V5.03711" stroke="#292D32" stroke-width="1.08333" stroke-miterlimit="10" stroke-linecap="round" stroke-linejoin="round"/>
<path d="M19.4501 6.25049H17.0234" stroke="#292D32" stroke-width="1.08333" stroke-miterlimit="10" stroke-linecap="round" stroke-linejoin="round"/>
</g>
</svg>
