<svg width="20" height="20" viewBox="0 0 20 20" fill="none" xmlns="http://www.w3.org/2000/svg">
<path fill-rule="evenodd" clip-rule="evenodd" d="M20 10C20 15.5229 15.5234 20 10 20C4.47656 20 0 15.5229 0 10C0 4.47705 4.47656 0 10 0C15.5234 0 20 4.47705 20 10ZM8.44922 13.5686C8.49219 13.5762 8.53516 13.5801 8.58008 13.5801C8.7793 13.5801 8.96875 13.5 9.10938 13.3601L14.7793 7.69019C14.9824 7.4873 15.043 7.19165 14.9629 6.93286C14.9277 6.82153 14.8672 6.71729 14.7793 6.63013C14.4902 6.34009 14.0098 6.34009 13.7188 6.63013L8.58008 11.77L6.2793 9.47021C5.99023 9.18018 5.50977 9.18018 5.21875 9.47021C4.92969 9.76001 4.92969 10.24 5.21875 10.53L8.04883 13.3601C8.1582 13.4692 8.29883 13.542 8.44922 13.5686Z" fill="white"/>
</svg>
