<svg width="240" height="240" viewBox="0 0 240 240" fill="none" xmlns="http://www.w3.org/2000/svg">
	<g clip-path="url(#clip0_1106_8561)">
		<path d="M120 240C186.274 240 240 186.274 240 120C240 53.7258 186.274 0 120 0C53.7258 0 0 53.7258 0 120C0 186.274 53.7258 240 120 240Z" fill="black" />
		<path d="M81.2285 128.771L95.4655 168.177C95.4655 168.177 97.2455 171.864 99.1515 171.864C101.058 171.864 129.407 142.372 129.407 142.372L160.932 81.4824L81.7365 118.599L81.2285 128.771Z" fill="black" />
		<path d="M100.106 138.879L97.3731 167.925C97.3731 167.925 96.2291 176.825 105.127 167.925C114.025 159.025 122.542 152.162 122.542 152.162" fill="white" />
		<path d="M81.4861 130.179L52.2001 120.637C52.2001 120.637 48.7001 119.217 49.8271 115.997C50.0591 115.333 50.5271 114.768 51.9271 113.797C58.4161 109.274 172.033 68.4369 172.033 68.4369C172.033 68.4369 175.241 67.3559 177.133 68.0749C177.601 68.2198 178.022 68.4864 178.354 68.8475C178.685 69.2085 178.914 69.6511 179.018 70.1299C179.223 70.9756 179.308 71.8456 179.272 72.7149C179.263 73.4669 179.172 74.1639 179.103 75.2569C178.411 86.4219 157.703 169.75 157.703 169.75C157.703 169.75 156.464 174.626 152.025 174.793C150.934 174.828 149.847 174.643 148.829 174.25C147.812 173.856 146.883 173.261 146.1 172.501C137.389 165.008 107.281 144.774 100.628 140.324C100.478 140.222 100.352 140.088 100.257 139.933C100.163 139.778 100.103 139.604 100.082 139.424C99.9891 138.955 100.499 138.374 100.499 138.374C100.499 138.374 152.925 91.7739 154.32 86.8819C154.428 86.5029 154.02 86.3159 153.472 86.4819C149.99 87.7629 89.6281 125.882 82.9661 130.089C82.4866 130.234 81.9797 130.265 81.4861 130.179Z" fill="white" />
	</g>
	<defs>
		<clipPath id="clip0_1106_8561">
			<rect width="240" height="240" fill="white" />
		</clipPath>
	</defs>
</svg>
