<svg width="24" height="24" viewBox="0 0 24 24" fill="none" xmlns="http://www.w3.org/2000/svg">
<path opacity="0.4" d="M16.5197 5.65039L13.4197 3.25039C13.0197 2.85039 12.1197 2.65039 11.5197 2.65039H7.71973C6.51973 2.65039 5.21973 3.55039 4.91973 4.75039L2.51973 12.0504C2.01973 13.4504 2.91973 14.6504 4.41973 14.6504H8.41973C9.01973 14.6504 9.51973 15.1504 9.41973 15.8504L8.91973 19.0504C8.71973 19.9504 9.31973 20.9504 10.2197 21.2504C11.0197 21.5504 12.0197 21.1504 12.4197 20.5504L16.5197 14.4504" stroke="#292D32" stroke-width="1.5" stroke-miterlimit="10"/>
<path d="M21.6191 5.65049V15.4505C21.6191 16.8505 21.0191 17.3505 19.6191 17.3505H18.6191C17.2191 17.3505 16.6191 16.8505 16.6191 15.4505V5.65049C16.6191 4.25049 17.2191 3.75049 18.6191 3.75049H19.6191C21.0191 3.75049 21.6191 4.25049 21.6191 5.65049Z" stroke="#292D32" stroke-width="1.5" stroke-linecap="round" stroke-linejoin="round"/>
</svg>
