<svg width="24" height="24" viewBox="0 0 24 24" fill="none" xmlns="http://www.w3.org/2000/svg">
<path d="M12 2C6.47715 2 2 6.47715 2 12C2 17.5228 6.47715 22 12 22C17.5228 22 22 17.5228 22 12C22 6.47715 17.5228 2 12 2Z" stroke="#292D32" stroke-width="1.5" stroke-linecap="round" stroke-linejoin="round"/>
<path fill-rule="evenodd" clip-rule="evenodd" d="M2 12C2 6.47715 6.47715 2 12 2C17.5228 2 22 6.47715 22 12C22 17.5228 17.5228 22 12 22C6.47715 22 2 17.5228 2 12ZM12 16.25C11.5858 16.25 11.25 15.9142 11.25 15.5L11.25 10.3107L9.53033 12.0303C9.23744 12.3232 8.76256 12.3232 8.46967 12.0303C8.17678 11.7374 8.17678 11.2626 8.46967 10.9697L11.4697 7.96967C11.7626 7.67678 12.2374 7.67678 12.5303 7.96967L15.5303 10.9697C15.8232 11.2626 15.8232 11.7374 15.5303 12.0303C15.2374 12.3232 14.7626 12.3232 14.4697 12.0303L12.75 10.3107L12.75 15.5C12.75 15.9142 12.4142 16.25 12 16.25Z" fill="#292D32"/>
</svg>
