<svg width="21" height="20" viewBox="0 0 21 20" fill="none" xmlns="http://www.w3.org/2000/svg">
<path fill-rule="evenodd" clip-rule="evenodd" d="M20.1998 13.9199L13.8014 2.3999C12.94 0.850098 11.7506 0 10.44 0C9.13143 0 7.94002 0.850098 7.08065 2.3999L0.680259 13.9199C-0.130288 15.3899 -0.220132 16.8 0.430259 17.9099C1.08065 19.02 2.35995 19.6299 4.03963 19.6299H16.8404C18.5201 19.6299 19.8014 19.02 20.4498 17.9099C21.1002 16.8 21.0103 15.3799 20.1998 13.9199ZM10.44 12.75C10.0299 12.75 9.69002 12.4099 9.69002 12V7C9.69002 6.59009 10.0299 6.25 10.44 6.25C10.6959 6.25 10.9264 6.38306 11.0611 6.58276C11.1431 6.70264 11.19 6.84644 11.19 7V12C11.19 12.4099 10.8502 12.75 10.44 12.75ZM10.2408 15.98C10.3092 15.99 10.3795 16 10.44 16C10.5006 16 10.5709 15.99 10.6295 15.98C10.6998 15.97 10.7603 15.95 10.8209 15.9202C10.8795 15.9001 10.94 15.8701 11.0006 15.8301L11.151 15.71C11.3306 15.52 11.44 15.26 11.44 15C11.44 14.74 11.3306 14.48 11.151 14.29L11.0006 14.1702C10.94 14.1301 10.8795 14.1001 10.8209 14.0801C10.7603 14.05 10.6998 14.03 10.6295 14.02C10.5103 13.99 10.3697 13.99 10.2408 14.02C10.1803 14.03 10.1197 14.05 10.0592 14.0801C10.0006 14.1001 9.94002 14.1301 9.87948 14.1702L9.72909 14.29C9.5494 14.48 9.44002 14.74 9.44002 15C9.44002 15.26 9.5494 15.52 9.72909 15.71L9.87948 15.8301C9.91463 15.8538 9.94979 15.874 9.98495 15.8909L10.0592 15.9202C10.0963 15.9385 10.1334 15.9531 10.1705 15.9639L10.2408 15.98Z" fill="white"/>
</svg>
