<svg width="33" height="32" viewBox="0 0 33 32" fill="none" xmlns="http://www.w3.org/2000/svg">
<circle cx="2.39997" cy="2.39997" r="2.39997" transform="matrix(-1 0 0 1 9.552 6.63965)" fill="black"/>
<path d="M6.75223 8.67969L11.2322 13.1596" stroke="black" stroke-width="1.19999"/>
<circle cx="26.7518" cy="9.03962" r="2.39997" fill="black"/>
<path d="M27.1916 8.67969L22.7117 13.1596" stroke="black" stroke-width="1.19999"/>
<path fill-rule="evenodd" clip-rule="evenodd" d="M7.83303 23.3607C6.53953 22.7449 5.78672 21.3621 6.03889 19.9518C7.12122 13.8991 11.6318 9.35938 17.0317 9.35938C22.4447 9.35938 26.964 13.9211 28.0323 19.9959C28.2807 21.4087 27.5218 22.7909 26.2239 23.4017C23.4466 24.7086 20.3445 25.4392 17.0717 25.4392C13.7649 25.4392 10.6324 24.6934 7.83303 23.3607Z" fill="#FFDF6F"/>
<path d="M28.0323 19.9959L27.4414 20.0998L28.0323 19.9959ZM6.62952 20.0575C7.67534 14.2089 11.9983 9.95937 17.0317 9.95937V8.75938C11.2652 8.75938 6.56711 13.5893 5.44827 19.8462L6.62952 20.0575ZM17.0317 9.95937C22.0772 9.95937 26.4091 14.2297 27.4414 20.0998L28.6232 19.892C27.519 13.6126 22.8122 8.75938 17.0317 8.75938V9.95937ZM25.9684 22.8588C23.2694 24.1289 20.2543 24.8392 17.0717 24.8392V26.0392C20.4346 26.0392 23.6238 25.2883 26.4794 23.9446L25.9684 22.8588ZM17.0717 24.8392C13.856 24.8392 10.8114 24.1141 8.09093 22.819L7.57513 23.9024C10.4533 25.2726 13.6738 26.0392 17.0717 26.0392V24.8392ZM27.4414 20.0998C27.6406 21.2325 27.0341 22.3573 25.9684 22.8588L26.4794 23.9446C28.0096 23.2245 28.9209 21.5849 28.6232 19.892L27.4414 20.0998ZM5.44827 19.8462C5.1461 21.5361 6.05019 23.1765 7.57513 23.9024L8.09093 22.819C7.02886 22.3134 6.42735 21.1881 6.62952 20.0575L5.44827 19.8462Z" fill="black"/>
<path fill-rule="evenodd" clip-rule="evenodd" d="M10.1411 21.8562C9.09991 21.4322 8.48228 20.3243 8.84306 19.2596C9.95569 15.9759 13.2013 13.5996 17.0319 13.5996C20.8624 13.5996 24.108 15.9759 25.2206 19.2596C25.5814 20.3243 24.9638 21.4322 23.9226 21.8562C21.796 22.7223 19.4697 23.1995 17.0319 23.1995C14.594 23.1995 12.2677 22.7223 10.1411 21.8562Z" fill="black"/>
<ellipse cx="19.7917" cy="18.7191" rx="1.99998" ry="1.59998" fill="white"/>
<ellipse cx="14.0664" cy="18.7201" rx="1.99998" ry="1.59998" fill="white"/>
</svg>
