<svg width="150" height="70" viewBox="0 0 150 70" fill="none" xmlns="http://www.w3.org/2000/svg">
<path d="M19.5296 29.5671L23.5206 6.4022L21.3921 35.2815L14.1019 41.979L7.76953 66.5571L11.2018 46.2034L10.8293 34.7438L19.5296 29.5671Z" fill="#7A117E"/>
<path d="M18.7842 18.2941L23.467 6.40445L18.7842 22.5338L18.7842 28.6169L5.77363 36.8967L7.58287 65.6223L1.00848e-07 24.5308L18.7842 18.2941Z" fill="#7A117E"/>
<path d="M15.8315 48.1773L8.62109 64.7521L17.5609 46.7179L22.9886 41.5873L22.9886 35.8729L15.8315 41.8177L15.8315 48.1773Z" fill="#7A117E"/>
<path d="M31.6645 24.8967L24.3477 30.012L24.3477 38.0307L31.3186 31.2717L31.6645 24.8967Z" fill="#7A117E"/>
<path d="M27.6182 20.3215L23.707 6.51172L29.3742 19.3077L32.7533 17.3568L32.5138 22.8715L27.3787 26.8194L27.6182 20.3215Z" fill="#7A117E"/>
<path d="M30.2247 13.8711L23.8125 6.35938L30.7568 11.7512L34.8276 10.3533L34.4019 15.3918L30.2247 17.8036L30.2247 13.8711Z" fill="#7A117E"/>
<path d="M52.2713 31.5693H49.178L45.54 37.6197L41.902 31.5693H38.5558L43.828 40.3239V45.1875H46.9796V40.3628L52.2713 31.5693ZM56.3246 34.5653C54.6516 34.5653 52.959 35.0127 51.8112 35.8298L52.9006 37.9504C53.6594 37.3473 54.8072 36.9777 55.9161 36.9777C57.5503 36.9777 58.3285 37.7364 58.3285 39.0398H55.9161C52.7255 39.0398 51.4221 40.3239 51.4221 42.172C51.4221 43.9813 52.8812 45.3431 55.3325 45.3431C56.8694 45.3431 57.9588 44.8373 58.523 43.884V45.1875H61.3634V39.2149C61.3634 36.0438 59.5152 34.5653 56.3246 34.5653ZM56.0912 43.3004C55.0212 43.3004 54.3792 42.7946 54.3792 42.0359C54.3792 41.3355 54.8266 40.8102 56.2468 40.8102H58.3285V41.8802C57.9783 42.8335 57.1028 43.3004 56.0912 43.3004ZM71.9114 45.1875L75.5884 45.1875L70.8414 39.1566L75.1993 34.7209H71.5807L67.1451 38.9231V30.7522H64.1101V45.1875H67.1451V42.5222L68.6041 41.0826L71.9114 45.1875ZM78.3947 33.2618C79.523 33.2618 80.2818 32.5226 80.2818 31.5109C80.2818 30.5771 79.523 29.8767 78.3947 29.8767C77.2663 29.8767 76.5076 30.616 76.5076 31.5693C76.5076 32.5226 77.2663 33.2618 78.3947 33.2618ZM76.8772 45.1875H79.9121V34.7209H76.8772V45.1875ZM92.281 31.5693V36.9387H86.0944V31.5693H82.9428V45.1875H86.0944V39.604H92.281V45.1875L95.4326 45.1875V31.5693H92.281ZM103.421 45.3431C106.748 45.3431 109.16 43.1059 109.16 39.9542C109.16 36.8026 106.748 34.5653 103.421 34.5653C100.094 34.5653 97.6625 36.8026 97.6625 39.9542C97.6625 43.1059 100.094 45.3431 103.421 45.3431ZM103.421 42.8529C101.904 42.8529 100.736 41.7635 100.736 39.9542C100.736 38.1449 101.904 37.0555 103.421 37.0555C104.939 37.0555 106.086 38.1449 106.086 39.9542C106.086 41.7635 104.939 42.8529 103.421 42.8529ZM117.55 34.5653C116.13 34.5653 114.905 35.0517 114.087 35.9466V34.7209H111.189V45.1875H114.224V40.0126C114.224 38.0866 115.274 37.1917 116.733 37.1917C118.076 37.1917 118.854 37.9698 118.854 39.6624V45.1875H121.889V39.1955C121.889 36.0049 120.021 34.5653 117.55 34.5653ZM131.001 34.5653C129.581 34.5653 128.356 35.0517 127.539 35.9466V34.7209H124.64V45.1875H127.675V40.0126C127.675 38.0866 128.725 37.1917 130.184 37.1917C131.527 37.1917 132.305 37.9698 132.305 39.6624V45.1875H135.34V39.1955C135.34 36.0049 133.472 34.5653 131.001 34.5653ZM148.457 39.9931C148.457 36.6275 146.084 34.5653 143.01 34.5653C139.82 34.5653 137.427 36.822 137.427 39.9542C137.427 43.0669 139.781 45.3431 143.399 45.3431C145.286 45.3431 146.745 44.7595 147.718 43.6506L146.103 41.8997C145.384 42.5806 144.586 42.9113 143.477 42.9113C141.882 42.9113 140.773 42.1137 140.481 40.8102H148.399C148.418 40.5573 148.457 40.2266 148.457 39.9931ZM143.03 36.8609C144.391 36.8609 145.384 37.7169 145.598 39.0398H140.442C140.656 37.6975 141.648 36.8609 143.03 36.8609Z" fill="#7A117E"/>
</svg>
