<svg width="3000" height="2000" viewBox="0 0 3000 2000" fill="none" xmlns="http://www.w3.org/2000/svg">
<g clip-path="url(#clip0_1_9333)">
<mask id="mask0_1_9333" style="mask-type:luminance" maskUnits="userSpaceOnUse" x="-1" y="-1" width="3001" height="2001">
<path d="M2999.84 -0.379883H-0.15625V1999.62H2999.84V-0.379883Z" fill="white"/>
</mask>
<g mask="url(#mask0_1_9333)">
<path d="M-238.602 0.829498L-239.352 0.179504C-177.802 -70.3405 -96.3516 -124.11 2.82843 -159.64C91.3084 -191.35 192.438 -207.3 295.278 -205.77C450.118 -203.47 604.278 -167.94 753.408 -133.58C782.848 -126.8 813.278 -119.78 843.208 -113.15C1021.21 -73.6105 1211.21 -42.7005 1394.5 -83.8505C1495.42 -106.27 1592.17 -150.62 1685.74 -193.5C1802.18 -246.87 1922.58 -302.05 2050.74 -314.38C2200.59 -328.92 2348.58 -282.25 2473.58 -234.69C2519.65 -217.16 2566.17 -197.37 2611.16 -178.23C2636.31 -167.53 2662.31 -156.47 2687.93 -145.93C2751.56 -119.76 2827.53 -90.9305 2908.63 -75.8205C3070.86 -45.5705 3220.35 -76.8205 3318.77 -161.44L3319.42 -160.68C3267.49 -116.01 3202.42 -86.3105 3126.13 -72.4105C3058.41 -60.0705 2983.13 -60.9105 2908.45 -74.8405C2827.26 -90.0105 2751.22 -118.84 2687.55 -145C2661.93 -155.54 2635.92 -166.61 2610.77 -177.31C2565.77 -196.45 2519.28 -216.23 2473.22 -233.76C2348.33 -281.28 2200.47 -327.9 2050.84 -313.38C1922.89 -301.08 1802.57 -245.93 1686.21 -192.59C1592.59 -149.69 1495.79 -105.32 1394.77 -82.8805C1211.31 -41.6805 1021.18 -72.6105 843.038 -112.171C813.108 -118.811 782.668 -125.82 753.238 -132.6C604.178 -166.951 450.038 -202.47 295.318 -204.77C72.9185 -208.08 -121.662 -133.141 -238.602 0.829498Z" fill="#6D6E71"/>
<path d="M-216.812 48.5303L-217.562 47.8603C-152.562 -24.6397 -67.3325 -79.4297 35.7175 -114.99C128.397 -146.99 233.378 -161.91 339.318 -158.17C491.537 -152.81 642.927 -116.01 789.317 -80.4097C816.947 -73.6997 845.517 -66.7497 873.607 -60.1297C1046.48 -19.3297 1231.38 13.1903 1412.21 -24.7697C1516.79 -46.7697 1616.9 -92.5497 1713.71 -136.87C1825.57 -188.07 1941.24 -241.02 2063.37 -256.6C2129.96 -265.19 2199.46 -262.86 2275.85 -249.44C2337.44 -238.63 2403.41 -220.7 2483.45 -193.01C2546.87 -171.07 2610.35 -143.66 2671.73 -117.14C2684.31 -111.713 2696.87 -106.3 2709.43 -100.9C2781.49 -70.0497 2859.37 -39.3997 2940.61 -24.1597C3100.66 5.75034 3247.79 -25.6197 3344.26 -110.22L3344.92 -109.47C3294.14 -64.9397 3230.26 -35.2397 3155.05 -21.2197C3088.22 -8.74966 3014.05 -9.42967 2940.43 -23.2197C2859.09 -38.4697 2781.15 -69.1497 2709.04 -100.02C2696.48 -105.4 2683.91 -110.813 2671.33 -116.26C2609.97 -142.77 2546.51 -170.18 2483.13 -192.11C2360.58 -234.49 2214.9 -275.19 2063.5 -255.65C1941.5 -240.09 1825.92 -187.17 1714.13 -136C1617.26 -91.6597 1517.13 -45.8197 1412.41 -23.8397C1330.41 -6.61966 1242.13 -2.68967 1142.55 -11.8397C1043.33 -20.9397 946.547 -41.9397 873.377 -59.2197C845.277 -65.8397 816.707 -72.7797 789.077 -79.4997C642.737 -115 491.408 -151.82 339.278 -157.17C110.318 -165.24 -92.3625 -90.2597 -216.812 48.5303Z" fill="#6D6E71"/>
<path d="M-194.994 96.6899L-195.734 96.0099C-160.004 57.3919 -119.154 23.8472 -74.3244 -3.69005C-30.9444 -30.51 17.1557 -52.8 68.6757 -69.94C165.606 -102.22 274.446 -116.11 383.436 -110.11C532.676 -101.88 680.906 -63.8 824.256 -26.9801C850.436 -20.2501 877.506 -13.3 904.116 -6.65004C1072.2 35.49 1252.24 69.67 1430.02 34.78C1538.76 13.4299 1642.63 -34.2201 1743.08 -80.2201C1849.92 -129.22 1960.4 -179.84 2076.15 -198.35C2142.55 -209.1 2211.35 -209.41 2286.47 -199.29C2349.35 -190.83 2415.13 -175.44 2493.47 -150.86C2570.8 -126.6 2647.34 -92.6001 2721.35 -59.7301L2731.08 -55.41C2806.08 -22.11 2886.59 11.7599 2972.74 27.97C3130.61 57.5399 3275.37 25.97 3369.89 -58.52L3370.56 -57.78C3320.93 -13.39 3258.2 16.29 3184.11 30.45C3118.12 43 3045.01 42.53 2972.49 29C2886.24 12.78 2805.71 -21.1201 2730.61 -54.44L2720.89 -58.7601C2646.89 -91.6301 2570.39 -125.61 2493.11 -149.85C2380.57 -185.15 2231.49 -222.45 2076.23 -197.31C1960.61 -178.83 1850.23 -128.21 1743.41 -79.3101C1642.91 -33.2401 1538.99 14.3999 1430.13 35.7699C1349.63 51.5699 1263.32 54.3099 1166.27 44.1499C1090.55 36.22 1009.61 20.8599 903.796 -5.67006C877.176 -12.3201 850.106 -19.28 823.926 -26C680.626 -62.81 532.446 -100.88 383.296 -109.1C151.396 -121.89 -64.7944 -45.0001 -194.994 96.6899Z" fill="#6D6E71"/>
<path d="M-173.254 145.419L-173.984 144.739C-136.529 105.174 -93.8726 70.8802 -47.1844 42.7994C-1.89438 15.3994 48.1056 -7.20058 101.446 -24.4006C202.686 -57.0006 315.386 -69.8206 427.376 -61.4706C573.236 -50.5806 717.916 -11.2606 857.826 26.7594C882.946 33.5794 908.906 40.6394 934.446 47.4094C1097.8 90.8794 1273.04 126.719 1447.65 94.8994C1560.88 74.2594 1668.78 24.5994 1773.14 -23.4306C1874.64 -70.1406 1979.6 -118.431 2088.75 -139.521C2211.41 -163.521 2343.15 -153.521 2503.33 -108.131C2585.08 -84.9606 2661.33 -51.1306 2752.56 -9.34059C2835.56 28.6594 2917.33 64.1894 3004.71 80.6594C3158.14 109.469 3304.18 76.9694 3395.37 -6.27058L3396.04 -5.53059C3347.57 38.7194 3285.99 68.3894 3213.04 82.6694C3148.04 95.3994 3075.91 95.0494 3004.55 81.6694C2917.05 65.1594 2835.24 29.6694 2752.17 -8.42061C2661 -50.2106 2584.74 -84.0006 2503.06 -107.171C2343.06 -152.531 2211.44 -162.501 2088.94 -138.541C1979.94 -117.541 1875.01 -69.2106 1773.55 -22.5406C1669.15 25.4594 1561.18 75.1994 1447.83 95.8594C1368.83 110.259 1284.5 111.859 1189.96 100.619C1115.96 91.8694 1037.12 75.7494 934.186 48.3594C908.646 41.5894 882.686 34.5294 857.566 27.6994C717.696 -10.3006 573.066 -49.6106 427.296 -60.4906C189.306 -78.2306 -35.2044 -1.2706 -173.254 145.419Z" fill="#6D6E71"/>
<path d="M-151.46 194.84L-152.18 194.15C-113.002 153.649 -68.5415 118.616 -19.9997 89.9997C27.2003 61.9997 79.1103 38.9997 134.31 21.7997C239.9 -11.2003 356.46 -22.8903 471.4 -12.0903C613.47 1.24974 754.2 41.7497 890.29 80.9097C914.73 87.9097 940 95.2198 964.85 102.2C1123.56 147.02 1294.04 184.52 1465.35 155.75C1583.45 135.93 1695.69 83.9097 1804.23 33.6097C1900.06 -10.8003 1999.15 -56.7203 2101.42 -79.9603C2167.91 -95.2503 2235.32 -100.96 2307.51 -97.3602C2372.32 -94.1302 2439.63 -83.4403 2513.26 -64.6703C2602.26 -41.9903 2687.41 -3.42027 2774.11 37.4597C2865.19 80.3897 2947.82 117.29 3036.74 134.11C3188.05 162.59 3331.66 129.93 3420.91 46.7497L3421.59 47.4798C3374.28 91.5797 3313.85 121.25 3241.99 135.66C3177.86 148.51 3106.82 148.32 3036.56 135.09C2947.56 118.25 2864.83 81.3197 2773.69 38.3597C2687 -2.54028 2601.9 -41.0903 2513 -63.7503C2358.39 -103.17 2227.68 -108 2101.66 -79.0003C1999.48 -55.7903 1900.44 -9.89026 1804.66 34.4997C1696.06 84.8297 1583.75 136.87 1465.53 156.72C1388.09 169.72 1305.7 170.1 1213.67 157.88C1141.52 148.29 1064.67 131.41 964.59 103.15C939.74 96.1497 914.47 88.8797 890.03 81.8497C753.97 42.6997 613.29 2.21975 471.31 -11.1503C227.43 -34.0003 -5.3797 42.9998 -151.46 194.84Z" fill="#6D6E71"/>
<path d="M-129.681 244.999L-130.391 244.299C-89.4712 202.846 -43.1988 167.043 7.1994 137.839C57.6553 108.609 111.352 85.3717 167.199 68.5995C277.199 35.2295 397.619 24.5995 515.449 37.9695C653.339 53.5595 789.729 95.1595 921.629 135.379C945.779 142.739 970.739 150.379 995.279 157.679C1149.43 203.839 1315.21 243.009 1483.09 217.289C1606.45 198.399 1723.34 143.669 1836.38 90.7495C1926.16 48.7495 2019 5.24947 2114.13 -19.7105C2242.4 -53.7605 2376.21 -54.0305 2523.22 -20.5205C2618.22 1.12947 2709.91 43.4795 2795.69 84.9395C2877.81 124.649 2970.89 169.659 3068.81 188.229C3218 216.379 3359.19 183.559 3446.48 100.429L3447.17 101.149C3401.01 145.149 3341.73 174.769 3270.99 189.309C3207.76 202.309 3137.78 202.309 3068.62 189.209C2970.62 170.619 2877.43 125.579 2795.26 85.8395C2709.52 44.3695 2617.88 2.07947 2522.99 -19.5505C2376.15 -53.0205 2242.49 -52.7505 2114.39 -18.7505C2019.34 6.18946 1926.55 49.6395 1836.81 91.6495C1723.7 144.649 1606.74 199.359 1483.24 218.279C1407.36 229.909 1326.94 229.109 1237.39 215.849C1167.11 205.429 1092.39 187.789 994.999 158.639C970.449 151.309 945.489 143.699 921.339 136.339C789.479 96.1195 653.129 54.5395 515.339 38.9594C265.789 10.7495 24.6694 87.7794 -129.681 244.999Z" fill="#6D6E71"/>
<path d="M-107.902 296.07L-108.602 295.37C-65.9449 252.94 -17.8608 216.342 34.3984 186.53C86.6923 156.698 142.297 133.087 200.078 116.18C314.528 82.3895 438.798 72.9995 559.468 88.9095C692.848 106.54 824.558 149.149 951.938 190.349C976.108 198.179 1001.11 206.259 1025.69 214.039C1175.35 261.559 1336.49 302.409 1500.79 279.719C1629.86 261.889 1751.74 204.03 1869.62 148.07C1952.95 108.51 2039.12 67.5995 2126.8 41.4095C2259.09 1.49952 2392 -4.00049 2533.14 24.4995C2633.44 44.7795 2728.49 89.3695 2817.24 133.31L2818.01 133.69C2908.01 178.22 3001.01 224.26 3100.84 243.24C3247.94 271.06 3386.7 238.08 3472.02 155L3472.72 155.71C3427.72 199.53 3369.59 229.18 3299.96 243.84C3237.64 256.96 3168.72 257.089 3100.65 244.219C3000.65 225.219 2907.59 179.14 2817.57 134.59L2816.8 134.21C2728.1 90.2995 2633.13 45.7395 2532.95 25.4895C2391.95 -3.0105 2259.21 2.48951 2127.09 42.3695C2039.48 68.5395 1953.34 109.429 1870.09 148.969C1752.09 204.969 1630.19 262.86 1500.97 280.71C1469.09 285.057 1436.96 287.212 1404.79 287.159C1273.79 287.159 1145.88 253.24 1025.43 214.99C1000.85 207.219 975.849 199.13 951.668 191.31C824.338 150.11 692.668 107.52 559.378 89.8995C304.398 56.1995 54.9984 133.27 -107.902 296.07Z" fill="#6D6E71"/>
<path d="M1436.31 348.459C1304.42 348.459 1176.23 312.289 1055.79 271.749C1030.9 263.399 1005.58 254.749 981.097 246.289C858.567 204.209 731.867 160.689 603.347 141.289C347.137 102.469 82.9975 181.509 -86.1125 347.509L-86.8125 346.799C-1.3325 262.869 109.237 199.679 232.997 164.059C351.997 129.809 480.107 121.569 603.537 140.249C732.147 159.709 858.888 203.249 981.468 245.349C1005.94 253.759 1031.26 262.449 1056.14 270.799C1201.39 319.699 1357.94 362.229 1518.55 342.539C1653.75 325.999 1781 264.449 1904.06 204.999C1980.52 167.999 2059.58 129.829 2139.49 102.999C2275.85 56.7794 2407.86 45.9994 2543.08 69.9994C2648.18 88.6494 2746.8 135.629 2838.8 182.139L2844.59 185.069C2936.19 231.379 3030.9 279.279 3132.88 298.699C3277.88 326.199 3414.22 293.059 3497.57 210.029L3498.27 210.739C3454.43 254.409 3397.46 284.049 3328.93 298.839C3267.53 312.099 3199.67 312.389 3132.7 299.679C3030.58 280.229 2935.8 232.309 2844.13 185.959L2838.35 183.029C2746.42 136.549 2647.88 89.6094 2542.91 71.0294C2407.91 47.0294 2276 57.8494 2139.81 104.029C2059.96 130.869 1980.92 169.029 1904.49 206.029C1781.36 265.389 1654 326.929 1518.63 343.529C1491.31 346.847 1463.82 348.493 1436.31 348.459Z" fill="#6D6E71"/>
<path d="M1467.46 406C1334.88 406 1206.46 367.48 1086.18 324.54C1060.79 315.54 1034.96 306.08 1009.99 296.96C892.464 254.06 770.934 209.7 647.364 188.62C386.354 144.12 113.654 223.2 -64.3256 395L-65.0156 394.28C24.2044 308.15 138.624 243.69 265.894 207.89C390.061 173.096 520.384 166.185 647.534 187.65C771.194 208.75 892.764 253.12 1010.33 296.04C1035.33 305.16 1061.13 314.58 1086.52 323.62C1227.44 373.91 1379.46 418.15 1536.23 401.42C1678.18 386.28 1811.17 320.52 1939.78 256.94C2008.91 222.76 2080.38 187.43 2152.17 160.53C2292.57 107.6 2423.68 91.5296 2553.02 111.42C2662.57 128.27 2764.92 177.71 2860.35 226.9L2870.55 232.16C2963.98 280.36 3060.55 330.16 3164.93 350.1C3307.85 377.29 3441.76 343.97 3523.12 260.99L3523.83 261.69C3481.15 305.22 3425.33 334.86 3357.91 349.78C3297.43 363.16 3230.63 363.62 3164.74 351.09C3060.26 331.15 2963.59 281.28 2870.1 233.09L2859.9 227.83C2764.53 178.68 2662.27 129.28 2552.9 112.45C2423.74 92.5896 2292.78 108.64 2152.55 161.51C2080.81 188.38 2009.36 223.71 1940.26 257.87C1811.57 321.5 1678.49 387.29 1536.36 402.46C1513.48 404.86 1490.48 406.042 1467.46 406Z" fill="#6D6E71"/>
<path d="M1498.15 464.3C1365.08 464.3 1236.65 423.3 1116.58 377.89C1090.58 368.06 1064.11 357.79 1038.58 347.89C926.176 304.24 809.946 259.11 691.416 236.58C425.826 186.06 144.606 265.17 -42.5444 443L-43.2344 442.27C144.146 264.27 425.706 185.01 691.556 235.56C810.166 258.11 926.446 303.26 1038.89 346.92C1064.47 356.85 1090.89 367.12 1116.89 376.92C1253.56 428.64 1401.11 474.59 1553.89 460.79C1703.12 447.31 1842.27 376.59 1976.84 308.2C2038.13 277.05 2101.52 244.83 2164.84 218.61C2234.43 189.61 2298.45 170.15 2360.55 159.03C2430.28 146.54 2496.48 144.69 2562.94 153.4C2676.67 168.29 2782.87 220.26 2881.89 272.22L2896.04 279.65C2991.45 329.78 3090.1 381.65 3196.95 402.05C3305.7 422.79 3455.2 410.16 3548.65 312.51L3549.37 313.2C3508.44 355.97 3452.25 386.42 3386.87 401.26C3327.3 414.78 3261.56 415.39 3196.76 403.03C3089.76 382.58 2991.05 330.7 2895.58 280.53L2881.43 273.1C2782.48 221.19 2676.43 169.26 2562.81 154.39C2437.69 138.01 2311.36 158.71 2165.22 219.53C2101.97 245.74 2038.6 277.95 1977.32 309.09C1842.67 377.52 1703.43 448.29 1554.01 461.78C1535.33 463.493 1516.71 464.333 1498.15 464.3Z" fill="#6D6E71"/>
<path d="M1527.06 523.17C1472.9 523.17 1416.51 515.98 1355.95 501.42C1279.19 482.97 1203.95 454.36 1146.95 431.51C1120.28 420.82 1093.17 409.61 1066.95 398.77C959.721 354.43 848.831 308.58 735.351 284.77C465.581 228.13 175.841 307.28 -20.7888 491.33L-21.4688 490.6C75.4212 399.91 197.581 332.8 331.801 296.54C464.681 260.64 604.301 256.23 735.561 283.79C849.131 307.64 960.061 353.51 1067.33 397.87C1093.55 408.71 1120.66 419.87 1147.33 430.6C1300.8 492.17 1431.69 531.03 1571.64 520.53C1728.72 509.22 1874.39 432.62 2015.26 358.53C2068.26 330.66 2123.08 301.84 2177.52 277.05C2248.31 244.74 2311.64 222.45 2371.15 208.9C2441.39 192.9 2507.38 188.6 2572.88 195.73C2690.58 208.55 2800.72 263.11 2903.45 317.89L2921.2 327.37C3018.69 379.49 3119.51 433.37 3228.99 454.37C3336.15 474.87 3483.11 461.99 3574.2 364.37L3574.93 365.05C3535.15 407.68 3480.14 438.12 3415.85 453.05C3357.2 466.7 3292.52 467.48 3228.85 455.29C3119.22 434.29 3018.34 380.36 2920.77 328.2L2903 318.76C2800.36 264.02 2690.32 209.51 2572.79 196.76C2451.68 183.53 2329.91 208.59 2178 278C2123.58 302.78 2068.78 331.59 2015.79 359.46C1874.79 433.58 1729.06 510.23 1571.79 521.55C1557.01 522.63 1542.1 523.17 1527.06 523.17Z" fill="#6D6E71"/>
<path d="M1557.52 582.359C1489.25 582.359 1417.09 570.359 1337.98 545.869C1256.28 520.609 1174.57 484.589 1095.55 449.749C993.462 404.749 887.902 358.209 779.402 333.239C505.692 270.239 207.402 349.41 1.03156 539.889L0.351562 539.15C101.182 446.15 227.232 377.609 364.862 341.069C502.492 304.529 645.922 301.479 779.622 332.259C888.212 357.259 993.822 403.809 1095.96 448.839C1253.59 518.329 1416.6 590.169 1589.38 580.469C1755.1 571.169 1907.88 487.729 2055.63 407.039C2139.14 361.439 2225.48 314.279 2312.48 281.659C2359.31 264.099 2402.66 251.999 2445.01 244.659C2492.53 236.419 2537.61 234.339 2582.83 238.299C2638.21 243.139 2695.94 257.829 2759.33 283.209C2813 304.689 2864.38 330.999 2925 363.789L2946.07 375.219C3045.74 429.379 3148.81 485.38 3261.07 506.9C3366.64 527.15 3511.07 514.039 3599.78 416.489L3600.52 417.159C3561.88 459.639 3508.06 490.069 3444.86 505.159C3387.13 518.949 3323.51 519.889 3260.86 507.869C3148.49 486.319 3045.35 430.279 2945.61 376.089L2924.54 364.659C2818.11 307.039 2704.05 249.89 2582.74 239.28C2394.93 222.86 2222.68 316.929 2056.1 407.909C1908.26 488.649 1755.37 572.139 1589.42 581.46C1578.89 582.066 1568.25 582.366 1557.52 582.359Z" fill="#6D6E71"/>
<path d="M1514.51 626.5C1379.89 626.5 1251.51 579.39 1131.96 527.5C1105.21 515.89 1078.03 503.69 1051.74 491.89C946.231 444.52 837.131 395.55 724.381 370.44C458.451 311.22 163.221 392.89 -27.7687 578.5L-28.4688 577.78C66.2412 485.78 187.171 417.64 321.271 380.84C454.441 344.29 593.901 340.36 724.601 369.46C837.451 394.59 946.601 443.59 1052.15 490.98C1078.44 502.78 1105.62 514.98 1132.36 526.59C1263.42 583.45 1405.22 634.59 1554.07 624.08C1717.88 612.48 1867.87 528.31 2012.92 446.9C2021.38 442.16 2029.83 437.423 2038.28 432.69C2206.59 338.58 2359.88 261.81 2531.65 275.69C2655.75 285.41 2771.24 344.85 2878.9 404.91C2886.14 408.95 2893.38 413.003 2900.63 417.07C3001.23 473.4 3105.26 531.65 3219.31 553.37C3355.21 579.25 3488.67 540.5 3559.31 454.65L3560.08 455.29C3523.3 499.99 3470.08 532.48 3406.08 549.29C3347.27 564.72 3282.6 566.48 3219.08 554.39C3104.87 532.63 3000.77 474.39 2900.08 417.97C2892.83 413.91 2885.59 409.86 2878.35 405.82C2770.79 345.82 2655.41 286.42 2531.51 276.72C2360.02 262.86 2206.87 339.57 2038.71 433.59L2013.36 447.8C1868.2 529.26 1718.11 613.49 1554.08 625.1C1540.86 626.047 1527.67 626.513 1514.51 626.5Z" fill="#6D6E71"/>
<path d="M1471.37 670.69C1335.5 670.69 1206.53 622.64 1086.49 569.59C1060.14 557.94 1033.36 545.7 1007.49 533.87C898.721 484.19 786.251 432.81 669.391 407.65C407.201 351.21 122.251 433.43 -56.5691 617.13L-57.2891 616.43C121.771 432.5 407.081 350.16 669.571 406.67C786.571 431.86 899.061 483.26 1007.87 532.96C1033.77 544.79 1060.55 557.03 1086.87 568.68C1220.68 627.81 1365.62 680.74 1518.74 667.68C1680.48 653.9 1827.57 569.04 1969.81 486.98C1978.06 482.214 1986.32 477.457 1994.57 472.71C2068.57 430.16 2147.78 386.01 2230.1 354.91C2319.57 321.1 2401.46 307.42 2480.43 313.09C2607.69 322.21 2724.26 383.77 2832.74 446.04L2855.06 458.88C2956.61 517.41 3061.62 577.93 3177.53 599.88C3291.71 621.47 3441.53 596.75 3518.81 492.88L3519.61 493.48C3484.71 540.39 3432.06 574.94 3367.36 593.41C3308.36 610.25 3240.89 612.91 3177.36 600.89C3061.27 578.89 2956.19 518.38 2854.57 459.81C2847.12 455.524 2839.68 451.244 2832.25 446.97C2723.87 384.75 2607.42 323.25 2480.37 314.14C2309.78 301.92 2153.47 382.61 1995.07 473.63L1970.32 487.9C1827.98 570.02 1680.8 654.9 1518.83 668.74C1502.94 670.054 1487.12 670.704 1471.37 670.69Z" fill="#6D6E71"/>
<path d="M1429 715C1374.85 715 1318.42 707.25 1258 691.61C1194.09 675.06 1127.19 650.42 1041.06 611.69C1014.97 599.95 988.448 587.63 962.808 575.69C850.918 523.69 735.228 469.98 614.388 444.85C356.108 391.13 81.4475 473.91 -85.3325 655.74L-86.0625 655.06C-3.4825 565 107.247 497.59 234.117 460.22C358.438 423.6 489.997 417.94 614.547 443.85C735.547 469 851.247 522.77 963.188 574.76C988.828 586.67 1015.34 598.99 1041.43 610.76C1171.56 669.27 1325.83 726.97 1483.43 711.29C1642.97 695.43 1787.03 609.94 1926.35 527.29L1950.87 512.75C2106.05 421.06 2259.39 339.66 2429.23 350.51C2487.73 354.25 2548.36 369.6 2614.6 397.44C2675.25 422.93 2733.11 455.64 2786.6 487.2C2794.21 491.68 2801.82 496.18 2809.43 500.7C2912 561.38 3018 624.18 3135.82 646.3C3252.96 668.3 3404.32 641.18 3478.37 530.98L3479.2 531.53C3446.2 580.63 3394.2 617.25 3328.66 637.42C3268.66 655.9 3200.14 659.42 3135.66 647.29C3017.66 625.13 2911.58 562.29 2808.98 501.51C2801.37 497.003 2793.76 492.503 2786.16 488.01C2676.71 423.46 2559 359.75 2429.21 351.46C2259.67 340.62 2106.46 421.95 1951.42 513.57C1943.24 518.396 1935.07 523.24 1926.9 528.1C1787.49 610.83 1643.33 696.37 1483.56 712.26C1465.58 714.053 1447.39 714.966 1429 715Z" fill="#6D6E71"/>
<path d="M1386.84 759.26C1333.2 759.26 1277.25 751.6 1217.38 736.15C1132.14 714.15 1049.96 678.54 995.548 653.67C969.548 641.79 943.208 629.34 917.688 617.3C802.818 563.08 683.998 507 559.328 482C308.948 431.75 38.3281 517.07 -114.172 694.3L-114.922 693.65C-38.2619 604.53 67.3781 537.51 190.558 499.83C250.096 481.667 311.634 470.866 373.798 467.67C436.022 464.358 498.415 468.836 559.528 481C684.348 506 803.188 562.15 918.118 616.39C943.628 628.39 970.008 640.88 995.968 652.76C1128.89 713.52 1286.56 773.159 1448.16 754.819C1605.39 736.969 1746.33 650.91 1882.62 567.68C1890.83 562.673 1899.03 557.673 1907.22 552.68C1974.46 511.8 2053 465.47 2134.3 433C2221.15 398.27 2300.89 383.5 2378.09 387.84C2437.61 391.18 2499.21 406.74 2566.41 435.42C2628.22 461.79 2686.62 495.62 2740.52 528.25L2763.81 542.4C2867.32 605.34 2974.36 670.4 3094.07 692.76C3210.44 714.47 3367.67 685.04 3437.91 569.13L3438.77 569.65C3407.69 620.93 3356.22 659.6 3289.93 681.5C3229.02 701.61 3159.4 705.96 3093.93 693.74C2974.03 671.38 2866.93 606.24 2763.33 543.25C2755.56 538.53 2747.8 533.816 2740.04 529.11C2634.38 465.11 2510.56 396.28 2378.04 388.83C2209.57 379.38 2059.45 461.35 1907.75 553.56L1883.15 568.56C1746.76 651.85 1605.73 737.97 1448.28 755.84C1427.88 758.142 1407.37 759.284 1386.84 759.26Z" fill="#6D6E71"/>
<path d="M1345.32 803.58C1203.66 803.58 1067.43 750.17 950.084 695.68C924.134 683.62 897.774 670.99 872.284 658.77C754.534 602.33 632.784 543.97 504.284 519.12C258.004 471.46 -2.15564 557.35 -142.996 732.83L-143.766 732.2C-72.9956 644 27.5544 577.34 147.004 539.34C262.577 502.799 385.413 495.514 504.494 518.14C633.074 543.01 754.894 601.4 872.694 657.86C898.184 670.08 924.544 682.72 950.484 694.78C1086.28 757.78 1247.41 819.45 1412.84 798.36C1567.65 778.62 1705.37 692.03 1838.57 608.29C1846.89 603.057 1855.21 597.837 1863.51 592.63C1944.77 541.79 2013.76 501.82 2086.37 471.94C2171.91 436.74 2250.58 421.43 2326.88 425.13C2462.24 431.7 2587.54 502.99 2694.37 569.28C2702.27 574.18 2710.17 579.1 2718.08 584.04C2822.59 649.21 2930.67 716.59 3052.31 739.14C3175.62 762 3333.76 724 3397.45 607.2L3398.33 607.68C3369.18 661.13 3318.33 701.87 3251.2 725.49C3189.38 747.26 3118.68 752.49 3052.2 740.12C2930.37 717.54 2822.2 650.12 2717.62 584.89C2709.71 579.963 2701.81 575.043 2693.91 570.13C2587.19 503.9 2462.02 432.69 2326.91 426.13C2159.69 418.03 2006.59 504.35 1864.12 593.47C1855.82 598.677 1847.5 603.9 1839.18 609.14C1705.83 692.93 1568 779.58 1413 799.35C1390.56 802.192 1367.95 803.605 1345.32 803.58Z" fill="#6D6E71"/>
<path d="M1303.26 848C1250.43 848 1195.26 840.47 1136.26 825.31C1067.87 807.73 994.26 779.88 904.64 737.64C878.64 725.35 852.15 712.49 826.57 700.04C706 641.46 581.42 580.84 449.3 556.24C207.06 511.14 -42.5203 597.59 -171.76 771.36L-172.57 770.76C-107.68 683.53 -12.2303 617.15 103.48 578.76C215.041 542.16 333.988 534.064 449.48 555.21C581.73 579.83 706.41 640.48 826.98 699.13C852.55 711.57 878.98 724.44 905.04 736.72C1043.79 802.11 1208.43 865.72 1377.55 841.83C1529.85 820.3 1664.29 733.23 1794.31 649.03C1802.83 643.51 1811.34 638.004 1819.84 632.51C1959.26 542.7 2109.31 455.59 2275.71 462.39C2413.65 468.04 2540.34 541.69 2648.26 610.28C2656.26 615.367 2664.29 620.487 2672.35 625.64C2777.88 693.03 2887 762.72 3010.58 785.48C3137.22 808.8 3296.87 768.12 3356.99 645.24L3357.89 645.68C3343.97 674.13 3323.82 699.41 3298 720.84C3273.74 740.96 3245 757.32 3212.47 769.45C3149.76 792.87 3078 798.91 3010.4 786.45C2886.63 763.66 2777.4 693.92 2671.81 626.45C2663.77 621.31 2655.74 616.19 2647.72 611.09C2539.92 542.57 2413.37 468.99 2275.72 463.36C2109.6 456.57 1959.72 543.6 1820.43 633.36L1794.91 649.87C1664.8 734.14 1530.26 821.27 1377.74 842.87C1353.06 846.325 1328.18 848.039 1303.26 848Z" fill="#6D6E71"/>
<path d="M1261.76 892.51C1209.25 892.51 1154.32 885.02 1095.67 869.97C1025.58 851.97 950.419 823.29 859.139 779.66C832.909 767.11 806.269 753.96 780.499 741.24C657.329 680.46 529.999 617.61 394.279 593.35C159.999 551.44 -84.6506 640.47 -200.561 809.87L-201.391 809.31C-142.331 723 -52.0006 656.93 59.9394 618.24C165.299 581.81 284.099 572.62 394.459 592.36C530.279 616.65 657.709 679.53 780.939 740.36C806.709 753.07 833.349 766.22 859.579 778.76C1001.34 846.52 1169.58 912.18 1342.25 885.39C1491.96 862.17 1623.06 774.66 1749.85 690.03C1758.62 684.17 1767.39 678.324 1776.16 672.49C1842.76 628.28 1914.84 582.83 1990.56 549.81C2073.5 513.65 2150.02 497.27 2224.56 499.75C2365.04 504.42 2493.14 580.46 2602.17 651.36C2610.31 656.654 2618.46 661.987 2626.61 667.36C2733.17 736.99 2843.35 808.99 2968.88 831.97C3095.79 855.19 3260.77 811.03 3316.57 683.42L3317.49 683.82C3304.58 713.34 3285.05 739.72 3259.49 762.22C3235.49 783.34 3206.64 800.61 3173.83 813.55C3141.45 826.19 3107.45 834.186 3072.83 837.3C3038.1 840.624 3003.08 839.161 2968.75 832.95C2843.02 809.95 2732.75 737.88 2626.11 668.19C2617.96 662.857 2609.82 657.544 2601.68 652.25C2492.76 581.42 2364.8 505.47 2224.58 500.8C2059.58 495.31 1912.9 583.04 1776.8 673.37L1750.49 690.91C1623.62 775.6 1492.43 863.17 1342.49 886.43C1315.78 890.535 1288.79 892.568 1261.76 892.51Z" fill="#6D6E71"/>
<path d="M1220.44 937C1168.19 937 1113.44 929.55 1055.1 914.58C983.369 896.19 906.649 866.64 813.669 821.58C787.149 808.72 760.219 795.25 734.169 782.21C608.439 719.3 478.419 654.21 339.269 630.39C109.139 590.94 -124.731 680.56 -229.361 848.33L-230.211 847.8C-176.931 762.41 -91.6609 696.63 16.4091 657.58C117.519 621.03 232.239 611.03 339.409 629.41C478.699 653.29 608.789 718.41 734.589 781.32C760.589 794.32 787.589 807.82 814.079 820.68C950.459 886.75 1129.73 958.75 1306.92 928.83C1454 904 1581.73 816.12 1705.23 731.1C1714.32 724.853 1723.4 718.613 1732.47 712.38C1797.25 668.06 1867.54 622.38 1942.65 588.68C2024.29 552.03 2099.76 535.12 2173.33 537.02C2316.33 540.69 2445.83 619.13 2556 692.37C2564.24 697.836 2572.49 703.336 2580.75 708.87C2688.34 780.75 2799.6 855.07 2927.09 878.26C3059.28 902.32 3225.96 850.26 3276.09 721.42L3277.03 721.78C3265.12 752.37 3246.22 779.84 3220.83 803.43C3197.04 825.53 3168.17 843.71 3135.02 857.43C3071.54 883.78 2995.7 891.72 2926.94 879.21C2799.23 855.98 2687.89 781.59 2580.22 709.66C2571.95 704.14 2563.7 698.64 2555.47 693.16C2445.39 620 2316 541.68 2173.31 538C2009.46 533.79 1860.15 626.22 1733.03 713.19C1723.96 719.403 1714.88 725.643 1705.8 731.91C1582.21 817 1454.41 905 1307.11 929.86C1278.47 934.66 1249.48 937.048 1220.44 937Z" fill="#6D6E71"/>
<path d="M1179.27 981.579C1127.27 981.579 1072.72 974.159 1014.55 959.249C941.199 940.449 862.919 910.039 768.199 863.569C741.309 850.359 713.989 836.509 687.579 823.109C559.369 758.109 426.789 690.869 284.249 667.509C58.3788 630.509 -164.661 720.679 -258.151 886.839L-259.031 886.349C-234.761 843.219 -201.731 804.779 -160.851 772.089C-122.211 741.189 -77.2112 715.909 -27.1212 696.949C69.7588 660.279 180.389 649.469 284.409 666.519C427.099 689.909 559.749 757.169 688.029 822.219C714.439 835.619 741.749 849.46 768.639 862.669C907.989 931.049 1091.09 1005.3 1271.64 972.349C1416.04 945.989 1540.32 857.699 1660.51 772.349C1669.94 765.683 1679.36 759.016 1688.78 752.349C1813 664.689 1959.19 571.399 2122.15 574.349C2186.76 575.519 2253.15 592.099 2325.27 625.039C2392.53 655.779 2456.33 697.04 2509.88 733.43C2518.21 739.09 2526.54 744.776 2534.88 750.489C2643.51 824.609 2755.88 901.259 2885.31 924.68C3021.1 949.24 3189.23 894.18 3235.58 759.529L3236.52 759.849C3225.63 791.509 3207.34 820.079 3182.17 844.749C3158.62 867.829 3129.7 886.929 3096.23 901.499C3031.94 929.499 2955 938.299 2885.13 925.659C2755.46 902.209 2643.04 825.499 2534.32 751.319C2525.96 745.606 2517.63 739.919 2509.32 734.259C2398.09 658.749 2267.27 577.979 2122.13 575.349C1959.42 572.409 1813.45 665.59 1689.35 753.16C1679.94 759.826 1670.52 766.493 1661.09 773.16C1540.81 858.609 1416.43 946.959 1271.82 973.359C1241.28 978.888 1210.3 981.639 1179.27 981.579Z" fill="#6D6E71"/>
<path d="M1138.24 1026.18C1086.39 1026.18 1032.01 1018.77 974.002 1003.9C899.072 984.7 819.232 953.43 722.732 905.5C695.372 891.9 667.582 877.62 640.732 863.82C510.132 796.72 375.092 727.34 229.262 704.57C42.2619 675.36 -195.078 741.81 -286.928 925.3L-287.828 924.85C-266.428 882.11 -236.088 843.9 -197.628 811.29C-161.438 780.59 -118.698 755.29 -70.6281 736.29C22.0219 699.48 128.572 687.88 229.372 703.63C375.372 726.43 510.482 795.85 641.152 862.98C668.022 876.78 695.802 891.06 723.152 904.65C865.512 975.37 1052.5 1051.92 1236.31 1015.85C1378 988.05 1498.84 899.41 1615.7 813.69C1625.5 806.496 1635.29 799.33 1645.06 792.19C1703.29 749.78 1772.79 701.67 1846.79 666.42C1925.79 628.76 1999.16 610.84 2070.93 611.58C2136.55 612.27 2203.93 629.04 2277.01 662.85C2345.24 694.43 2409.68 736.96 2463.72 774.39C2472.14 780.23 2480.58 786.096 2489.03 791.99C2598.71 868.37 2712.13 947.35 2843.57 970.99C2980.02 995.53 3153.22 936.19 3195.13 797.53L3196.13 797.82C3177.03 861.01 3127.81 913.43 3057.55 945.43C2992.46 975.06 2914.42 984.74 2843.44 971.97C2711.77 948.29 2598.27 869.25 2488.5 792.81C2480.06 786.916 2471.62 781.05 2463.19 775.21C2350.78 697.34 2218.5 614.13 2070.96 612.58H2066.64C1906.9 612.58 1765.64 705.58 1645.64 793.02C1635.86 800.146 1626.08 807.31 1616.28 814.51C1499.28 900.3 1378.4 989.01 1236.49 1016.85C1204.12 1023.14 1171.22 1026.26 1138.24 1026.18Z" fill="#6D6E71"/>
<path d="M1097.82 1070.68C945.197 1070.68 796.077 1007.13 677.267 947.42C649.337 933.42 620.997 918.63 593.587 904.37C460.687 835.21 323.257 763.7 174.217 741.61C-9.08313 714.44 -236.243 782.01 -315.783 963.74L-316.703 963.34C-298.173 920.99 -270.513 883.01 -234.493 850.47C-200.733 819.96 -160.253 794.73 -114.193 775.47C-25.7631 738.47 76.6969 726.14 174.337 740.61C323.537 762.73 461.047 834.28 594.027 903.47C621.427 917.73 649.767 932.47 677.677 946.47C823.127 1019.57 1014.05 1098.47 1201.01 1059.2C1340.01 1030.03 1457.37 941.05 1570.89 855C1581.07 847.286 1591.23 839.62 1601.37 832C1657.97 789.42 1725.7 741 1798.88 705.1C1876.04 667.2 1947.77 648.76 2018.08 648.76H2019.74C2086.34 648.88 2154.74 665.82 2228.74 700.54C2297.74 732.91 2362.92 776.72 2417.55 815.31C2426.06 821.31 2434.58 827.35 2443.12 833.43C2553.85 912.07 2668.36 993.43 2801.79 1017.25C2942.48 1042.42 3117.79 975.38 3154.64 835.49L3155.64 835.74C3138.48 901.01 3089.87 955.54 3018.77 989.31C2971.32 1011.84 2916.98 1023.61 2863.35 1023.61C2842.66 1023.64 2822.01 1021.85 2801.65 1018.24C2668 994.33 2553.4 912.95 2442.58 834.24C2434.04 828.18 2425.51 822.14 2417.01 816.12C2303.26 735.77 2169.37 650.02 2019.74 649.76H2018.11C1866.27 649.76 1728.39 737.7 1601.97 832.76C1591.83 840.4 1581.67 848.066 1571.5 855.76C1457.92 942 1340.44 1031 1201.24 1060.23C1167.22 1067.28 1132.56 1070.78 1097.82 1070.68Z" fill="#6D6E71"/>
<path d="M1099.06 1117.52C1047.46 1117.52 993.24 1110.12 935.42 1095.28C857.42 1075.28 774.42 1042.28 674.29 991.285C645.73 976.775 616.74 961.505 588.71 946.735C453.59 875.535 313.86 801.915 161.71 780.605C-13.51 756.135 -235.51 826.135 -302.06 1004.18L-303 1003.84C-287.32 961.845 -262.35 924.125 -228.78 891.645C-197.44 861.325 -159.23 836.115 -115.2 816.715C-73.2 798.225 -27.51 785.635 20.68 779.305C67.5318 773.073 115.011 773.194 161.83 779.665C314.17 800.995 453.98 874.665 589.18 945.895C617.18 960.665 646.18 975.895 674.74 990.445C823.31 1065.96 1018.21 1147.18 1208.22 1104.7C1344.49 1074.23 1458.43 984.925 1568.62 898.555C1578.97 890.435 1589.69 882.045 1600.2 873.865C1723.82 777.755 1859.15 688.715 2011.08 688.005C2078.69 687.665 2148.03 704.825 2223.08 740.405C2293.19 773.645 2358.93 818.645 2413.99 858.275C2422.58 864.455 2431.18 870.668 2439.79 876.915C2551.58 957.825 2667.19 1041.49 2802.61 1065.58C2947.06 1091.26 3123.83 1021.01 3156.75 875.505L3157.75 875.725C3124.7 1021.79 2947.36 1092.32 2802.46 1066.55C2666.81 1042.42 2551.11 958.695 2439.22 877.725C2430.61 871.485 2422.02 865.272 2413.43 859.085C2299.05 776.755 2164.43 689.005 2012.94 689.005H2011.11C1859.48 689.715 1724.32 778.655 1600.85 874.655C1590.33 882.835 1579.62 891.225 1569.26 899.345C1458.99 985.775 1344.96 1075.15 1208.47 1105.67C1172.55 1113.64 1135.86 1117.62 1099.06 1117.52Z" fill="#6D6E71"/>
<path d="M1116.36 1138.64C1059.65 1138.64 999.896 1129.85 935.196 1112.08C867.256 1093.43 795.966 1065.61 710.836 1024.54C701.146 1019.86 691.196 1015 680.416 1009.67C660.106 999.67 639.416 989.23 619.496 979.17C488.196 913.04 352.426 844.66 205.666 823.17C16.9356 795.53 -220.904 862.46 -310.334 1043.86L-311.234 1043.41C-290.294 1000.93 -260.234 962.94 -221.934 930.51C-185.934 900.03 -143.264 874.91 -95.0844 855.85C-2.60434 819.27 104.246 807.31 205.796 822.18C352.716 843.7 488.556 912.12 619.926 978.29C639.926 988.29 660.526 998.74 680.836 1008.78C691.616 1014.11 701.556 1018.97 711.246 1023.65C836.996 1084.27 1002.57 1151.72 1169 1135C1191.4 1132.76 1213.62 1128.99 1235.51 1123.69C1335.64 1099.37 1424.26 1042.91 1505.11 985.53C1527.23 969.84 1549.41 953.61 1570.85 937.92C1587.65 925.64 1605.02 912.92 1622.04 900.72C1734.82 819.66 1869.98 737.21 2019.64 737.21C2022.24 737.21 2024.84 737.233 2027.46 737.28C2092.18 738.53 2158.65 755.74 2230.65 789.91C2298.09 821.91 2361.43 864.61 2414.5 902.16C2422.18 907.6 2429.87 913.063 2437.59 918.55C2546.13 995.68 2658.37 1075.45 2789.24 1098.96C2933.16 1125.06 3112.16 1056.8 3149.24 913.6L3150.24 913.85C3132.92 980.68 3083.37 1036.44 3010.72 1070.85C2962.53 1093.67 2907.37 1105.59 2852.88 1105.59C2831.48 1105.62 2810.12 1103.73 2789.07 1099.95C2657.98 1076.39 2545.65 996.56 2437.07 919.36C2429.35 913.88 2421.66 908.42 2413.98 902.98C2303.44 824.77 2173.3 741.09 2027.5 738.28C1874.98 735.34 1737.29 819.16 1622.69 901.53C1605.69 913.74 1588.3 926.45 1571.51 938.73C1550.06 954.42 1527.88 970.65 1505.75 986.34C1424.81 1043.79 1336.1 1100.34 1235.81 1124.66C1213.86 1129.97 1191.57 1133.76 1169.1 1136C1151.57 1137.76 1133.97 1138.64 1116.36 1138.64Z" fill="#6D6E71"/>
<path d="M1176 1162.13C1124.29 1162.13 1069.85 1154.89 1011.18 1140.29C944.918 1123.8 872.528 1097.46 789.858 1059.76C780.318 1055.41 770.478 1050.86 759.778 1045.84C737.038 1035.17 713.928 1024.07 691.588 1013.33C564.498 952.33 433.088 889.16 292.118 867.69C57.5981 832 -176.002 921.54 -276.072 1085.52L-276.922 1084.99C-225.632 1000.9 -141.092 935.88 -32.4419 896.99C68.2781 860.92 183.608 850.17 292.288 866.72C433.408 888.22 564.888 951.37 692.038 1012.45C714.378 1023.18 737.488 1034.28 760.228 1044.95C770.918 1049.95 780.758 1054.52 790.288 1058.87C904.288 1110.87 1075.08 1177.66 1240.44 1157.25C1262.31 1154.56 1283.97 1150.4 1305.29 1144.8C1402 1119.34 1485.58 1065.91 1569.77 1008.73C1582.91 999.82 1596.17 990.73 1608.99 981.96C1634.39 964.57 1660.66 946.59 1686.38 929.69C1791.38 860.4 1931.83 781.75 2086.33 788.69C2148.15 791.47 2211.73 808.75 2280.71 841.52C2345.45 872.28 2406.41 912.7 2457.5 948.17C2464.22 952.837 2470.94 957.504 2477.68 962.17C2583.04 1035.57 2691.97 1111.48 2818.36 1134.44C2961.22 1160.83 3141.73 1099.26 3184.26 953.77L3185.26 954.05C3165.87 1020.39 3114.77 1075.26 3041.39 1108.54C2973.59 1139.3 2892.25 1149.1 2818.22 1135.42C2691.62 1112.42 2582.59 1036.42 2477.15 962.99C2470.42 958.324 2463.69 953.657 2456.97 948.99C2350.7 875.19 2225.65 795.93 2086.33 789.68C1932.11 782.76 1791.89 861.32 1686.97 930.52C1661.25 947.42 1634.97 965.4 1609.59 982.79C1596.77 991.57 1583.51 1000.65 1570.37 1009.56C1486.1 1066.79 1402.44 1120.27 1305.59 1145.77C1284.22 1151.38 1262.51 1155.54 1240.59 1158.24C1219.16 1160.86 1197.59 1162.16 1176 1162.13Z" fill="#6D6E71"/>
<path d="M1235.17 1186C1188.6 1186 1139.65 1180.21 1087.17 1168.55C1021.64 1153.99 950.24 1129.95 868.88 1095.04C859.33 1090.94 849.6 1086.7 839.15 1082.04C813.58 1070.71 787.62 1058.85 762.51 1047.37C640.04 991.37 513.4 933.53 378.57 912.26C129.19 872.92 -120.15 959.26 -241.87 1127.26L-242.68 1126.67C-180.9 1041.44 -86.5497 976.25 30.1503 938.14C139.15 902.57 262.91 893.04 378.73 911.31C513.73 932.6 640.39 990.51 762.93 1046.5C788.03 1057.98 813.99 1069.84 839.56 1081.17C850.01 1085.8 859.73 1090.04 869.28 1094.17C981.46 1142.3 1149.4 1203.52 1311.84 1179.52C1333.18 1176.37 1354.28 1171.84 1375.03 1165.94C1468.88 1139.23 1553.03 1084.71 1634.35 1031.99L1636.66 1030.49C1675.82 1005.18 1712.81 981.28 1750.66 958.69C1819.18 917.56 1880.97 888.09 1939.56 868.58C2011.5 844.58 2078.75 835.31 2145.14 840.11C2204.04 844.37 2264.73 861.7 2330.7 893.11C2392.7 922.62 2451.3 960.77 2500.45 994.21L2516.31 1005.01C2618.92 1074.95 2725.02 1147.27 2847.42 1170.01C2993.13 1197.1 3172.03 1138.69 3219.2 994.01L3220.15 994.32C3209.02 1028.47 3189.86 1059.2 3163.21 1085.65C3138.34 1110.35 3107.64 1130.71 3071.95 1146.18C3024.67 1166.68 2970.84 1177.32 2917.47 1177.32C2893.92 1177.35 2870.41 1175.22 2847.24 1170.96C2724.63 1148.16 2618.44 1075.78 2515.75 1005.79L2499.94 995C2397.88 925.57 2277.87 850.69 2145.13 841.09C1987.89 829.73 1845.02 903.24 1751.23 959.53C1713.38 982.11 1676.4 1006.01 1637.23 1031.31L1634.96 1032.78C1553.51 1085.57 1469.32 1140.13 1375.34 1166.88C1354.55 1172.8 1333.39 1177.34 1312.01 1180.49C1286.57 1184.21 1260.88 1186.05 1235.17 1186Z" fill="#6D6E71"/>
<path d="M2950.23 1211.77C2925.47 1211.8 2900.76 1209.53 2876.42 1204.99C2757.97 1182.63 2654.78 1113.99 2554.99 1047.51L2542.99 1039.51C2445.05 974.37 2329.99 903.81 2203.99 890.98C2084.67 878.84 1957.61 910.25 1815.54 986.98C1773.25 1009.66 1731.37 1034.98 1699.62 1054.46C1691.71 1059.34 1683.8 1064.24 1675.89 1069.15C1603.07 1114.34 1527.77 1161.07 1445.16 1186.45C1424.94 1192.67 1404.34 1197.59 1383.49 1201.2C1315.83 1212.92 1243.78 1210.99 1163.22 1195.31C1098.43 1182.7 1028.02 1160.95 947.971 1128.82C938.531 1125.02 928.971 1121.09 918.591 1116.82C889.811 1104.82 860.591 1092.17 832.361 1079.92C714.891 1028.92 593.411 976.29 465.091 955.4C204.541 913 -65.7794 998.2 -207.589 1167.48L-208.359 1166.84C-136.019 1080.48 -31.8694 1015.11 92.8206 977.77C152.877 959.932 214.775 949.018 277.311 945.24C340.1 941.287 403.134 944.36 465.241 954.4C593.691 975.32 715.241 1028.02 832.741 1078.99C860.991 1091.24 890.191 1103.9 918.961 1115.89C929.291 1120.19 938.901 1124.13 948.341 1127.89C1058.65 1172.17 1223.76 1227.89 1383.34 1200.21C1404.14 1196.61 1424.7 1191.7 1444.88 1185.5C1527.37 1160.15 1602.62 1113.5 1675.38 1068.3C1683.29 1063.39 1691.21 1058.5 1699.12 1053.61C1730.88 1034.09 1772.77 1008.79 1815.12 986.1C1881.67 950.1 1942.97 924.77 2002.55 908.53C2071.83 889.64 2139.66 883.4 2204.15 889.96C2260.15 895.66 2317.9 913.03 2380.87 943.07C2440.06 971.3 2496.34 1007.23 2543.58 1038.64L2555.58 1046.64C2655.29 1113.01 2758.4 1181.64 2876.64 1203.96C3022.06 1231.41 3203.08 1174.86 3254.31 1032.7L3255.25 1033.04C3243.03 1066.94 3222.96 1097.3 3195.6 1123.28C3170.05 1147.52 3138.8 1167.4 3102.7 1182.36C3055.94 1201.76 3002.92 1211.77 2950.23 1211.77Z" fill="#6D6E71"/>
<path d="M2983.14 1242.38C2957.1 1242.43 2931.12 1240.01 2905.54 1235.15C2791.11 1213.21 2690.79 1148.15 2593.76 1085.22L2585.97 1080.22C2492.06 1019.31 2381.89 953 2262.82 937.08C2141.93 920.92 2016.66 945 1879.82 1010.71C1844.67 1027.43 1806.82 1047.61 1764.25 1072.41C1749.12 1081.25 1733.8 1090.41 1718.98 1099.33C1654.23 1138.17 1587.28 1178.33 1514.98 1202.33C1495.32 1208.84 1475.29 1214.15 1454.98 1218.22C1420.91 1224.95 1386.25 1228.28 1351.52 1228.17C1257.41 1228.17 1151.78 1205.42 1027.04 1158.87C1017.74 1155.4 1007.97 1151.67 998.04 1147.78C965.65 1135.17 932.8 1121.68 901.04 1108.64C788.98 1062.64 673.1 1015.08 551.63 994.72C275.69 948.46 -8.85001 1030.58 -173.28 1203.93L-174 1203.25C-91 1115.78 22.91 1050.25 155.53 1013.61C282.81 978.48 419.84 971.61 551.79 993.73C673.38 1014.12 789.31 1061.73 901.42 1107.73C933.18 1120.73 966.02 1134.25 998.42 1146.86C1008.42 1150.75 1018.16 1154.47 1027.42 1157.94C1199.74 1222.25 1335.55 1241.09 1454.81 1217.25C1475.07 1213.19 1495.07 1207.89 1514.69 1201.39C1586.92 1177.47 1653.83 1137.33 1718.53 1098.52C1733.35 1089.63 1748.67 1080.44 1763.81 1071.6C1806.45 1046.78 1844.27 1026.6 1879.45 1009.86C1943.17 979.26 2005.73 957.37 2065.39 944.79C2132.92 930.55 2199.39 927.64 2263.02 936.14C2382.29 952.14 2492.57 1018.47 2586.58 1079.43L2594.37 1084.48C2691.31 1147.35 2791.55 1212.37 2905.79 1234.27C3048.98 1261.72 3232.06 1212.67 3289.33 1067.7L3290.26 1068.07C3276.96 1101.74 3255.98 1131.73 3227.9 1157.22C3201.68 1181.02 3169.9 1200.41 3133.36 1214.86C3087.22 1233 3035.07 1242.38 2983.14 1242.38Z" fill="#6D6E71"/>
<path d="M3016.5 1273.74C2989.03 1273.77 2961.63 1271.15 2934.66 1265.92C2824.05 1244.37 2726.39 1182.83 2631.95 1123.3L2628.95 1121.43C2538.95 1064.66 2433.49 1002.51 2321.63 983.69C2201.13 963.41 2074.11 980.69 1944.08 1034.9C1904.71 1051.5 1866.25 1070.16 1828.85 1090.83C1807.1 1102.83 1785.22 1115.64 1764.06 1128.03C1706.87 1161.51 1647.73 1196.13 1584.71 1218.6C1565.61 1225.41 1546.13 1231.08 1526.37 1235.6C1461.78 1250.33 1392.7 1252.34 1315.18 1241.75C1251.82 1233.09 1183.4 1215.93 1106.01 1189.28C1096.78 1186.11 1087.13 1182.7 1077.31 1179.14C1040.9 1165.97 1004 1151.68 968.311 1137.85C862.081 1096.69 752.231 1054.13 637.951 1034.44C346.301 984.19 48.5206 1063.25 -139.169 1240.78L-139.859 1240.05C-46.2294 1151.49 77.5306 1085.71 218.021 1049.8C353.701 1015.13 498.961 1009.48 638.121 1033.45C752.501 1053.16 862.391 1095.74 968.671 1136.92C1004.34 1150.74 1041.23 1165.04 1077.67 1178.2C1087.48 1181.75 1097.13 1185.2 1106.36 1188.34C1275.66 1246.63 1409.06 1261.34 1526.17 1234.62C1545.9 1230.11 1565.34 1224.43 1584.39 1217.62C1647.32 1195.18 1706.39 1160.62 1763.57 1127.12C1784.74 1114.73 1806.63 1101.92 1828.39 1089.91C1865.81 1069.22 1904.31 1050.52 1943.71 1033.91C2073.92 979.58 2201.13 962.32 2321.81 982.63C2433.86 1001.48 2539.38 1063.69 2629.5 1120.52L2632.5 1122.39C2726.86 1181.86 2824.43 1243.39 2934.86 1264.87C3077.86 1292.72 3262.98 1245.46 3324.28 1103L3325.2 1103.4C3310.82 1136.82 3288.93 1166.4 3260.14 1191.46C3233.24 1214.81 3200.89 1233.72 3163.96 1247.66C3127.59 1261.2 3089.48 1269.51 3050.77 1272.34C3039.32 1273.28 3027.9 1273.75 3016.5 1273.74Z" fill="#6D6E71"/>
<path d="M3050.5 1306C3021.39 1306.01 2992.34 1303.18 2963.78 1297.55C2856.69 1276.35 2762.78 1219.01 2672 1163.55C2581.66 1108.35 2484.74 1052.66 2380.51 1031.19C2258 1005.97 2132.81 1015.66 2008.41 1060.01C1969.04 1074.15 1930.67 1090.91 1893.53 1110.16C1865.7 1124.59 1837.96 1140.59 1811.13 1156.07C1760.98 1184.98 1709.13 1214.89 1654.54 1235.82C1636.01 1242.95 1617.09 1249.01 1597.87 1253.98C1534.81 1270.23 1467.22 1274.22 1391.23 1266.15C1328.58 1259.51 1261.15 1244.64 1185.1 1220.71C1175.9 1217.81 1166.36 1214.71 1156.74 1211.51C1115.86 1197.9 1074.5 1182.81 1034.5 1168.21C934.5 1131.74 831.19 1094.03 724.5 1075.21C421.42 1021.63 103.63 1099.59 -104.85 1278.67L-105.5 1277.91C-1.13 1188.26 132.43 1122.24 280.74 1087.01C424.82 1052.77 578.33 1048.35 724.68 1074.23C831.47 1093.1 934.87 1130.83 1034.86 1167.31C1074.86 1181.9 1116.21 1196.99 1157.08 1210.61C1166.69 1213.81 1176.22 1216.9 1185.42 1219.79C1351.68 1272.12 1482.67 1282.68 1597.64 1253.05C1616.83 1248.09 1635.71 1242.04 1654.21 1234.92C1708.73 1214.02 1760.54 1184.14 1810.65 1155.24C1837.49 1139.76 1865.24 1123.75 1893.09 1109.31C1930.26 1090.04 1968.68 1073.27 2008.09 1059.11C2068.47 1037.58 2130.09 1024.11 2191.09 1018.99C2254.51 1013.65 2318.38 1017.45 2380.72 1030.26C2485.11 1051.75 2582.12 1107.49 2672.53 1162.74C2763.26 1218.15 2857.07 1275.44 2963.98 1296.6C3110.5 1325.6 3293.34 1280.94 3359.29 1139.44L3360.19 1139.86C3330.09 1204.47 3272.82 1253.48 3194.6 1281.61C3149.53 1297.81 3100.23 1306 3050.5 1306Z" fill="#6D6E71"/>
<path d="M3084 1339.58C3053.4 1339.6 3022.87 1336.59 2992.86 1330.58C2896.7 1311.22 2813.61 1265.22 2714.98 1207.09C2624.46 1153.71 2535.27 1103.84 2439.31 1080.09C2314.21 1049.17 2190.85 1051.33 2072.67 1086.5C2033.35 1098.14 1995.04 1112.98 1958.13 1130.87C1924.71 1147.08 1891.76 1165.97 1859.91 1184.24C1816.32 1209.24 1771.25 1235.08 1724.31 1254.42C1706.35 1261.85 1687.99 1268.3 1669.31 1273.72C1608.63 1291.26 1540.64 1297.38 1467.21 1291.92C1405.21 1287.31 1338.83 1274.74 1264.11 1253.49C1255.01 1250.9 1245.59 1248.12 1236.11 1245.24C1190.3 1231.32 1144.01 1215.46 1099.25 1200.12C1006.05 1168.17 909.684 1135.12 810.934 1117.25C491.724 1059.42 162.154 1134.4 -70.6456 1317.83L-71.2656 1317.04C-12.8956 1271.04 52.6344 1231.27 123.514 1198.78C194.008 1166.66 267.697 1142.08 343.354 1125.44C495.864 1091.63 657.614 1088.44 811.114 1116.27C909.934 1134.18 1006.34 1167.27 1099.58 1199.17C1144.33 1214.51 1190.58 1230.37 1236.4 1244.28C1245.89 1247.16 1255.3 1249.94 1264.4 1252.52C1425.4 1298.31 1557.74 1304.93 1669.05 1272.76C1687.69 1267.35 1706.02 1260.91 1723.95 1253.49C1770.84 1234.18 1815.88 1208.35 1859.44 1183.37C1891.31 1165.09 1924.27 1146.19 1957.72 1129.97C1994.68 1112.06 2033.04 1097.2 2072.41 1085.54C2131.36 1068.04 2192.43 1058.66 2253.91 1057.67C2316.47 1056.77 2378.88 1063.98 2439.58 1079.12C2535.67 1102.87 2624.93 1152.78 2715.51 1206.2C2814.06 1264.28 2897.08 1310.2 2993.08 1329.57C3139.57 1359.06 3324.42 1316.17 3394.27 1177.11L3395.17 1177.56C3362.99 1241.62 3304.22 1289.76 3225.22 1316.8C3181 1331.91 3132.78 1339.58 3084 1339.58Z" fill="#6D6E71"/>
<path d="M3117.82 1374.65C3085.64 1374.66 3053.54 1371.43 3022 1365C2928.88 1345.92 2844 1300.67 2758 1252C2683.84 1210 2591.55 1157.74 2498.16 1130.41C2371.08 1093.22 2249.55 1087.84 2136.97 1114.41C2097.75 1123.58 2059.51 1136.5 2022.77 1153.01C1984.2 1170.4 1946.69 1192.01 1910.42 1212.85C1872.92 1234.43 1834.13 1256.75 1794.12 1274.45C1776.71 1282.2 1758.9 1289.02 1740.77 1294.89C1631.36 1330.12 1501.3 1327.77 1343.16 1287.69C1334.16 1285.41 1324.85 1282.95 1315.49 1280.39C1264.22 1266.39 1212.49 1249.74 1162.49 1233.68C1076.56 1206.08 987.713 1177.53 897.343 1160.77C566.683 1099.42 217.603 1173.32 -36.4569 1358.46L-37.0469 1357.65C217.233 1172.36 566.603 1098.39 897.523 1159.78C987.963 1176.56 1076.84 1205.12 1162.79 1232.78C1212.79 1248.84 1264.46 1265.44 1315.7 1279.48C1325.06 1282.04 1334.36 1284.48 1343.35 1286.77C1501.35 1326.77 1631.19 1329.16 1740.42 1293.99C1758.52 1288.13 1776.29 1281.32 1793.66 1273.58C1833.66 1255.91 1872.39 1233.58 1909.87 1212.03C1946.16 1191.15 1983.69 1169.55 2022.31 1152.15C2059.11 1135.62 2097.41 1122.67 2136.69 1113.49C2193.94 1099.97 2254.52 1094.73 2316.69 1097.9C2375.87 1100.9 2436.99 1111.54 2498.35 1129.5C2591.85 1156.86 2684.2 1209.16 2758.4 1251.18C2844.31 1299.8 2929.13 1345.01 3022.1 1364.06C3164.1 1393.15 3352.1 1359.32 3429.17 1216.3L3430.05 1216.78C3395.81 1280.28 3335.53 1327.57 3255.74 1353.52C3212.61 1367.53 3165.5 1374.64 3117.82 1374.65Z" fill="#6D6E71"/>
<path d="M3151.85 1411.38C3118.01 1411.38 3084.26 1407.9 3051.13 1401C2960.42 1382.07 2877.85 1340 2801.05 1298.51L2789.77 1292.41C2714.59 1251.74 2636.86 1209.69 2557.03 1182.3C2428.31 1138.13 2308.62 1125.21 2201.28 1143.9C2162.23 1150.58 2124.05 1161.59 2087.44 1176.73C2044.11 1194.73 2002.66 1218.89 1962.57 1242.24C1930.67 1260.82 1897.69 1280.03 1863.95 1296.05C1847.1 1304.11 1829.85 1311.31 1812.27 1317.63C1755.74 1337.8 1693.59 1347.88 1624.77 1347.89C1562.91 1347.89 1495.66 1339.75 1422.23 1323.47C1413.31 1321.47 1404.12 1319.35 1394.91 1317.11C1337.61 1303.19 1279.98 1285.85 1224.24 1269.11C1146.16 1245.63 1065.43 1221.35 983.888 1205.87C641.888 1140.95 273.288 1213.77 -2.11185 1400.67L-2.67188 1399.85C67.9202 1352.14 143.307 1311.94 222.258 1279.91C301.852 1247.6 384.391 1223.09 468.718 1206.72C553.554 1190.22 639.753 1181.73 726.178 1181.36C812.706 1180.95 899.073 1188.83 984.098 1204.89C1065.69 1220.38 1146.46 1244.67 1224.56 1268.15C1280.28 1284.91 1337.9 1302.24 1395.17 1316.15C1404.38 1318.39 1413.56 1320.53 1422.48 1322.5C1577.41 1356.84 1704.81 1354.94 1811.96 1316.7C1829.51 1310.39 1846.73 1303.2 1863.55 1295.15C1897.25 1279.15 1930.22 1259.95 1962.09 1241.39C2002.21 1218.02 2043.69 1193.85 2087.09 1175.81C2123.77 1160.65 2162.02 1149.62 2201.14 1142.92C2308.65 1124.21 2428.5 1137.14 2557.38 1181.36C2637.3 1208.78 2715.07 1250.85 2790.27 1291.54L2801.55 1297.64C2878.29 1339.08 2960.79 1381.13 3051.37 1400.03C3193.45 1429.68 3383.27 1397.55 3464.32 1257.03L3465.19 1257.53C3428.89 1320.53 3367.11 1366.91 3286.53 1391.79C3244.26 1404.8 3198.37 1411.38 3151.85 1411.38Z" fill="#6D6E71"/>
<path d="M3186.29 1449.71C3150.66 1449.71 3115.13 1445.96 3080.29 1438.53C2995.88 1420.68 2916.89 1383.77 2844.11 1346.53C2829.58 1339.09 2814.8 1331.42 2800.51 1324.01C2740.51 1292.89 2678.51 1260.72 2615.91 1235.7C2486.22 1183.86 2368.36 1163.4 2265.61 1174.89C2226.78 1179.11 2188.63 1188.21 2152.08 1202C2104.36 1220.14 2059.54 1246.8 2016.2 1272.57C1989.46 1288.47 1961.82 1304.91 1933.75 1319.21C1916.08 1328.21 1899.75 1335.64 1883.75 1341.93C1821.75 1366.36 1752.81 1378.54 1675.56 1378.54C1621.69 1378.54 1563.78 1372.62 1501.3 1360.81C1492.44 1359.13 1483.37 1357.31 1474.3 1355.4C1410.66 1341.94 1346.84 1323.94 1285.13 1306.54C1215.21 1286.83 1142.91 1266.45 1070.36 1252.54C712.69 1182.44 334.27 1252.4 32.1103 1444.45L31.5703 1443.6C107.415 1395.54 187.802 1355.05 271.57 1322.72C355.697 1290.24 442.675 1265.7 531.37 1249.41C618.871 1233.32 707.653 1225.22 796.62 1225.19H801C891.469 1225.42 981.711 1234.25 1070.51 1251.55C1143.11 1265.55 1215.42 1285.91 1285.36 1305.62C1347.06 1323.02 1410.86 1341 1474.47 1354.46C1483.47 1356.37 1492.58 1358.19 1501.47 1359.86C1653.37 1388.58 1778.29 1382.43 1883.36 1341.04C1899.36 1334.76 1915.66 1327.34 1933.3 1318.36C1961.3 1304.07 1988.97 1287.64 2015.68 1271.75C2059.07 1245.95 2103.92 1219.28 2151.68 1201.11C2188.3 1187.31 2226.51 1178.2 2265.42 1173.99C2320.42 1167.83 2380.08 1170.77 2442.68 1182.7C2497.24 1193.1 2555.62 1210.7 2616.2 1234.86C2678.84 1259.86 2740.89 1292.08 2800.89 1323.21C2815.18 1330.63 2829.96 1338.29 2844.48 1345.73C2917.21 1382.93 2996.12 1419.81 3080.42 1437.63C3222.5 1468.04 3414.17 1437.72 3499.26 1299.28L3500.11 1299.8C3461.74 1362.23 3398.45 1407.8 3317.11 1431.68C3276 1443.64 3231.48 1449.71 3186.29 1449.71Z" fill="#6D6E71"/>
<path d="M66.3637 1489.29L65.8438 1488.43C146.932 1440.03 232.354 1399.29 321.004 1366.74C498.663 1301.52 686.647 1268.93 875.894 1270.56C970.286 1271.38 1064.4 1281 1157 1299.29C1219.33 1311.66 1281.82 1328.14 1342.27 1344.07C1411.21 1362.25 1482.51 1381.07 1553.85 1393.82C1714.62 1422.62 1845.77 1413.66 1954.78 1366.44C1995.21 1348.92 2033.6 1325.44 2070.72 1302.7C2116.83 1274.48 2164.51 1245.3 2216.37 1227.45C2285.08 1203.81 2363.04 1199.34 2448.07 1214.18C2517.92 1226.36 2592.18 1250.97 2675.07 1289.41C2714.72 1307.79 2754.5 1328.06 2792.97 1347.66C2893.66 1398.97 2997.79 1452.02 3109.54 1476.29C3256.63 1508.23 3445 1479.29 3534.26 1342.64L3535.09 1343.19C3494.69 1405.04 3429.89 1449.77 3347.7 1472.55C3274.02 1492.97 3189.36 1494.64 3109.32 1477.26C2997.45 1452.97 2893.26 1399.89 2792.51 1348.55C2754.05 1328.96 2714.29 1308.69 2674.65 1290.32C2491.78 1205.54 2341.97 1185.32 2216.65 1228.4C2164.9 1246.21 2117.27 1275.4 2071.2 1303.55C2034.05 1326.3 1995.63 1349.81 1955.14 1367.35C1896.88 1392.59 1830.48 1407.06 1757.75 1410.35C1695.75 1413.17 1627.06 1407.94 1553.63 1394.79C1482.31 1382 1411 1363.22 1342 1345C1281.57 1329.07 1219.09 1312.59 1156.8 1300.23C787.194 1226.9 389.734 1295.79 66.3637 1489.29Z" fill="#6D6E71"/>
<path d="M26.9987 1529.52L26.4688 1528.66C177.939 1436.04 346.409 1371.66 527.209 1337.28C703.863 1303.86 884.881 1300.38 1062.69 1327C1156.51 1341.06 1252.19 1362.61 1344.69 1383.45C1385.98 1392.75 1428.69 1402.37 1470.75 1411.22C1570.68 1432.22 1646.08 1440.73 1715.25 1438.98C1774.13 1437.43 1826.25 1428.46 1874.57 1411.58C1897.82 1403.51 1922.4 1392.76 1949.71 1378.74C1972.9 1366.84 1996.03 1353.53 2018.4 1340.67C2058.63 1317.53 2100.23 1293.61 2144.18 1276.58C2182.87 1261.73 2223.35 1252.02 2264.57 1247.69C2366.9 1236.55 2481.27 1256.03 2595.34 1304.05C2599.57 1305.83 2603.92 1307.7 2608.25 1309.62C2653.52 1329.62 2698.25 1353.39 2741.49 1376.44C2796.83 1405.92 2854.06 1436.44 2913 1459.07C2958.33 1476.59 3005.31 1489.52 3053.23 1497.66C3069.12 1500.33 3085.61 1502.35 3102.23 1503.66C3268.51 1516.99 3414.33 1463.66 3492.31 1361.14L3493.11 1361.75C3471.61 1389.77 3445.62 1414.04 3416.19 1433.57C3387.78 1452.57 3355.45 1468.27 3320.08 1480.12C3253.9 1502.29 3178.54 1510.78 3102.15 1504.66C3085.5 1503.32 3068.98 1501.3 3053.07 1498.66C3005.09 1490.5 2958.06 1477.55 2912.67 1460C2853.67 1437.33 2796.42 1406.82 2741.05 1377.32C2697.82 1354.32 2653.12 1330.46 2607.88 1310.53C2603.55 1308.62 2599.21 1306.75 2594.98 1304.97C2481.07 1256.97 2366.87 1237.56 2264.71 1248.69C2223.57 1253 2183.18 1262.69 2144.57 1277.52C2100.69 1294.52 2059.13 1318.42 2018.93 1341.52C1996.55 1354.4 1973.4 1367.7 1950.2 1379.62C1922.84 1393.62 1898.2 1404.43 1874.93 1412.52C1826.51 1429.43 1774.29 1438.41 1715.31 1439.97C1646.06 1441.73 1570.59 1433.16 1470.57 1412.19C1428.5 1403.34 1385.79 1393.72 1344.5 1384.42C1251.99 1363.58 1156.33 1342.03 1062.5 1327.98C983.002 1316.04 902.728 1310.02 822.339 1309.98C538.689 1310 262.839 1385.28 26.9987 1529.52Z" fill="#6D6E71"/>
<path d="M-12.4309 1571.51L-12.9609 1570.66C129.089 1481.73 288.409 1418.33 460.589 1382.21C625.019 1347.71 795.859 1339.06 968.349 1356.48C1096.51 1369.42 1237.59 1394.29 1387.69 1430.39C1475.36 1451.39 1554.34 1469.06 1633.08 1473.33C1693.02 1476.46 1745.79 1471.6 1794.4 1458.5C1819.27 1451.87 1844.73 1442.66 1872.23 1430.33C1904.45 1415.88 1936.23 1398.24 1967.04 1381.19C2000.9 1362.41 2035.92 1343 2072.04 1327.47C2110.65 1311 2150.98 1298.87 2192.28 1291.33C2302.71 1271.23 2418.84 1283.27 2528.1 1326.16C2532.5 1327.89 2536.99 1329.71 2541.44 1331.58C2590.03 1351.94 2637.3 1378.23 2683.02 1403.66C2737.46 1433.94 2793.75 1465.24 2852.61 1486.73C2898.47 1503.47 2945.68 1514.62 2996.94 1520.81C3013.01 1522.74 3029.88 1524.08 3047.08 1524.81C3214.76 1531.61 3365.52 1478.05 3450.38 1381.49L3451.13 1382.15C3406.24 1433.22 3345.13 1471.74 3269.49 1496.62C3201.84 1518.88 3124.92 1528.97 3047.04 1525.81C3029.81 1525.11 3012.92 1523.81 2996.82 1521.81C2945.49 1515.61 2898.2 1504.45 2852.27 1487.68C2793.34 1466.17 2737.01 1434.84 2682.53 1404.54C2636.84 1379.13 2589.59 1352.85 2541.06 1332.54C2536.61 1330.68 2532.13 1328.86 2527.73 1327.14C2418.65 1284.31 2302.73 1272.29 2192.46 1292.36C2151.24 1299.89 2110.99 1311.99 2072.46 1328.43C2036.39 1343.94 2001.4 1363.34 1967.55 1382.1C1936.76 1399.17 1904.93 1416.82 1872.67 1431.28C1845.12 1443.63 1819.61 1452.87 1794.67 1459.51C1745.96 1472.64 1693.1 1477.51 1633.03 1474.37C1554.21 1470.1 1475.19 1452.37 1387.47 1431.37C1237.41 1395.28 1096.37 1370.42 968.259 1357.48C613.549 1321.65 265.269 1397.66 -12.4309 1571.51Z" fill="#6D6E71"/>
<path d="M-51.8194 1615.45L-52.3594 1614.6C72.6406 1534.35 218.691 1477.91 394.311 1442.04C555.001 1409.22 719.401 1397.3 874.001 1387.91C938.551 1383.99 1008.9 1388.65 1089.07 1402.17C1165.66 1415.08 1241.07 1434.35 1304.65 1451.5C1319.84 1455.56 1335.15 1459.77 1349.96 1463.83C1419.21 1482.83 1484.61 1500.83 1550.96 1509.63C1611.6 1517.55 1665.03 1516.81 1714.28 1507.36C1741.79 1502 1768.74 1494.13 1794.81 1483.86C1836.44 1467.69 1877.06 1445.45 1916.33 1423.94C1943.47 1409.08 1971.54 1393.71 1999.94 1380.31C2038.54 1362.18 2078.73 1347.65 2120 1336.92C2237 1306.83 2354.87 1311.43 2460.88 1350.23C2465.44 1351.89 2470.07 1353.66 2474.65 1355.49C2525.79 1375.89 2574.83 1404.28 2622.25 1431.74C2676.55 1463.17 2732.69 1495.67 2792.25 1516.33C2837.66 1532.08 2886.25 1541.76 2940.68 1545.89C2956.9 1547.12 2974.15 1547.77 2991.96 1547.81H2994.18C3164.95 1547.81 3315.84 1495.34 3408.48 1403.68L3409.18 1404.39C3360.29 1452.77 3296.29 1489.97 3218.93 1514.97C3149.81 1537.32 3071.29 1549.03 2991.93 1548.81C2974.1 1548.81 2956.83 1548.12 2940.58 1546.89C2886.03 1542.75 2837.39 1533.06 2791.9 1517.27C2732.26 1496.59 2676.08 1464.06 2621.74 1432.6C2574.35 1405.16 2525.34 1376.79 2474.28 1356.42C2469.7 1354.6 2465.08 1352.83 2460.53 1351.16C2354.71 1312.44 2237.04 1307.85 2120.24 1337.89C2079.02 1348.6 2038.88 1363.11 2000.33 1381.22C1971.95 1394.6 1943.9 1409.96 1916.77 1424.82C1877.47 1446.34 1836.82 1468.6 1795.13 1484.82C1769.01 1495.11 1741.99 1503 1714.43 1508.37C1665.07 1517.84 1611.54 1518.58 1550.79 1510.65C1484.41 1501.79 1418.97 1483.83 1349.7 1464.82C1334.89 1460.76 1319.58 1456.56 1304.39 1452.49C1172.92 1417 1020.44 1380 874.001 1388.9C540.421 1409.18 218.591 1441.76 -51.8194 1615.45Z" fill="#6D6E71"/>
<path d="M-91.2156 1661L-91.7656 1660.17C-35.3756 1622.92 24.5544 1591.54 91.4344 1564.25C150.994 1540 214.574 1519.53 285.994 1501.75C418.484 1468.75 557.334 1450.44 691.604 1432.75C720.504 1428.93 750.384 1424.99 779.604 1420.98C845.694 1411.9 919.854 1412.98 1000.02 1424.16C1067.3 1433.54 1139.75 1449.93 1221.51 1474.24C1250.72 1482.88 1279.67 1492.24 1307.67 1501.34C1363.03 1519.28 1415.31 1536.23 1468.67 1547.56C1530.2 1560.43 1584.29 1563.8 1634 1557.87C1662.31 1554.41 1690.19 1548.1 1717.22 1539.03C1768.22 1522.03 1817.22 1495.03 1864.54 1468.79C1885.13 1457.41 1906.42 1445.64 1927.69 1434.79C1966.36 1414.95 2006.45 1398.02 2047.63 1384.15C2171.85 1342.78 2288.24 1340.01 2393.57 1375.93C2398.25 1377.52 2403.03 1379.24 2407.77 1381.04C2461.11 1401.3 2511.56 1431.63 2560.35 1460.96C2614.83 1493.72 2671.17 1527.59 2731.77 1547.57C2777.07 1562.51 2826.96 1570.71 2884.3 1572.57C2900.86 1573.12 2918 1573.08 2936.71 1572.43C3109.95 1566.57 3266.58 1513.75 3366.46 1427.51L3367.11 1428.27C3314.22 1473.93 3247.32 1509.83 3168.25 1534.95C3097.66 1557.39 3017.6 1570.7 2936.75 1573.43C2918.02 1574.08 2900.85 1574.12 2884.26 1573.57C2826.83 1571.66 2776.85 1563.44 2731.45 1548.47C2670.75 1528.47 2614.36 1494.55 2559.83 1461.77C2511.08 1432.46 2460.67 1402.15 2407.41 1381.93C2402.69 1380.13 2397.92 1378.42 2393.24 1376.82C2288.12 1341 2171.99 1343.78 2047.99 1385.08C2006.86 1398.93 1966.81 1415.84 1928.19 1435.66C1906.93 1446.5 1885.65 1458.27 1865.06 1469.66C1817.65 1495.87 1768.62 1522.97 1717.58 1539.97C1690.49 1549.06 1662.54 1555.39 1634.16 1558.85C1584.34 1564.85 1530.16 1561.43 1468.51 1548.53C1415.1 1537.19 1362.79 1520.23 1307.41 1502.28C1279.41 1493.2 1250.47 1483.82 1221.27 1475.19C1042.6 1422.05 902.274 1405.13 779.794 1421.96C750.544 1425.96 720.664 1429.96 691.794 1433.73C422.114 1469.29 143.334 1506.07 -91.2156 1661Z" fill="#6D6E71"/>
<path d="M-130.596 1707.72L-131.156 1706.9C-41.9563 1646.13 62.2737 1598.54 187.494 1561.39C298.994 1528.31 416.024 1506.51 529.214 1485.39C580.544 1475.82 633.624 1465.93 685.274 1455.15C753.344 1440.93 829.274 1438.34 910.964 1447.43C982.964 1455.43 1059.48 1472.43 1138.43 1498.09C1178.03 1510.86 1216.55 1525.6 1253.79 1539.86C1299.32 1557.29 1342.32 1573.75 1386.47 1586.6C1448.81 1604.53 1503.55 1612.01 1553.8 1609.47C1582.88 1607.97 1611.7 1603.22 1639.71 1595.31C1700.61 1578.16 1758.18 1545.43 1813.86 1513.79C1827.49 1506.05 1841.58 1498.04 1855.52 1490.37C1897.14 1467.47 1937.45 1448 1975.32 1432.48C2034.87 1408.09 2092.43 1392.64 2146.38 1386.56C2209.57 1379.45 2270.11 1384.88 2326.3 1402.73C2331.15 1404.26 2336.07 1405.93 2340.93 1407.73C2396.29 1427.73 2447.93 1459.94 2497.93 1491.06C2552.79 1525.23 2609.52 1560.57 2671.35 1579.95C2717.42 1594.4 2767.21 1600.95 2827.98 1600.49C2844.56 1600.37 2862.08 1599.65 2881.53 1598.3C3058.95 1586.06 3216.27 1534.3 3324.53 1452.58L3325.13 1453.38C3216.75 1535.22 3059.24 1587.04 2881.63 1599.3C2862.16 1600.65 2844.63 1601.37 2828.01 1601.49C2767.1 1601.94 2717.25 1595.39 2671.08 1580.9C2609.08 1561.48 2552.35 1526.12 2497.44 1491.9C2447.51 1460.81 2395.89 1428.65 2340.62 1408.66C2335.77 1406.91 2330.86 1405.24 2326.03 1403.66C2222.22 1370.66 2104.36 1380.66 1975.73 1433.39C1937.89 1448.89 1897.62 1468.39 1856.03 1491.22C1842.1 1498.89 1828.03 1506.9 1814.38 1514.64C1758.66 1546.31 1701.03 1579.07 1640.01 1596.25C1611.92 1604.18 1583.03 1608.94 1553.88 1610.45C1503.52 1613 1448.67 1605.45 1386.22 1587.54C1342.03 1574.68 1299.01 1558.21 1253.46 1540.77C1216.23 1526.52 1177.73 1511.77 1138.15 1499.02C969.544 1444.32 813.024 1429.49 685.504 1456.11C633.854 1466.89 580.764 1476.78 529.424 1486.35C302.624 1528.66 68.1438 1572.35 -130.596 1707.72Z" fill="#6D6E71"/>
<path d="M-170 1755.24L-170.57 1754.42C35.7197 1609.05 292 1520.14 591 1490.17C682.27 1481.03 756.19 1478.17 823.61 1481.17C910.61 1485.04 986.41 1498.67 1055.33 1522.82C1102.94 1539.41 1148.33 1559.7 1192.24 1579.33C1230.61 1596.49 1266.85 1612.7 1304.24 1626.52C1367.3 1649.6 1422.69 1661.2 1473.58 1661.96C1503.39 1662.41 1533.14 1659.22 1562.18 1652.46C1633.41 1635.8 1699.48 1596.58 1763.38 1558.64C1770.05 1554.69 1776.7 1550.75 1783.33 1546.82C1828.33 1520.27 1867.49 1498.97 1902.98 1481.7C2037.57 1416.17 2154.04 1399.4 2258.98 1430.4C2263.98 1431.87 2268.98 1433.49 2274.03 1435.22C2331.31 1454.96 2384.09 1488.94 2435.12 1521.81C2490.47 1557.44 2547.69 1594.29 2610.87 1613.13C2657.27 1626.98 2708.35 1632.07 2771.6 1629.13C2788.18 1628.36 2806.07 1626.97 2826.29 1624.88C2953 1611.88 3135 1575.88 3282.48 1478.37L3283.03 1479.2C3222.14 1519.45 3149.44 1552.73 3066.95 1578.11C2992.36 1601.06 2911.43 1617.11 2826.39 1625.88C2806.16 1627.97 2788.25 1629.36 2771.64 1630.13C2708.27 1633.04 2657.1 1627.94 2610.58 1614.06C2547.27 1595.18 2489.98 1558.29 2434.58 1522.62C2383.58 1489.78 2330.87 1455.83 2273.7 1436.13C2268.7 1434.41 2263.7 1432.8 2258.7 1431.33C2153.97 1400.4 2037.7 1417.16 1903.39 1482.56C1867.92 1499.83 1828.81 1521.12 1783.81 1547.65C1777.14 1551.57 1770.48 1555.51 1763.81 1559.47C1699.81 1597.47 1633.71 1636.71 1562.33 1653.41C1533.22 1660.2 1503.38 1663.39 1473.49 1662.93C1422.49 1662.16 1366.99 1650.55 1303.81 1627.43C1266.39 1613.59 1230.13 1597.43 1191.74 1580.22C1147.86 1560.6 1102.48 1540.31 1054.91 1523.73C900.29 1469.55 733.64 1476.86 591.01 1491.15C292.22 1521.12 36.1497 1610 -170 1755.24Z" fill="#6D6E71"/>
<path d="M-209.379 1803.28L-209.969 1802.47C-17.2988 1661.47 220.451 1568.37 496.671 1525.71C633.981 1504.51 812.111 1487.88 972.251 1548.03C1026.25 1568.19 1076.66 1594.19 1125.45 1619.33C1158.45 1636.33 1189.71 1652.44 1222.05 1666.92C1286.62 1695.62 1341.05 1710.87 1393.4 1714.92C1423.91 1717.34 1454.61 1715.72 1484.69 1710.09C1567.57 1694.4 1643.86 1646.24 1711.18 1603.75C1750.4 1579.2 1790.96 1553.81 1830.69 1531.38C1893.69 1495.81 1950.33 1472.11 2003.89 1458.94C2070.12 1442.65 2133.34 1442.52 2191.77 1458.55C2196.89 1459.96 2202.1 1461.55 2207.25 1463.22C2266.37 1482.63 2320.18 1518.38 2372.25 1552.96C2428.15 1590.09 2485.94 1628.49 2550.54 1646.82C2597.41 1660.13 2649.79 1663.82 2715.37 1658.34C2732.12 1656.94 2749.87 1654.94 2771.2 1652.04C2899.14 1634.7 3084.44 1595.04 3240.61 1504.73L3241.11 1505.59C3084.77 1596 2899.34 1635.69 2771.31 1653C2749.95 1655.9 2732.19 1657.91 2715.42 1659.3C2649.72 1664.76 2597.23 1661.09 2550.23 1647.75C2485.49 1629.38 2427.63 1590.94 2371.67 1553.75C2319.67 1519.21 2265.93 1483.5 2206.94 1464.13C2201.8 1462.44 2196.61 1460.88 2191.51 1459.48C2085.21 1430.31 1970.71 1453.42 1831.18 1532.21C1791.47 1554.63 1750.92 1580.01 1711.71 1604.55C1644.32 1647.09 1567.94 1695.3 1484.88 1711.03C1454.71 1716.68 1423.92 1718.31 1393.32 1715.88C1340.87 1711.81 1286.32 1696.53 1221.64 1667.79C1189.28 1653.29 1158.05 1637.2 1124.99 1620.16C1076.23 1595.04 1025.81 1569.06 971.901 1548.91C812.001 1488.9 634.001 1505.52 496.831 1526.7C220.761 1569.33 -16.8388 1662.38 -209.379 1803.28Z" fill="#6D6E71"/>
<path d="M-248.765 1851.68L-249.375 1850.89C-67.375 1711.95 151.925 1614.63 402.325 1561.62C530.555 1534.47 720.525 1506.18 889.155 1573.62C948.275 1597.16 1002.49 1628.93 1054.93 1659.62C1082.67 1675.88 1111.34 1692.69 1139.82 1707.62C1205.2 1741.79 1260.29 1761.04 1313.18 1768.2C1344.37 1772.61 1376.02 1772.56 1407.18 1768.03C1492.34 1755.45 1568.41 1708.25 1639.02 1661.03C1654.02 1651.03 1669.11 1640.87 1683.68 1631.03C1709.5 1613.61 1733.89 1597.16 1758.38 1581.41C1822.38 1540.23 1879.39 1512.19 1932.65 1495.69C2001.2 1474.46 2063.96 1471.63 2124.52 1487.05C2129.78 1488.39 2135.12 1489.91 2140.42 1491.56C2201.33 1510.63 2256.13 1548.12 2309.12 1584.38C2365.62 1623.04 2424.04 1663.02 2490.12 1680.85C2538.22 1693.85 2590.31 1696.01 2659.04 1687.85C2675.66 1685.85 2693.75 1683.23 2716.04 1679.5C2903.97 1648.12 3066.35 1598.29 3198.67 1531.4L3199.12 1532.29C3130.23 1567.12 3051.73 1597.79 2965.83 1623.43C2888.26 1646.59 2804.27 1665.78 2716.21 1680.49C2693.93 1684.22 2675.81 1686.87 2659.21 1688.85C2590.35 1697.01 2538.13 1694.85 2489.9 1681.85C2423.67 1663.97 2365.19 1623.95 2308.62 1585.24C2255.7 1549.02 2200.96 1511.57 2140.19 1492.55C2134.91 1490.9 2129.58 1489.38 2124.33 1488.05C1983.78 1452.25 1848.51 1524.68 1758.99 1582.28C1734.52 1598.03 1710.13 1614.48 1684.32 1631.89C1669.75 1641.72 1654.68 1651.89 1639.64 1661.89C1568.94 1709.22 1492.77 1756.48 1407.41 1769.09C1376.15 1773.63 1344.41 1773.69 1313.14 1769.26C1260.14 1762.08 1204.92 1742.8 1139.44 1708.58C1110.93 1693.58 1082.24 1676.77 1054.49 1660.51C1002.09 1629.8 947.915 1598.04 888.865 1574.51C720.485 1507.18 530.715 1535.45 402.615 1562.51C152.275 1615.57 -66.855 1712.84 -248.765 1851.68Z" fill="#6D6E71"/>
<path d="M-288.151 1900.35L-288.781 1899.57C-200.032 1828.64 -104.075 1767.23 -2.49124 1716.35C96.8477 1666.7 200.85 1626.98 307.999 1597.78C399.889 1572.68 481.699 1559.41 558.079 1557.2C650.149 1554.55 733.589 1568.76 806.079 1599.45C869.469 1626.2 926.519 1663.78 981.689 1700.12C1006.47 1716.45 1032.1 1733.33 1057.63 1748.74C1123.39 1788.26 1179.11 1811.5 1233 1821.88C1264.81 1828.25 1297.41 1829.76 1329.68 1826.38C1417.68 1816.81 1495.68 1768.94 1566.85 1718.64C1591.96 1700.99 1616.72 1682.72 1640.66 1665.06C1656.33 1653.51 1671.12 1642.6 1686.08 1631.78C1751.8 1584.28 1807.51 1552.78 1861.39 1532.78C1931.26 1506.78 1995.33 1501.27 2057.25 1515.88C2062.65 1517.16 2068.15 1518.62 2073.59 1520.24C2136.26 1538.95 2192 1578.17 2245.9 1616.1C2303.04 1656.3 2362.12 1697.87 2429.68 1715.23C2492.19 1731.3 2554.99 1725 2602.68 1717.73C2623.99 1714.47 2644.93 1710.46 2660.79 1707.32C2850.59 1669.86 3017.42 1619.77 3156.63 1558.42L3157.03 1559.34C3017.75 1620.71 2850.86 1670.83 2661.03 1708.34C2645.16 1711.48 2624.21 1715.5 2602.88 1718.75C2555.06 1726.05 2492.13 1732.35 2429.44 1716.24C2361.7 1698.83 2302.54 1657.24 2245.33 1616.95C2191.5 1579.07 2135.82 1539.9 2073.33 1521.24C2067.91 1519.63 2062.44 1518.17 2057.05 1516.9C1916.58 1483.75 1785.34 1561.33 1686.69 1632.63C1671.69 1643.43 1656.95 1654.34 1641.29 1665.9C1617.29 1683.56 1592.57 1701.83 1567.46 1719.48C1496.19 1769.86 1418.07 1817.81 1329.82 1827.41C1297.44 1830.8 1264.74 1829.28 1232.82 1822.9C1178.82 1812.49 1122.99 1789.21 1057.12 1749.62C1031.58 1734.2 1005.94 1717.32 981.119 1700.98C925.989 1664.67 868.979 1627.11 805.669 1600.4C672.829 1544.16 510.119 1543.63 308.249 1598.78C87.0788 1659.16 -113.581 1760.64 -288.151 1900.35Z" fill="#6D6E71"/>
<path d="M-327.54 1949.2L-328.18 1948.44C-157.18 1804.03 25.1103 1698.28 213.66 1634.14C303.53 1603.57 389.53 1586.14 469.26 1582.3C563.26 1577.78 648.62 1592.3 722.98 1625.48C789.98 1655.3 849.17 1698.67 906.41 1740.62C928.91 1757.1 952.18 1774.15 975.41 1789.97C1041.47 1834.83 1097.83 1862.07 1152.79 1875.68C1186.45 1884.1 1219.89 1887.18 1252.17 1884.85C1346.54 1878.03 1427.72 1826.2 1494.68 1776.4C1525.57 1753.52 1555.6 1729.24 1584.68 1705.77C1594.26 1698.02 1604.17 1690.01 1613.8 1682.3C1679.91 1629.05 1735.94 1593.3 1790.1 1569.97C1861.24 1539.26 1926.64 1531.05 1990.02 1544.88C1995.57 1546.09 2001.21 1547.51 2006.78 1549.09C2071.18 1567.42 2127.84 1608.35 2182.63 1647.94C2240.43 1689.69 2300.2 1732.87 2369.29 1749.76C2432.76 1765.29 2497.29 1756.85 2546.43 1747.76C2567.24 1743.91 2588.06 1739.3 2605.68 1735.3C2797.4 1691.84 2968.68 1641.48 3114.73 1585.62L3115.09 1586.55C2968.98 1642.43 2797.66 1692.81 2605.9 1736.28C2588.27 1740.28 2567.44 1744.89 2546.61 1748.75C2497.38 1757.85 2432.71 1766.31 2369.05 1750.75C2299.77 1733.81 2239.92 1690.57 2182.05 1648.75C2127.33 1609.21 2070.74 1568.33 2006.5 1550.05C2000.95 1548.47 1995.34 1547.05 1989.81 1545.86C1846.81 1514.66 1714.08 1602.86 1614.43 1683.08C1604.8 1690.79 1594.89 1698.8 1585.3 1706.54C1556.3 1730.03 1526.21 1754.31 1495.3 1777.2C1428.22 1827.09 1346.89 1879.01 1252.3 1885.85C1219.91 1888.18 1186.37 1885.09 1152.61 1876.65C1097.54 1863.01 1041.07 1835.73 974.91 1790.8C951.67 1774.96 928.4 1757.91 905.91 1741.42C848.71 1699.51 789.56 1656.17 722.66 1626.42C549.92 1549.36 350.74 1588.61 214.07 1635.11C25.5503 1699.19 -156.65 1804.87 -327.54 1949.2Z" fill="#6D6E71"/>
<path d="M-366.924 1998.19L-367.594 1997.44C-191.344 1839.11 -36.5938 1735.27 119.316 1670.64C206.676 1634.43 296.866 1612.45 380.136 1607.08C476.076 1600.89 563.466 1615.88 639.876 1651.65C709.966 1684.42 770.796 1733.54 829.616 1781.05C850.336 1797.78 871.746 1815.05 893.176 1831.33C959.456 1881.53 1016.46 1912.76 1072.57 1929.62C1107.15 1940.05 1141.49 1944.7 1174.65 1943.45C1275.17 1939.64 1359.91 1883.11 1422.51 1834.29C1458.87 1805.99 1493.71 1775.18 1527.39 1745.39L1541.46 1732.96C1608.15 1673.96 1664.51 1634.02 1718.82 1607.37C1752.76 1590.72 1786.2 1579.37 1818.23 1573.51C1853.82 1567.04 1888.97 1567.21 1922.72 1574C1928.41 1575.15 1934.19 1576.51 1939.9 1578.06C2006.02 1596 2063.58 1638.64 2119.24 1679.87C2177.72 1723.19 2238.24 1767.99 2308.83 1784.42C2373.33 1799.42 2439.57 1788.83 2490.08 1777.9C2509.21 1773.76 2528.08 1769.11 2550.46 1763.39C2746.86 1713.3 2917.69 1664.08 3072.73 1612.92L3073.04 1613.87C2918 1665 2747.13 1714.26 2550.71 1764.36C2528.29 1770.08 2509.43 1774.74 2490.29 1778.88C2439.68 1789.82 2373.29 1800.45 2308.6 1785.4C2237.76 1768.92 2177.21 1724.06 2118.65 1680.68C2063.06 1639.5 2005.57 1596.92 1939.65 1579.03C1933.96 1577.48 1928.2 1576.12 1922.53 1575.03C1777.32 1545.79 1642.96 1644.5 1542.13 1733.76L1528.06 1746.18C1494.37 1775.99 1459.52 1806.81 1423.13 1835.13C1360.42 1884.04 1275.51 1940.68 1174.69 1944.5C1141.43 1945.76 1106.98 1941.09 1072.29 1930.63C1016.07 1913.73 958.966 1882.45 892.586 1832.18C871.146 1815.92 849.716 1798.62 828.996 1781.88C770.226 1734.41 709.446 1685.32 639.466 1652.61C445.826 1561.97 230.706 1625.61 119.706 1671.61C-36.1437 1736.15 -190.764 1839.93 -366.924 1998.19Z" fill="#6D6E71"/>
<path d="M-406.31 2047.28L-407 2046.56C-276.28 1920.4 -141.12 1789.94 25 1707.24C110.61 1664.62 202.48 1638.43 290.66 1631.51C337.74 1627.82 383.66 1629.62 427.14 1636.86C472.128 1644.19 515.812 1658.02 556.82 1677.92C629.6 1713.54 691.67 1768.37 751.7 1821.39C771.01 1838.45 790.97 1856.08 810.99 1872.8C916.57 1961.02 1007.07 2002.16 1095.59 2002.16H1097.16C1243.73 2001.35 1362.37 1886.83 1467.04 1785.79L1469.18 1783.72C1571.18 1685.26 1707.28 1575.72 1855.48 1603.23C1931.09 1617.23 1994.48 1665.36 2055.87 1711.9C2115.05 1756.79 2176.24 1803.21 2248.44 1819.19C2332.07 1837.71 2418.8 1813.19 2495.32 1791.6L3030.8 1640.34L3031.07 1641.34L2495.59 1792.6C2437.99 1808.87 2374.59 1826.77 2311.05 1826.77C2289.93 1826.88 2268.86 1824.68 2248.22 1820.21C2175.81 1804.21 2114.53 1757.69 2055.22 1712.73C1993.97 1666.27 1930.64 1618.22 1855.22 1604.25C1707.46 1576.88 1571.63 1686.19 1469.8 1784.48L1467.65 1786.55C1414.18 1838.17 1358.88 1891.55 1297.85 1932.84C1228.41 1979.84 1162.74 2002.84 1097.09 2003.2C1047.34 2003.49 997.36 1990.77 944.28 1964.37C902.07 1943.37 858.28 1913.69 810.28 1873.61C790.28 1856.88 770.28 1839.24 750.97 1822.18C690.97 1769.18 628.97 1714.42 556.32 1678.86C407.25 1605.86 208.77 1616.86 25.39 1708.18C-140.53 1790.77 -275.64 1921.17 -406.31 2047.28Z" fill="#6D6E71"/>
<path d="M-380.814 2078.36L-381.484 2077.62C-303.954 2007.45 -232.484 1949.73 -162.814 1901.18C-81.4644 1844.45 -2.51437 1799.88 78.5456 1764.93C164.156 1728.02 253.646 1705.54 337.326 1699.93C432.656 1693.52 519.596 1708.29 595.726 1743.81C666.016 1776.58 726.726 1826.25 785.446 1874.29C805.276 1890.51 825.776 1907.29 846.296 1923.11C912.296 1973.99 1013.11 2041.3 1125.83 2038.29C1268.83 2034.49 1385.9 1924.17 1489.2 1826.84L1493.43 1822.84C1514.28 1803.2 1533.3 1786.17 1551.56 1770.84C1606.27 1724.73 1656.24 1691.91 1704.32 1670.52C1763.32 1644.29 1820.67 1635.27 1874.84 1643.73C1919.48 1650.68 1963.26 1669.09 2016.84 1703.4C2038.11 1717.02 2059.3 1732.08 2079.79 1746.63C2137.28 1787.47 2196.73 1829.69 2265.56 1845.93C2339.43 1863.35 2415.43 1847.27 2488.92 1831.72C2495.22 1830.39 2501.5 1829.05 2507.78 1827.72C2683.97 1791.01 2890.53 1744.16 3086.65 1674.96L3086.98 1675.91C2890.8 1745.12 2684.21 1791.99 2507.98 1828.7L2489.12 1832.7C2438.23 1843.47 2386.12 1854.5 2334.33 1854.5C2311.11 1854.66 2287.95 1852.11 2265.33 1846.92C2196.33 1830.63 2136.78 1788.35 2079.22 1747.46C2058.73 1732.91 2037.55 1717.86 2016.3 1704.26C1962.88 1670.02 1919.22 1651.66 1874.73 1644.73C1775.73 1629.27 1673.29 1669.59 1552.25 1771.61C1534 1786.99 1515 1804 1494.15 1823.61L1489.92 1827.61C1437 1877.38 1382.3 1928.92 1322.34 1969C1254.2 2014.57 1189.93 2037.55 1125.85 2039.25C1123.41 2039.32 1120.97 2039.36 1118.54 2039.35C1008.46 2039.35 910.385 1973.73 845.686 1923.86C825.156 1908.03 804.686 1891.25 784.816 1875.02C726.146 1827.02 665.486 1777.39 595.296 1744.67C452.686 1678.13 264.486 1685.84 78.9456 1765.83C-70.2244 1830.16 -216.314 1929.46 -380.814 2078.36Z" fill="#6D6E71"/>
<path d="M-355.319 2109.51L-355.969 2108.75C-283.219 2046.64 -205.152 1991.04 -122.669 1942.59C-41.4488 1895.17 43.8189 1855.04 132.131 1822.69C218.811 1790.9 303.491 1772.56 383.831 1768.18C476.611 1763.18 561.001 1777.11 634.661 1809.72C702.281 1839.61 761.461 1884.09 818.661 1927.1C839.191 1942.53 860.411 1958.48 881.661 1973.44C946.801 2019.34 1045.97 2079.76 1154.54 2074.44C1293.99 2067.64 1409.48 1961.49 1511.37 1867.83L1517.72 1862C1538.6 1842.83 1557.52 1826.26 1575.56 1811.35C1629.69 1766.59 1679.03 1734.5 1726.4 1713.27C1784.48 1687.27 1840.96 1677.44 1894.25 1684.16C1938.72 1689.74 1982.2 1706.09 2035.25 1737.16C2058.7 1750.89 2082.02 1766.36 2104.59 1781.33C2160.09 1818.14 2217.48 1856.21 2282.69 1872.58C2350.11 1889.49 2419.42 1878.97 2486.44 1868.81C2497.54 1867.12 2509.02 1865.38 2520.26 1863.81C2683.43 1840.9 2925.46 1799.98 3142.52 1709.55L3142.91 1710.47C2925.74 1800.95 2683.62 1841.88 2520.39 1864.8C2509.16 1866.38 2497.69 1868.12 2486.59 1869.8C2419.47 1879.98 2350.07 1890.5 2282.44 1873.55C2217.07 1857.13 2159.6 1819.02 2104.03 1782.16C2081.48 1767.16 2058.17 1751.74 2034.75 1738.03C1981.85 1707.03 1938.49 1690.69 1894.16 1685.13C1796.85 1672.87 1695.82 1713.21 1576.24 1812.13C1558.24 1827.02 1539.3 1843.58 1518.44 1862.73L1512.09 1868.57C1459.8 1916.63 1405.73 1966.33 1346.85 2005.25C1280.01 2049.43 1217.13 2072.39 1154.63 2075.44C1108.05 2077.72 1060.81 2068.69 1010.22 2047.86C970.371 2031.45 928.141 2007.37 881.121 1974.24C859.901 1959.24 838.671 1943.31 818.121 1927.88C760.941 1884.88 701.811 1840.46 634.301 1810.61C498.031 1750.28 319.831 1754.9 132.521 1823.61C-47.3787 1889.6 -206.939 1983.12 -355.319 2109.51Z" fill="#6D6E71"/>
<path d="M-329.823 2140.74L-330.453 2139.96C-190.903 2027.75 -26.8931 1945.31 185.707 1880.53C272.097 1854.21 354.337 1839.33 430.137 1836.31C520.437 1832.71 602.337 1845.97 673.587 1875.73C738.287 1902.73 795.677 1941.95 851.187 1979.91C872.647 1994.58 894.837 2009.76 916.967 2023.91C986.627 2068.25 1079.85 2118.2 1183.22 2110.76C1319.15 2100.97 1433.02 1998.94 1533.48 1908.92L1541.97 1901.31C1562.89 1882.61 1581.71 1866.51 1599.52 1852.08C1653.07 1808.66 1701.79 1777.31 1748.45 1756.23C1806.45 1730.04 1860.45 1719.76 1913.61 1724.8C1957.39 1728.92 2001.86 1743.66 2053.61 1771.18C2079.61 1784.97 2105.4 1800.92 2130.37 1816.34C2183.52 1849.18 2238.48 1883.14 2299.76 1899.49C2362.64 1916.22 2427.22 1910.01 2489.67 1903.99C2503.78 1902.63 2518.38 1901.23 2532.67 1900.12C2804.12 1879.12 3021.86 1828.12 3198.33 1744.35L3198.76 1745.25C3103.45 1790.51 2993.23 1826.91 2871.17 1853.44C2767.97 1875.87 2657.27 1891.44 2532.74 1901.12C2518.47 1902.22 2503.88 1903.63 2489.74 1904.99C2427.21 1910.99 2362.54 1917.24 2299.48 1900.45C2238.06 1884 2183 1850 2129.82 1817.16C2104.82 1801.75 2079.07 1785.81 2053.12 1772.03C2001.52 1744.57 1957.12 1729.87 1913.52 1725.76C1817.83 1716.69 1718.26 1757.06 1600.15 1852.83C1582.35 1867.24 1563.54 1883.34 1542.64 1902.03L1534.15 1909.63C1482.47 1955.93 1429.04 2003.81 1371.25 2041.57C1305.71 2084.39 1244.25 2107.34 1183.25 2111.73C1138.25 2114.97 1092.37 2107.78 1043.05 2089.73C1003.79 2075.38 963.537 2054.73 916.397 2024.73C894.247 2010.6 872.047 1995.42 850.587 1980.73C795.117 1942.8 737.767 1903.57 673.167 1876.66C541.247 1821.55 377.327 1823.18 185.957 1881.49C-26.4731 1946.23 -190.383 2028.61 -329.823 2140.74Z" fill="#6D6E71"/>
<path d="M-304.33 2172.07L-304.93 2171.28C-135.22 2042.09 56.9303 1983.04 239.29 1938.48C431.75 1891.48 586.55 1892.54 712.53 1941.85C773.95 1965.85 829.24 1999.85 882.71 2032.7C905.43 2046.7 928.92 2061.12 952.31 2074.41C1020.9 2113.3 1112.39 2156.72 1211.91 2147.1C1344.35 2134.31 1451.74 2040.58 1555.59 1949.95L1566.25 1940.65C1587.19 1922.42 1605.91 1906.78 1623.5 1892.83C1676.5 1850.76 1724.56 1820.13 1770.5 1799.21C1827.58 1773.21 1880.72 1762.21 1932.98 1765.46C1976.73 1768.16 2020.89 1780.79 2071.98 1805.19C2100.98 1818.99 2129.69 1835.49 2157.48 1851.45C2207.83 1880.37 2259.9 1910.27 2316.85 1926.39C2361.12 1938.89 2406.69 1937.01 2450.75 1935.2C2481.87 1933.93 2514.05 1932.61 2545.17 1936.44C2757 1962.54 3015.43 1905.22 3254.17 1779.16L3254.64 1780.04C3143.07 1838.95 3022.82 1884.62 2906.89 1912.11C2778.13 1942.63 2656.39 1951.11 2545.05 1937.43C2514.05 1933.61 2481.87 1934.93 2450.79 1936.2C2406.65 1938.02 2361 1939.89 2316.58 1927.35C2259.51 1911.19 2207.39 1881.27 2156.99 1852.35C2129.21 1836.35 2100.48 1819.91 2071.55 1806.12C2020.55 1781.77 1976.55 1769.18 1932.93 1766.49C1838.93 1760.6 1740.76 1801 1624.12 1893.64C1606.55 1907.58 1587.83 1923.21 1566.9 1941.43L1556.25 1950.73C1505.25 1995.28 1452.42 2041.34 1395.72 2077.96C1331.49 2119.44 1271.4 2142.39 1212.01 2148.12C1202.46 2149.04 1192.99 2149.49 1183.6 2149.48C1094.87 2149.48 1013.96 2110.55 951.82 2075.31C928.41 2062.01 904.91 2047.55 882.18 2033.58C828.75 2000.72 773.5 1966.74 712.18 1942.81C586.41 1893.58 431.81 1892.49 239.55 1939.48C57.2703 1984 -134.76 2043 -304.33 2172.07Z" fill="#6D6E71"/>
<path d="M-278.832 2203.53L-279.422 2202.71C-107.352 2078.42 89.4681 2034.27 292.868 1996.54C414.228 1974.04 593.808 1950.75 751.458 2008.08C809.128 2028.97 861.838 2057.7 912.818 2085.49C937.258 2098.81 962.528 2112.59 987.638 2125.07C1055.07 2158.48 1144.75 2195.33 1240.64 2183.59C1369.64 2167.8 1475.41 2077.93 1577.72 1991.03L1590.55 1980.13C1611.55 1962.38 1630.16 1947.2 1647.55 1933.73C1762.89 1844.06 1859.78 1803.57 1952.45 1806.28C1996.22 1807.51 2040.07 1818.02 2090.45 1839.36C2122.99 1853.08 2155.2 1870.26 2186.35 1886.87C2233.35 1911.87 2281.9 1937.8 2334.04 1953.45C2375.75 1965.91 2418.8 1966.21 2460.43 1966.45C2492.61 1966.67 2525.88 1966.9 2557.7 1972.88C2783.12 2015.2 3064.4 1955.88 3310.11 1814.08L3310.61 1814.94C3195.11 1881.58 3067.82 1931.83 2942.52 1960.25C2876.29 1975.25 2810.75 1984.18 2747.73 1986.74C2681.41 1989.44 2617.41 1985.1 2557.52 1973.86C2525.78 1967.86 2492.52 1967.67 2460.43 1967.45C2418.72 1967.17 2375.6 1966.87 2333.75 1954.36C2281.52 1938.69 2232.9 1912.77 2185.88 1887.71C2154.75 1871.11 2122.55 1853.95 2090.06 1840.24C2039.81 1818.95 1996.06 1808.47 1952.43 1807.24C1860.01 1804.54 1763.32 1844.96 1648.17 1934.48C1630.83 1947.94 1612.17 1963.11 1591.25 1980.86C1586.98 1984.47 1582.7 1988.1 1578.41 1991.75C1528.02 2034.56 1475.9 2078.83 1420.29 2114.33C1357.37 2154.49 1298.66 2177.46 1240.81 2184.54C1228.5 2186.04 1216.1 2186.79 1203.7 2186.78C1121.7 2186.78 1046.05 2155.05 987.278 2125.93C962.148 2113.43 936.868 2099.65 912.418 2086.33C861.478 2058.56 808.798 2029.85 751.198 2008.98C593.778 1951.73 414.378 1974.98 293.128 1997.49C89.7681 2035.23 -106.932 2079.35 -278.832 2203.53Z" fill="#6D6E71"/>
<path d="M-253.328 2235.13L-253.898 2234.3C-172.098 2178.1 -77.1784 2136.66 36.2816 2107.61C139.752 2081.11 249.572 2067.12 346.452 2054.77C401.452 2047.77 484.392 2038.58 568.352 2039.96C652.472 2041.34 725.102 2052.63 790.352 2074.47C843.582 2092.2 893.022 2115.65 940.842 2138.33C967.672 2151.06 995.422 2164.22 1022.93 2175.88C1089.07 2203.8 1176.83 2234.08 1269.26 2220.23C1394.81 2201.42 1498.99 2115.37 1599.75 2032.16C1604.76 2028.01 1609.76 2023.88 1614.75 2019.77C1636.08 2002.23 1654.09 1987.93 1671.42 1974.77C1785.24 1888.23 1880.66 1847.71 1971.72 1847.23H1973.72C2016.38 1847.23 2060.56 1855.88 2108.72 1873.67C2145.57 1887.21 2181.96 1905.23 2217.14 1922.67C2260.01 1943.89 2304.34 1965.83 2351.04 1980.67C2406.43 1998.2 2463.21 2002 2518.12 2005.67C2535.12 2006.8 2552.78 2007.98 2569.97 2009.55C2745.21 2025.55 3081.64 2026.04 3365.86 1849.25L3366.39 1850.1C3255.88 1918.84 3126.01 1967.2 2980.39 1993.84C2851.09 2017.5 2709.14 2023.28 2569.89 2010.55C2552.71 2008.98 2535.1 2007.8 2518.07 2006.66C2463.07 2002.99 2406.26 1999.19 2350.75 1981.66C2303.97 1966.8 2259.61 1944.84 2216.75 1923.6C2181.59 1906.19 2145.23 1888.19 2108.43 1874.67C2059.64 1856.67 2014.91 1848.01 1971.79 1848.29C1880.96 1848.77 1785.73 1889.23 1672.08 1975.63C1654.77 1988.77 1636.77 2003.06 1615.45 2020.63C1610.46 2024.74 1605.46 2028.87 1600.45 2033.02C1499.58 2116.32 1395.29 2202.46 1269.45 2221.31C1253.72 2223.65 1237.84 2224.81 1221.94 2224.79C1147.04 2224.79 1077.4 2200.04 1022.58 2176.89C995.052 2165.22 967.302 2152.06 940.452 2139.32C892.661 2116.66 843.252 2093.21 790.072 2075.51C644.752 2026.89 484.332 2038.29 346.582 2055.85C142.052 2081.83 -69.4484 2108.79 -253.328 2235.13Z" fill="#6D6E71"/>
<path d="M-227.841 2268.76L-228.391 2267.93C-144.791 2213.19 -47.3906 2175.17 69.3094 2151.72C173.179 2130.84 281.749 2123.27 386.749 2115.95L399.999 2115C542.499 2105 693.129 2101.51 829.289 2142.88C877.039 2157.3 922.159 2175.5 965.799 2193.1C997.449 2205.87 1027.34 2217.93 1058.27 2228.71C1122.95 2251.15 1208.66 2274.86 1297.96 2258.89C1420.11 2237.05 1522.68 2154.76 1621.87 2075.18C1627.61 2070.58 1633.33 2066 1639.04 2061.43C1660.42 2044.35 1678.33 2030.5 1695.41 2017.85C1807.7 1934.45 1901.66 1893.85 1991.11 1890.22C2034.57 1888.4 2079.11 1894.86 2127.11 1910.01C2169.24 1923.22 2210.72 1942.35 2250.82 1960.84C2288.62 1978.27 2327.71 1996.3 2368.15 2009.84C2422.63 2028.07 2478.42 2034.96 2532.37 2041.63C2548.82 2043.63 2565.82 2045.76 2582.37 2048.14C2893.49 2092.83 3199.37 2033.85 3421.67 1886.32L3422.23 1887.16C3363.37 1926.22 3298.1 1959.48 3228.23 1986C3161.84 2011.21 3090.67 2030.59 3016.7 2043.6C2877.6 2068.07 2727.36 2069.98 2582.21 2049.13C2565.63 2046.75 2548.63 2044.65 2532.21 2042.62C2478.21 2035.95 2422.37 2029.05 2367.8 2010.79C2327.3 1997.2 2288.19 1979.16 2250.37 1961.72C2210.29 1943.24 2168.84 1924.12 2126.77 1910.94C2078.83 1895.82 2034.47 1889.37 1991.11 1891.19C1901.87 1894.86 1808.11 1935.35 1695.96 2018.62C1678.9 2031.27 1660.96 2045.11 1639.62 2062.18C1633.91 2066.74 1628.19 2071.32 1622.46 2075.93C1523.17 2155.59 1420.46 2237.93 1298.1 2259.85C1278.12 2263.38 1257.87 2265.13 1237.59 2265.08C1170.47 2265.08 1107.92 2246.97 1057.9 2229.62C1026.9 2218.83 997.049 2206.77 965.379 2194C921.769 2176.41 876.669 2158.22 828.959 2143.8C692.959 2102.49 542.429 2106.01 400.029 2115.97L386.749 2116.9C176.189 2131.63 -41.6106 2146.82 -227.841 2268.76Z" fill="#6D6E71"/>
<path d="M1249.29 2305.36C1191.29 2305.36 1137.34 2293.36 1093.35 2281.55C1057.35 2271.78 1022.35 2260.15 985.405 2247.83C947.625 2235.25 908.555 2222.24 867.985 2211.29C721.745 2171.63 574.605 2158.84 453.685 2175.29C391.685 2183.72 327.875 2187.7 266.175 2191.54C106.295 2201.54 -59.035 2211.8 -202.345 2301.41L-202.875 2300.57C-138.465 2260.29 -64.175 2232.57 24.255 2215.71C103.145 2200.71 185.995 2195.53 266.115 2190.54C327.795 2186.7 391.585 2182.73 453.545 2174.3C516.755 2165.7 586.155 2164.89 659.835 2171.89C727.925 2178.35 798.045 2191.29 868.245 2210.33C908.845 2221.33 947.925 2234.33 985.725 2246.88C1022.72 2259.19 1057.64 2270.82 1093.61 2280.59C1156.61 2297.59 1240.08 2314.75 1326.68 2296.59C1445.46 2271.69 1546.43 2193.1 1644.07 2117.1C1650.51 2112.09 1656.93 2107.09 1663.34 2102.1C1684.77 2085.51 1702.58 2072.1 1719.41 2059.93C1830.14 1979.68 1922.65 1939.1 2010.52 1932.23C2054.24 1928.76 2098.4 1933.06 2145.52 1945.37C2194.27 1958.02 2242.07 1978.71 2288.29 1998.72C2319.72 2012.32 2352.22 2026.39 2385.29 2038.12C2440.06 2057.48 2496.07 2067.67 2550.23 2077.52C2564.9 2080.19 2580.07 2082.95 2594.88 2085.84C2913.62 2147.92 3243.62 2086.84 3477.62 1922.5L3478.19 1923.32C3416.95 1966.32 3348.79 2002.73 3275.63 2031.48C3205.63 2058.98 3130.75 2079.65 3053.02 2092.9C2983.24 2104.7 2912.6 2110.59 2841.83 2110.52C2758.88 2110.54 2676.12 2102.61 2594.69 2086.82C2579.88 2083.93 2564.7 2081.17 2550.06 2078.51C2495.86 2068.65 2439.81 2058.45 2384.96 2039.06C2351.85 2027.32 2319.34 2013.25 2287.9 1999.64C2241.71 1979.64 2193.95 1958.97 2145.27 1946.34C2098.27 1934.06 2054.2 1929.77 2010.6 1933.23C1922.92 1940.08 1830.59 1980.6 1720.01 2060.74C1703.18 2072.92 1685.36 2086.31 1663.94 2102.89C1657.54 2107.86 1651.12 2112.86 1644.68 2117.89C1546.95 2193.96 1445.9 2272.62 1326.89 2297.57C1301.36 2302.84 1275.35 2305.45 1249.29 2305.36Z" fill="#6D6E71"/>
<path d="M1255.49 2344.41C1217.27 2344.41 1175.82 2339.94 1128.75 2330.99C1084.75 2322.57 1041.89 2311.19 996.481 2299.14C967.481 2291.45 937.481 2283.49 906.951 2276.3C755.441 2240.41 620.951 2225.55 507.201 2232.13C451.011 2235.37 393.301 2235.67 337.481 2235.95C161.761 2236.85 -19.9394 2237.78 -176.839 2331.62L-177.359 2330.76C-106.849 2288.59 -25.3594 2261.51 71.8506 2247.95C158.521 2235.87 249.501 2235.4 337.481 2234.95C393.281 2234.67 450.981 2234.37 507.151 2231.13C620.981 2224.54 755.571 2239.42 907.151 2275.33C937.701 2282.52 967.691 2290.48 996.701 2298.17C1042.1 2310.17 1084.98 2321.59 1128.91 2330.01C1219.61 2347.26 1289.45 2347.83 1355.35 2331.86C1470.8 2303.86 1570.17 2228.92 1666.27 2156.43C1673.39 2151.06 1680.5 2145.73 1687.59 2140.43C1709.09 2124.3 1726.81 2111.35 1743.37 2099.67C1812.04 2051.16 1916.46 1985.12 2029.88 1971.89C2073.88 1966.71 2117.76 1968.83 2163.88 1978.38C2221.15 1990.16 2274.49 2012.17 2330.96 2035.47C2354.23 2045.07 2378.28 2055 2402.38 2064.01C2460.38 2085.69 2519.64 2100.01 2576.91 2113.78C2587.06 2116.23 2597.19 2118.68 2607.31 2121.15C2932.76 2200.97 3287.63 2137.81 3533.46 1956.3L3534.05 1957.1C3470.41 2004.1 3399.36 2043.67 3322.85 2074.75C3249.22 2104.65 3170.56 2126.75 3089.05 2140.27C2930.05 2166.73 2763.37 2160.46 2607.05 2122.12C2596.94 2119.64 2586.8 2117.18 2576.65 2114.75C2519.35 2100.93 2460.1 2086.64 2402.01 2064.95C2377.89 2055.95 2353.83 2045.95 2330.56 2036.4C2274.14 2013.11 2220.84 1991.12 2163.66 1979.4C2117.66 1969.87 2073.91 1967.75 2029.97 1972.92C1916.78 1986.13 1812.51 2052.08 1743.97 2100.53C1727.42 2112.2 1709.7 2125.15 1688.21 2141.27C1681.11 2146.6 1674 2151.95 1666.89 2157.32C1570.71 2229.87 1471.26 2304.88 1355.6 2332.92C1322.81 2340.75 1289.2 2344.61 1255.49 2344.41Z" fill="#6D6E71"/>
<path d="M1249 2384.32C1220.66 2384.21 1192.34 2382.57 1164.18 2379.4C1106.55 2373.08 1049.84 2361.47 989.799 2349.18C975.479 2346.24 960.679 2343.18 945.939 2340.28C818.759 2314.79 681.659 2300.52 560.709 2287.93C328.709 2263.78 65.7688 2236.41 -151.291 2360.8L-151.781 2359.94C-55.3213 2304.66 58.0087 2274.51 194.679 2267.77C318.129 2261.67 447.069 2275.09 560.839 2286.94C681.839 2299.53 818.939 2313.8 946.159 2339.3C960.909 2342.24 975.709 2345.3 990.029 2348.2C1050.03 2360.48 1106.73 2372.09 1164.32 2378.41C1250.32 2387.75 1320.15 2383.83 1384.13 2366.08C1496.29 2334.97 1594.13 2263.58 1688.7 2194.54C1696.46 2188.88 1704.21 2183.23 1711.95 2177.6C1733.55 2161.93 1751.18 2149.43 1767.44 2138.26C1835.08 2091.73 1937.9 2027.85 2049.35 2010.39C2093.41 2003.49 2138.27 2003.43 2182.35 2010.23C2250.95 2020.66 2314.35 2046.3 2381.42 2073.44C2393.89 2078.44 2406.8 2083.71 2419.57 2088.75C2488.79 2116.03 2559.24 2137.41 2619.83 2155.31C2723.98 2185.96 2831.99 2201.49 2940.55 2201.43C3177.38 2201.43 3409.37 2127.91 3589.4 1988.94L3590.01 1989.73C3459.79 2090.25 3299.01 2158.43 3124.95 2186.89C3063.5 2196.94 3001.34 2201.99 2939.08 2202C2830.42 2202 2722.28 2186.68 2619.5 2156.32C2558.88 2138.42 2488.41 2117.03 2419.15 2089.73C2406.38 2084.73 2393.47 2079.47 2380.99 2074.42C2313.99 2047.3 2250.63 2021.68 2182.15 2011.27C2138.17 2004.49 2093.4 2004.54 2049.44 2011.43C1938.2 2028.86 1835.51 2092.66 1767.95 2139.13C1751.69 2150.3 1734.07 2162.79 1712.48 2178.46C1704.74 2184.08 1696.99 2189.73 1689.23 2195.4C1594.56 2264.49 1496.68 2335.93 1384.34 2367.1C1342.64 2378.61 1298.45 2384.32 1249 2384.32Z" fill="#6D6E71"/>
</g>
</g>
<defs>
<clipPath id="clip0_1_9333">
<rect width="3000" height="2000" fill="white"/>
</clipPath>
</defs>
</svg>
