<svg width="802" height="506" viewBox="0 0 802 506" fill="none" xmlns="http://www.w3.org/2000/svg">
<g clip-path="url(#clip0_613_798)">
<rect width="802" height="506" fill="url(#paint0_linear_613_798)"/>
<mask id="mask0_613_798" style="mask-type:luminance" maskUnits="userSpaceOnUse" x="-467" y="-326" width="1735" height="1157">
<path d="M1268 -325.242H-466.156V830.863H1268V-325.242Z" fill="white"/>
</mask>
<g mask="url(#mask0_613_798)">
<path d="M434.265 11.6118C394.801 11.6118 353.089 4.67514 307.359 -9.48136C260.133 -24.083 212.9 -44.9044 167.222 -65.0437C108.209 -91.0561 47.1898 -117.959 -15.5289 -132.393C-173.748 -168.81 -346.175 -123.045 -465.467 -12.9381L-465.86 -13.3658C-407.575 -67.1247 -334.712 -106.744 -255.155 -127.866C-175.597 -148.988 -92.6873 -150.751 -15.4017 -132.959C47.3689 -118.508 108.417 -91.5994 167.459 -65.5697C258.578 -25.4009 352.806 16.1263 452.682 10.5192C548.477 5.14335 636.791 -43.0893 722.198 -89.7323C770.472 -116.092 820.381 -143.352 870.671 -162.209C897.741 -172.359 922.8 -179.354 947.28 -183.596C974.749 -188.36 1000.81 -189.562 1026.95 -187.273C1058.96 -184.475 1092.33 -175.983 1128.97 -161.312C1160 -148.896 1189.7 -133.687 1224.74 -114.733L1236.92 -108.126C1294.53 -76.8187 1354.11 -44.4477 1419.01 -32.008C1480.03 -20.3025 1563.52 -27.8808 1614.8 -84.2697L1615.23 -83.8825C1592.89 -59.3268 1561.78 -41.7367 1525.25 -33.0139C1491.87 -25.0425 1455.1 -24.4991 1418.88 -31.4473C1353.93 -43.9044 1294.31 -76.2984 1236.65 -107.623L1224.47 -114.23C1162.95 -147.538 1097.02 -180.573 1026.9 -186.706C918.332 -196.198 818.762 -141.821 722.47 -89.2294C637.011 -42.5575 548.633 5.70409 452.705 11.0915C446.616 11.4422 440.469 11.6156 434.265 11.6118Z" fill="white"/>
<path d="M409.403 37.1267C331.585 37.1267 257.375 9.89468 188.269 -20.1004C172.806 -26.8116 157.095 -33.8639 141.898 -40.6849C80.9073 -68.0672 17.8418 -96.3744 -47.3336 -110.889C-201.055 -145.122 -371.713 -97.912 -482.115 9.38023L-482.52 8.96405C-427.773 -44.2167 -357.869 -83.6052 -280.352 -104.878C-203.373 -126.005 -122.758 -128.277 -47.2064 -111.456C18.0268 -96.9293 81.1212 -68.6048 142.135 -41.2109C157.332 -34.3899 173.043 -27.3376 188.5 -20.6265C264.26 12.2416 346.227 41.8032 432.27 35.7279C526.961 29.0224 613.663 -19.6322 697.51 -66.6914C702.4 -69.4314 707.286 -72.1694 712.169 -74.9056C809.461 -129.306 898.071 -173.683 997.363 -165.66C1069.1 -160.041 1135.86 -125.682 1198.09 -90.9639C1202.28 -88.6285 1206.46 -86.2855 1210.65 -83.9347C1268.8 -51.3731 1328.94 -17.7015 1394.87 -5.14622C1473.42 9.81376 1550.57 -12.5857 1591.4 -62.2115L1591.85 -61.8416C1570.59 -36.0027 1539.82 -17.2217 1502.83 -7.50469C1468.83 1.41466 1431.45 2.43205 1394.73 -4.5566C1328.71 -17.135 1268.54 -50.8008 1210.33 -83.4145C1206.15 -85.7614 1201.96 -88.1025 1197.77 -90.4378C1135.6 -125.121 1068.9 -159.457 997.282 -165.064C898.152 -173.076 809.623 -128.734 712.418 -74.3853L697.764 -66.1712C613.854 -19.0831 527.094 29.6063 432.276 36.3174C424.634 36.8647 417.01 37.1344 409.403 37.1267Z" fill="white"/>
<path d="M384.465 62.6715C305.925 62.6715 231.374 34.8961 161.985 4.23047C146.753 -2.50384 131.273 -9.57922 116.319 -16.4176C53.4438 -45.1352 -11.5697 -74.8355 -79.1209 -89.3793C-230.68 -122.005 -395.396 -74.4771 -498.764 31.7111L-499.18 31.3064C-395.674 -75.0147 -230.75 -122.612 -79.0168 -89.9458C-11.3848 -75.3847 53.6403 -45.6728 116.538 -16.9436C131.51 -10.1052 146.99 -3.02988 162.204 3.70442C239.553 37.8846 323.336 68.481 411.848 60.9316C505.342 52.9661 590.367 3.91251 672.59 -43.5224C677.36 -46.2778 682.131 -49.0274 686.902 -51.7712C729.678 -76.3673 775.466 -101.888 823.051 -119.866C874.769 -139.41 922.106 -147.317 967.754 -144.04C1041.32 -138.768 1108.7 -103.183 1171.41 -67.1879L1184.31 -59.7657C1243.01 -25.9323 1303.71 9.05141 1370.71 21.7397C1436.72 34.2198 1523.32 19.9303 1567.99 -40.1119L1568.45 -39.7651C1548.28 -12.6487 1517.85 7.32302 1480.45 17.9996C1446.34 27.734 1407.34 29.2717 1370.62 22.3235C1303.51 9.60635 1242.77 -25.3716 1184.03 -59.2281C1179.72 -61.706 1175.42 -64.1801 1171.12 -66.6503C1108.48 -102.617 1041.16 -138.167 967.72 -143.433C869.11 -150.497 778.755 -103.854 687.191 -51.2394L672.884 -42.9906C590.604 4.47903 505.527 53.5441 411.9 61.5443C402.716 62.3035 393.572 62.6792 384.465 62.6715Z" fill="white"/>
<path d="M359.974 88.2834C328.672 88.2834 296.053 83.8035 261.127 74.7627C224.183 65.196 185.512 50.9528 135.724 28.5648C120.643 21.7785 105.313 14.6569 90.4916 7.75493C25.8133 -22.3038 -41.0616 -53.351 -110.913 -67.8774C-260.213 -98.9304 -418.98 -51.0792 -515.388 54.028L-515.81 53.635C-468.074 1.57559 -404.067 -37.391 -330.729 -58.9928C-258.866 -80.161 -182.817 -83.4328 -110.821 -68.4555C-40.8766 -53.9175 26.004 -22.8356 90.7112 7.21735C105.532 14.102 120.857 21.2236 135.938 28.0272C211.16 61.8491 300.336 95.2027 391.437 86.1388C483.659 76.9709 566.934 27.5532 647.468 -20.2228L661.642 -28.6277C751.344 -81.6293 839.982 -128.683 938.159 -122.411C971.975 -120.249 1007.02 -111.376 1045.31 -95.2829C1080.37 -80.5483 1113.82 -61.6402 1144.74 -43.3969C1149.14 -40.8072 1153.54 -38.206 1157.93 -35.5932C1217.22 -0.516986 1278.5 35.7847 1346.6 48.5712C1414.32 61.2883 1501.81 45.6116 1544.62 -18.0898L1545.1 -17.7718C1526.02 10.6105 1495.96 31.7788 1458.08 43.4381C1423.39 54.1205 1383.78 56.1552 1346.51 49.1435C1278.3 36.3338 1216.98 0.00903948 1157.67 -35.125C1153.28 -37.7301 1148.88 -40.3313 1144.48 -42.9287C1081.21 -80.2419 1013.17 -117.07 938.147 -121.862C840.144 -128.128 751.581 -81.1148 661.96 -28.1537C657.235 -25.3636 652.51 -22.5639 647.786 -19.7546C567.199 28.0677 483.868 77.5143 391.512 86.6995C381.119 87.7362 370.606 88.2641 359.974 88.2834Z" fill="white"/>
<path d="M335.601 113.869C304.594 113.869 272.252 109.442 237.644 100.511C188.371 87.7935 140.867 67.209 109.415 52.8329C94.3857 45.9656 79.1598 38.7688 64.4079 31.8091C-1.99298 0.467101 -70.6771 -31.9501 -142.743 -46.4014C-287.476 -75.4485 -443.908 -26.129 -532.061 76.3191L-532.495 75.9434C-488.181 24.4274 -427.116 -14.3137 -355.911 -36.0947C-321.495 -46.5936 -285.923 -52.8369 -249.989 -54.6849C-214.02 -56.5991 -177.954 -54.0106 -142.627 -46.9794C-70.4748 -32.5281 -1.77907 -0.0704726 64.6565 31.2831C79.4026 38.2197 94.6516 45.4396 109.658 52.3068C186.492 87.4293 277.634 121.904 371.047 111.303C461.934 100.985 543.405 51.2374 622.188 3.12614C626.936 0.23203 631.675 -2.65823 636.408 -5.54464C675.276 -29.1754 720.676 -55.9566 767.672 -74.7259C817.876 -94.8017 863.97 -103.339 908.595 -100.831C943.001 -98.9 978.609 -89.9056 1017.45 -73.327C1053.18 -58.0838 1086.94 -38.5283 1118.1 -19.6664L1131.56 -11.487C1191.4 24.8956 1253.27 62.5037 1322.47 75.4289C1389.74 87.9784 1480.62 70.9663 1521.23 3.96433L1521.72 4.26492C1503.76 33.9074 1474.01 56.2607 1435.69 68.92C1400.48 80.5447 1360.23 83.0592 1322.39 75.9954C1253.08 63.0702 1191.17 25.4158 1131.28 -10.9957C1126.79 -13.7241 1122.31 -16.4486 1117.82 -19.1693C1056.74 -56.1647 985.17 -95.952 908.566 -100.258C811.182 -105.721 724.405 -58.3381 636.714 -5.03595L622.494 3.63483C543.654 51.7808 462.131 101.563 371.117 111.892C359.325 113.223 347.467 113.884 335.601 113.869Z" fill="white"/>
<path d="M311.602 139.489C229.715 139.489 150.967 108.615 83.1324 77.1168C68.1319 70.1455 52.8945 62.8447 38.1599 55.7809C-29.9057 23.1557 -100.284 -10.5795 -174.563 -24.9441C-316.926 -52.494 -467.312 -2.84515 -548.725 98.5914L-549.17 98.2272C-508.261 47.2431 -450.138 8.71014 -381.09 -13.2558C-314.283 -34.3786 -243.277 -38.5894 -174.442 -25.5105C-100.116 -11.1344 -29.6976 22.6181 38.3969 55.2549C53.1314 62.3187 68.3689 69.6253 83.3636 76.5966C161.863 113.014 255.005 148.662 350.632 136.471C440.12 125.06 519.729 75.0069 596.726 26.6008C601.535 23.5757 606.341 20.5583 611.143 17.5486C658.115 -11.8396 697.995 -34.9444 739.967 -52.2166C789.414 -72.564 834.889 -81.414 878.994 -79.2752C957.24 -75.4774 1029.67 -34.268 1091.42 4.05105C1095.99 6.8835 1100.55 9.72749 1105.13 12.5831C1165.54 50.2547 1228.02 89.2039 1298.33 102.239C1369.61 115.453 1461.02 93.4873 1497.84 25.9708L1498.35 26.2482C1481.5 57.1451 1452.1 80.6949 1413.3 94.3485C1377.56 106.933 1336.7 109.956 1298.27 102.805C1227.84 89.753 1165.32 50.7808 1104.86 13.0744C1100.29 10.2266 1095.72 7.38254 1091.16 4.54238C1029.47 -33.742 957.112 -74.9051 879.012 -78.6971C782.35 -83.3793 693.85 -33.4819 611.495 18.0341C606.694 21.0438 601.888 24.0632 597.078 27.0922C519.995 75.5272 440.322 125.615 350.724 137.043C337.748 138.686 324.681 139.503 311.602 139.489Z" fill="white"/>
<path d="M287.288 165.167C256.75 165.167 224.859 160.814 190.754 152.051C151.221 141.888 108.67 125.79 56.8651 101.373C41.8358 94.2685 26.5232 86.8347 11.7366 79.638C-57.9591 45.7757 -129.973 10.7341 -206.345 -3.48594C-346.372 -29.5561 -490.643 20.4165 -565.35 120.865L-565.818 120.518C-528.309 70.0943 -473.133 31.7232 -406.247 9.53181C-341.759 -11.6252 -273.001 -16.3051 -206.241 -4.08131C-129.794 10.1503 -57.7221 45.2092 11.9736 79.1119C26.7544 86.3029 42.0324 93.7424 57.0964 100.841C137.301 138.64 232.472 175.41 330.232 161.6C418.269 149.154 495.982 98.8235 571.141 50.1515C576.066 46.9607 580.985 43.7775 585.899 40.6021C666.491 -11.3127 753.227 -61.6669 849.415 -57.7361C929.152 -54.4701 1002.39 -11.8966 1064.77 27.752C1069.39 30.6924 1074.03 33.652 1078.69 36.6309C1139.7 75.5858 1202.77 115.87 1274.21 129.027C1347.41 142.507 1439.7 118.992 1474.45 47.9607L1474.97 48.215C1466.92 64.6606 1455.28 79.2738 1440.35 91.6614C1426.33 103.292 1409.72 112.749 1390.91 119.761C1354.66 133.299 1313.18 136.79 1274.1 129.587C1202.56 116.414 1139.42 76.1003 1078.38 37.0991C1073.73 34.1279 1069.09 31.1683 1064.46 28.2202C1002.14 -11.3879 928.99 -53.921 849.421 -57.1754C753.395 -61.1004 666.756 -10.7925 586.239 41.0934L571.488 50.6371C496.277 99.3495 418.506 149.715 330.342 162.201C316.078 164.198 301.691 165.189 287.288 165.167Z" fill="white"/>
<path d="M263.299 190.894C232.946 190.894 201.193 186.564 167.29 177.864C126.775 167.46 83.3283 150.881 30.5637 125.661C15.4014 118.406 0.00208609 110.805 -14.8943 103.452C-86.093 68.3178 -159.696 31.9872 -238.15 17.9637C-373.576 -6.26247 -514.996 45.2015 -581.998 143.124L-582.478 142.8C-548.338 92.9082 -496.123 54.7163 -431.416 32.3514C-370.512 11.293 -301.839 5.98068 -238.046 17.3914C-159.534 31.4323 -85.8734 67.7802 -14.64 102.943C0.256395 110.29 15.6557 117.892 30.818 125.14C112.763 164.309 210.014 202.264 309.826 186.778C396.367 173.356 472.149 122.77 545.441 73.8498C550.512 70.4624 555.581 67.0827 560.649 63.7107C599.147 38.1551 640.813 11.8826 684.583 -7.20469C732.527 -28.1071 776.76 -37.5755 819.848 -36.142C901.052 -33.4425 975.101 10.5126 1038.13 51.4965C1042.83 54.5563 1047.54 57.6393 1052.25 60.7453C1113.85 100.995 1177.54 142.615 1250.1 155.898C1323.46 169.321 1418.83 143.794 1451.09 70.0289L1451.62 70.26C1444.16 87.3241 1432.87 102.573 1418.09 115.579C1404.22 127.788 1387.54 137.771 1368.58 145.251C1349.86 152.557 1330.2 157.179 1310.19 158.98C1290.12 160.901 1269.87 160.055 1250.03 156.465C1177.35 143.17 1113.61 101.51 1051.96 61.2251C1047.26 58.1421 1042.55 55.0708 1037.84 52.011C974.881 11.0675 900.914 -32.8355 819.859 -35.535C724.481 -38.7085 639.692 12.004 561.019 64.2194L545.81 74.3585C472.473 123.314 396.638 173.934 309.965 187.379C294.524 189.752 278.922 190.927 263.299 190.894Z" fill="white"/>
<path d="M239.414 216.612C209.21 216.612 177.562 212.306 143.838 203.652C102.375 193.022 58.0267 175.94 4.2794 149.893C-11.0505 142.46 -26.6175 134.673 -41.6757 127.136C-114.354 90.7702 -189.513 53.1449 -269.948 39.3757C-402.976 16.5715 -538.165 68.3765 -598.646 165.356L-599.138 165.05C-568.339 115.69 -519.049 77.6658 -456.578 55.0929C-398.132 33.9651 -331.817 28.1846 -269.868 38.8092C-189.351 52.613 -114.152 90.2558 -41.433 126.621C-26.4036 134.136 -10.7963 141.939 4.51635 149.373C83.3511 187.565 186.979 229.185 289.404 211.889C374.424 197.536 448.258 146.737 519.647 97.5913C524.904 93.9804 530.153 90.3733 535.394 86.7702C572.84 61.1509 613.471 34.7455 656.889 15.2651C704.081 -5.92049 747.706 -15.6953 790.234 -14.597C872.895 -12.4756 947.753 32.8668 1011.44 75.2033C1016.2 78.3633 1020.97 81.5426 1025.74 84.7412C1087.94 126.292 1152.25 169.252 1225.95 182.657C1302.36 196.565 1398.71 166.472 1427.69 91.9958L1428.23 92.2039C1421.35 109.886 1410.42 125.766 1395.74 139.402C1381.99 152.177 1365.3 162.686 1346.14 170.617C1309.45 185.848 1265.61 190.438 1225.86 183.207C1152.04 169.778 1087.68 126.777 1025.44 85.1979C1020.66 82.007 1015.89 78.8277 1011.13 75.66C947.499 33.3697 872.704 -11.9033 790.222 -14.0306C695.508 -16.4642 609.199 36.9652 535.717 87.2383C530.473 90.83 525.226 94.4371 519.977 98.0595C448.536 147.246 374.66 198.115 289.513 212.485C272.958 215.26 256.2 216.64 239.414 216.612Z" fill="white"/>
<path d="M215.615 242.381C185.556 242.381 154.024 238.092 120.398 229.473C77.9983 218.606 32.7483 201.027 -22.0048 174.165C-37.5486 166.529 -53.341 158.523 -68.6073 150.777C-142.719 113.204 -219.358 74.3355 -301.753 60.8322C-432.318 39.4443 -561.246 91.5672 -615.289 187.616L-615.797 187.333C-601.768 162.402 -582.675 140.181 -559.044 121.285C-536.708 103.423 -510.696 88.8099 -481.741 77.85C-425.739 56.6528 -361.79 50.4041 -301.661 60.2599C-219.178 73.7806 -142.5 112.66 -68.3472 150.263C-53.0808 158.008 -37.2942 166.009 -21.7504 173.645C58.8012 213.172 164.642 256.092 269.01 237.046C352.481 221.808 424.321 170.772 493.797 121.435C499.246 117.581 504.693 113.728 510.138 109.874C581.944 59.202 666.449 5.27557 760.649 6.98082C797.997 7.65714 836.374 17.2413 878.063 36.2823C916.943 54.0516 953.822 77.9021 984.777 98.9374C989.59 102.209 994.407 105.496 999.228 108.799C1062.02 151.644 1126.98 195.952 1201.8 209.49C1280.29 223.687 1377.48 191.859 1404.27 114.025L1404.81 114.209C1398.52 132.511 1387.95 149.026 1373.4 163.286C1359.78 176.628 1343.07 187.668 1323.72 196.091C1286.55 212.276 1242.08 217.363 1201.69 210.056C1126.73 196.501 1061.75 152.159 998.905 109.279C994.072 105.976 989.255 102.689 984.453 99.4172C920.157 55.7684 844.536 9.07915 760.637 7.55888C666.582 5.8594 582.204 59.7223 510.468 110.342C505.03 114.196 499.585 118.05 494.132 121.903C424.604 171.298 352.706 222.369 269.114 237.629C251.461 240.825 233.555 242.415 215.615 242.381Z" fill="white"/>
<path d="M191.899 268.163C161.927 268.163 130.493 263.88 96.9601 255.284C53.6467 244.185 7.495 226.11 -48.287 198.404C-64.1025 190.542 -80.1666 182.287 -95.6873 174.31C-171.181 135.523 -249.241 95.4177 -333.538 82.2555C-441.634 65.3706 -578.829 103.782 -631.923 209.849L-632.443 209.589C-620.073 184.883 -602.535 162.796 -580.303 143.945C-559.383 126.199 -534.677 111.574 -506.89 100.591C-453.334 79.3133 -391.742 72.6078 -333.475 81.7122C-249.079 94.8917 -170.979 135.02 -95.4445 173.825C-79.9122 181.802 -63.8539 190.056 -48.0442 197.912C34.2473 238.792 142.337 283.042 248.589 262.192C330.493 246.122 400.345 194.883 467.896 145.333C473.561 141.174 479.218 137.032 484.868 132.904C518.528 108.389 558.702 80.5792 601.478 60.2029C647.144 38.4334 689.556 28.0747 731.043 28.5025C768.975 28.9013 807.924 38.5952 850.168 58.1392C889.608 76.3941 926.858 100.979 958.096 122.615C962.963 125.991 967.84 129.382 972.726 132.789C1036.13 176.94 1101.69 222.595 1177.67 236.26C1256.54 250.446 1356.66 216.144 1380.89 135.991L1381.47 136.159C1370.43 172.686 1341.97 202.988 1301.36 221.485C1263.74 238.613 1218.62 244.208 1177.59 236.827C1101.48 223.138 1035.87 177.449 972.42 133.263C967.537 129.856 962.661 126.465 957.79 123.089C892.811 78.0762 816.346 29.9765 731.06 29.0805H728.563C636.225 29.0805 554.569 82.8394 485.203 133.384C479.55 137.504 473.892 141.645 468.231 145.807C400.599 195.398 330.724 246.677 248.693 262.77C229.982 266.405 210.961 268.212 191.899 268.163Z" fill="white"/>
<path d="M168.534 293.886C80.3115 293.886 -5.88755 257.151 -74.5659 222.635C-90.7109 214.542 -107.093 205.993 -122.937 197.75C-199.76 157.772 -279.202 116.435 -365.355 103.666C-471.312 87.9606 -602.622 127.02 -648.601 232.069L-649.132 231.838C-638.421 207.357 -622.432 185.403 -601.611 166.593C-582.096 148.957 -558.696 134.372 -532.071 123.239C-480.954 101.851 -421.727 94.7238 -365.286 103.088C-279.04 115.875 -199.552 157.234 -122.683 197.23C-106.844 205.473 -90.4623 213.993 -74.3289 222.086C9.74877 264.342 120.11 309.95 228.183 287.25C308.532 270.388 376.372 218.953 441.993 169.212C447.877 164.753 453.75 160.321 459.612 155.916C492.33 131.303 531.481 103.314 573.783 82.5616C618.385 60.6534 659.849 49.9941 700.492 49.9941H701.452C739.95 50.0635 779.489 59.8557 822.264 79.9257C862.15 98.6372 899.827 123.962 931.406 146.269C936.328 149.737 941.255 153.228 946.187 156.743C1010.2 202.201 1076.39 249.231 1153.52 263.001C1234.84 277.55 1336.18 238.798 1357.48 157.934L1358.06 158.078C1348.14 195.808 1320.04 227.329 1278.94 246.85C1251.51 259.873 1220.1 266.677 1189.1 266.677C1177.15 266.696 1165.21 265.658 1153.44 263.573C1076.18 249.752 1009.93 202.71 945.875 157.211C940.939 153.708 936.012 150.217 931.094 146.737C865.341 100.29 787.945 50.7225 701.452 50.5722H700.509C612.738 50.5722 533.036 101.406 459.959 156.356C454.097 160.772 448.226 165.204 442.346 169.651C376.69 219.502 308.781 270.949 228.316 287.845C208.651 291.918 188.616 293.942 168.534 293.886Z" fill="white"/>
<path d="M169.25 320.965C139.423 320.965 108.081 316.687 74.6579 308.109C29.5699 296.548 -18.4085 277.472 -76.2888 247.991C-92.798 239.604 -109.556 230.777 -125.759 222.239C-203.865 181.082 -284.636 138.526 -372.587 126.207C-473.873 112.062 -602.201 152.526 -640.67 255.448L-641.213 255.252C-632.15 230.973 -617.716 209.169 -598.31 190.394C-580.194 172.868 -558.107 158.295 -532.655 147.081C-508.377 136.393 -481.966 129.115 -454.109 125.456C-427.027 121.853 -399.581 121.923 -372.517 125.664C-284.457 137.994 -203.64 180.579 -125.487 221.753C-109.301 230.291 -92.5379 239.095 -76.0287 247.506C9.85248 291.154 122.515 338.11 232.351 313.548C311.122 295.935 376.985 244.315 440.68 194.389C446.663 189.695 452.86 184.845 458.935 180.116C530.394 124.56 608.622 73.09 696.445 72.6796C735.528 72.4831 775.61 82.4025 818.993 102.97C859.52 122.184 897.521 148.196 929.348 171.105C934.316 174.677 939.287 178.269 944.262 181.879C1008.88 228.65 1075.71 277.01 1153.99 290.935C1237.49 305.779 1339.67 265.177 1358.7 181.064L1359.28 181.192C1340.18 265.628 1237.66 306.398 1153.9 291.501C1075.49 277.553 1008.61 229.153 943.933 182.348C938.958 178.741 933.988 175.149 929.025 171.573C862.907 123.982 785.09 73.2577 697.521 73.2577H696.463C608.813 73.6681 530.683 125.08 459.311 180.573C453.23 185.302 447.039 190.151 441.05 194.845C377.309 244.806 311.393 296.473 232.495 314.115C211.73 318.721 190.52 321.019 169.25 320.965Z" fill="white"/>
<path d="M179.25 333.171C146.469 333.171 111.93 328.089 74.5304 317.817C35.2575 307.037 -5.95181 290.955 -55.1614 267.215C-60.7627 264.51 -66.5143 261.7 -72.7457 258.619C-84.4859 252.839 -96.4458 246.804 -107.961 240.989C-183.859 202.762 -262.341 163.235 -347.176 150.812C-456.272 134.835 -593.756 173.524 -645.451 278.383L-645.971 278.123C-633.867 253.567 -616.49 231.607 -594.351 212.861C-573.541 195.242 -548.876 180.721 -521.025 169.703C-467.567 148.558 -405.802 141.645 -347.101 150.24C-262.173 162.68 -183.651 202.23 -107.712 240.48C-96.151 246.26 -84.2432 252.301 -72.503 258.105C-66.2715 261.186 -60.5257 263.995 -54.9244 266.7C17.7657 301.742 113.474 340.731 209.679 331.066C222.63 329.774 235.475 327.59 248.125 324.529C306.006 310.47 357.233 277.834 403.968 244.665C416.755 235.595 429.576 226.214 441.969 217.144C451.68 210.045 461.721 202.693 471.56 195.64C536.752 148.783 614.882 101.123 701.393 101.123C702.896 101.123 704.403 101.137 705.914 101.164C743.325 101.886 781.748 111.834 823.368 131.586C862.352 150.084 898.966 174.767 929.643 196.473C934.082 199.617 938.531 202.775 942.99 205.947C1005.73 250.532 1070.61 296.643 1146.26 310.233C1229.46 325.321 1332.93 285.863 1354.36 203.086L1354.94 203.23C1344.93 241.861 1316.28 274.094 1274.29 293.984C1246.43 307.176 1214.55 314.066 1183.05 314.066C1170.68 314.082 1158.34 312.991 1146.16 310.806C1070.39 297.187 1005.45 251.041 942.69 206.415C938.231 203.248 933.782 200.091 929.342 196.947C865.444 151.737 790.217 103.366 705.937 101.742C617.772 100.042 538.18 148.494 471.935 196.109C462.109 203.167 452.056 210.514 442.351 217.612C429.952 226.682 417.13 236.064 404.338 245.133C357.55 278.342 306.272 311.031 248.299 325.089C235.611 328.16 222.726 330.351 209.737 331.644C199.607 332.662 189.432 333.172 179.25 333.171Z" fill="white"/>
<path d="M213.724 346.749C183.833 346.749 152.364 342.564 118.45 334.125C80.1482 324.593 38.303 309.367 -9.48454 287.574C-14.9992 285.06 -20.6872 282.429 -26.8723 279.528C-40.0172 273.36 -53.3761 266.943 -66.2898 260.735C-139.754 225.474 -215.716 188.958 -297.204 176.548C-432.769 155.917 -567.802 207.676 -625.648 302.465L-626.139 302.158C-596.491 253.55 -547.622 215.965 -484.817 193.485C-426.595 172.634 -359.929 166.42 -297.106 175.987C-215.531 188.415 -139.529 224.919 -66.0296 260.226C-53.1159 266.429 -39.7571 272.845 -26.6122 279.013C-20.4328 281.903 -14.7448 284.545 -9.23595 287.06C56.662 317.118 155.387 355.726 250.974 343.928C263.617 342.372 276.141 339.968 288.461 336.732C344.364 322.015 392.678 291.129 441.344 258.076C448.94 252.926 456.605 247.671 464.015 242.602C478.698 232.549 493.883 222.156 508.751 212.387C569.446 172.334 650.634 126.87 739.943 130.882C775.678 132.489 812.43 142.477 852.304 161.42C889.727 179.201 924.965 202.566 954.498 223.069C958.383 225.767 962.271 228.464 966.163 231.162C1027.07 273.591 1090.03 317.471 1163.09 330.743C1245.67 345.998 1350.02 310.407 1374.6 226.306L1375.18 226.468C1363.97 264.816 1334.43 296.534 1292.02 315.772C1252.82 333.552 1205.81 339.217 1163.01 331.31C1089.83 318.014 1026.81 274.082 965.857 231.636C961.968 228.938 958.08 226.241 954.192 223.543C892.762 180.883 820.477 135.067 739.943 131.454C650.795 127.454 569.741 172.866 509.092 212.867C494.224 222.636 479.033 233.029 464.362 243.081C456.951 248.157 449.286 253.406 441.691 258.556C392.978 291.638 344.619 322.552 288.634 337.292C276.285 340.532 263.732 342.941 251.061 344.501C238.673 346.015 226.204 346.766 213.724 346.749Z" fill="white"/>
<path d="M247.929 360.546C221.009 360.546 192.714 357.2 162.377 350.46C124.498 342.043 83.2247 328.147 36.1943 307.967C30.674 305.597 25.0495 303.146 19.0089 300.452C4.22808 293.903 -10.7782 287.047 -25.2931 280.411C-96.0871 248.04 -169.292 214.606 -247.23 202.311C-391.385 179.57 -535.516 229.479 -605.877 326.592L-606.345 326.251C-570.633 276.983 -516.094 239.3 -448.635 217.271C-385.628 196.709 -314.088 191.2 -247.138 201.761C-169.101 214.068 -95.8848 247.543 -25.0503 279.908C-10.5412 286.544 4.46503 293.4 19.2458 299.949C25.2865 302.626 30.9051 305.077 36.4255 307.464C101.271 335.286 198.349 370.674 292.248 356.801C304.582 354.981 316.783 352.359 328.775 348.951C383.026 333.511 431.669 301.996 478.676 271.521L480.011 270.654C502.648 256.023 524.03 242.208 545.909 229.149C585.517 205.374 621.235 188.339 655.103 177.061C696.688 163.188 735.562 157.829 773.939 160.604C807.986 163.067 843.068 173.084 881.202 191.241C917.042 208.299 950.915 230.352 979.327 249.682L988.495 255.925C1047.81 296.354 1109.14 338.159 1179.89 351.303C1264.12 366.963 1367.53 333.199 1394.8 249.566L1395.35 249.745C1388.92 269.486 1377.84 287.25 1362.44 302.539C1348.06 316.817 1330.31 328.586 1309.68 337.528C1282.35 349.379 1251.24 355.529 1220.39 355.529C1206.77 355.548 1193.18 354.317 1179.79 351.853C1108.91 338.673 1047.53 296.834 988.171 256.376L979.032 250.139C920.036 210.004 850.664 166.72 773.933 161.171C683.04 154.604 600.454 197.097 546.238 229.635C524.359 242.687 502.983 256.503 480.341 271.128L479.028 271.977C431.946 302.493 383.28 334.031 328.955 349.494C316.937 352.914 304.708 355.542 292.346 357.361C277.639 359.51 262.793 360.575 247.929 360.546Z" fill="white"/>
<path d="M1239.32 375.444C1225.01 375.464 1210.73 374.152 1196.66 371.525C1128.19 358.6 1068.54 318.922 1010.85 280.494L1003.92 275.869C947.303 238.215 880.792 197.427 807.958 190.011C738.985 182.993 665.537 201.15 583.413 245.504C558.968 258.614 534.759 273.251 516.406 284.511C511.831 287.332 507.259 290.162 502.688 293.003C460.595 319.125 417.067 346.137 369.314 360.808C357.624 364.401 345.717 367.249 333.666 369.334C294.555 376.109 252.906 374.994 206.338 365.93C168.886 358.64 128.186 346.068 81.9127 327.495C76.4559 325.298 70.9297 323.027 64.9296 320.558C48.2932 313.622 31.4026 306.309 15.0841 299.228C-52.8196 269.748 -123.041 239.325 -197.217 227.249C-347.828 202.74 -504.088 251.99 -586.061 349.842L-586.506 349.472C-544.69 299.552 -484.486 261.765 -412.408 240.18C-377.693 229.869 -341.912 223.56 -305.764 221.376C-269.468 219.092 -233.031 220.868 -197.13 226.671C-122.88 238.764 -52.6173 269.227 15.3038 298.691C31.6338 305.772 48.5129 313.09 65.1434 320.021C71.1147 322.506 76.6698 324.784 82.1266 326.957C145.892 352.554 241.334 384.763 333.579 368.762C345.605 366.682 357.486 363.842 369.153 360.259C416.836 345.605 460.334 318.639 502.394 292.511C506.968 289.675 511.542 286.844 516.117 284.02C534.476 272.736 558.69 258.111 583.171 244.995C621.64 224.185 657.075 209.543 691.515 200.156C731.562 189.236 770.772 185.629 808.05 189.421C840.421 192.716 873.804 202.757 910.204 220.122C944.419 236.44 976.951 257.21 1004.26 275.366L1011.2 279.991C1068.83 318.356 1128.44 358.028 1196.78 370.93C1280.84 386.797 1385.48 354.108 1415.1 271.933L1415.64 272.129C1408.58 291.725 1396.98 309.275 1381.16 324.293C1366.39 338.305 1348.33 349.796 1327.46 358.444C1300.43 369.658 1269.78 375.444 1239.32 375.444Z" fill="white"/>
<path d="M1258.35 393.137C1243.3 393.164 1228.28 391.765 1213.49 388.958C1147.34 376.276 1089.35 338.668 1033.26 302.291L1028.76 299.401C974.477 264.191 910.793 225.861 841.964 216.658C772.084 207.317 699.671 221.236 620.57 259.22C600.252 268.885 578.372 280.55 553.765 294.886C545.019 299.996 536.163 305.291 527.596 310.447C490.167 332.899 451.467 356.113 409.674 369.986C398.311 373.752 386.728 376.819 374.991 379.172C355.294 383.059 335.261 384.986 315.185 384.923C260.785 384.923 199.725 371.773 127.619 344.864C122.243 342.859 116.596 340.702 110.855 338.454C92.1324 331.165 73.1434 323.367 54.7844 315.829C-9.99208 289.238 -76.9768 261.746 -147.193 249.977C-306.7 223.236 -471.179 270.706 -566.229 370.911L-566.645 370.518C-518.666 319.956 -452.82 282.076 -376.159 260.896C-302.585 240.59 -223.374 236.618 -147.1 249.405C-76.8149 261.191 -9.80132 288.712 55.0041 315.303C73.363 322.817 92.3463 330.633 111.075 337.922C116.856 340.171 122.486 342.321 127.839 344.327C227.449 381.501 305.954 392.392 374.892 378.611C386.606 376.262 398.166 373.201 409.506 369.443C451.259 355.616 489.936 332.413 527.336 309.979C535.903 304.84 544.759 299.528 553.51 294.418C578.159 280.07 600.02 268.405 620.356 258.729C657.19 241.04 693.353 228.387 727.839 221.115C766.875 212.884 805.298 211.201 842.08 216.115C911.024 225.364 974.772 263.706 1029.11 298.944L1033.62 301.863C1089.65 338.205 1147.6 375.79 1213.63 388.449C1296.41 404.317 1402.24 375.964 1435.34 292.163L1435.88 292.377C1428.19 311.84 1416.06 329.176 1399.83 343.911C1384.67 357.668 1366.3 368.877 1345.18 377.229C1318.51 387.715 1288.36 393.137 1258.35 393.137Z" fill="white"/>
<path d="M1277.63 411.265C1261.75 411.28 1245.91 409.766 1230.32 406.745C1166.38 394.288 1109.93 358.714 1055.34 324.303L1053.61 323.222C1001.58 290.406 940.621 254.48 875.96 243.601C806.304 231.878 732.88 241.867 657.716 273.203C634.958 282.796 612.724 293.588 591.107 305.534C578.535 312.47 565.887 319.875 553.655 327.037C520.597 346.39 486.41 366.402 449.982 379.391C438.943 383.327 427.683 386.608 416.258 389.218C378.922 397.733 338.99 398.895 294.179 392.773C257.554 387.767 218.004 377.848 173.268 362.443C167.933 360.61 162.355 358.639 156.678 356.581C135.631 348.968 114.301 340.708 93.6704 332.714C32.2639 308.921 -31.2352 284.319 -97.295 272.937C-265.884 243.89 -438.016 289.591 -546.511 392.213L-546.91 391.791C-492.787 340.598 -421.247 302.574 -340.036 281.816C-261.606 261.775 -177.638 258.509 -97.1967 272.365C-31.0791 283.758 32.4431 308.372 93.8784 332.176C114.498 340.165 135.822 348.431 156.886 356.038C162.557 358.09 168.135 360.084 173.47 361.899C271.335 395.594 348.447 404.097 416.142 388.652C427.544 386.042 438.782 382.761 449.797 378.825C486.173 365.853 520.319 345.876 553.372 326.511C565.609 319.349 578.263 311.944 590.841 305.002C612.473 293.04 634.725 282.235 657.502 272.631C732.77 241.225 806.304 231.248 876.064 242.988C940.835 253.885 1001.83 289.845 1053.92 322.696L1055.66 323.777C1110.2 358.154 1166.6 393.721 1230.44 406.138C1313.1 422.237 1420.11 394.918 1455.54 312.569L1456.08 312.8C1447.76 332.118 1435.11 349.217 1418.47 363.703C1402.92 377.2 1384.22 388.131 1362.87 396.19C1341.85 404.019 1319.82 408.822 1297.44 410.456C1290.82 410.999 1284.22 411.269 1277.63 411.265Z" fill="white"/>
<path d="M1297.28 429.913C1280.46 429.919 1263.67 428.283 1247.16 425.029C1185.25 412.774 1130.97 379.628 1078.49 347.57C1026.27 315.661 970.245 283.469 909.995 271.059C839.178 256.48 766.812 262.082 694.902 287.718C672.146 295.894 649.962 305.579 628.495 316.707C612.408 325.049 596.373 334.298 580.864 343.246C551.874 359.957 521.902 377.247 490.347 389.345C479.636 393.464 468.698 396.969 457.588 399.843C421.136 409.236 382.066 411.543 338.14 406.878C301.925 403.04 262.947 394.444 218.986 380.611C213.668 378.935 208.153 377.143 202.592 375.293C178.961 367.426 155.053 358.703 131.931 350.263C74.126 329.182 14.4074 307.383 -47.265 296.504C-222.461 265.532 -406.16 310.597 -526.672 414.115L-527.048 413.676C-466.717 361.853 -389.512 323.69 -303.781 303.326C-220.496 283.533 -131.759 280.978 -47.1609 295.938C14.5693 306.846 74.3398 328.656 132.139 349.743C155.261 358.177 179.164 366.9 202.789 374.773C208.344 376.623 213.853 378.409 219.171 380.079C315.278 410.329 390.997 416.433 457.455 399.305C468.546 396.438 479.464 392.938 490.156 388.825C521.671 376.744 551.62 359.472 580.586 342.766C596.101 333.818 612.142 324.563 628.241 316.216C649.73 305.076 671.938 295.381 694.717 287.198C729.62 274.752 765.239 266.966 800.501 264.006C837.163 260.921 874.078 263.115 910.116 270.521C970.459 282.943 1026.54 315.164 1078.8 347.101C1131.24 379.131 1185.47 412.248 1247.27 424.479C1331.97 441.243 1437.66 415.427 1475.78 333.633L1476.3 333.876C1458.9 371.224 1425.8 399.554 1380.58 415.814C1354.53 425.179 1326.03 429.913 1297.28 429.913Z" fill="white"/>
<path d="M1316.65 449.324C1298.96 449.336 1281.31 447.594 1263.97 444.121C1208.38 432.93 1160.35 406.34 1103.34 372.738C1051.01 341.881 999.455 313.054 943.985 299.325C871.671 281.452 800.362 282.7 732.048 303.031C709.315 309.76 687.171 318.338 665.838 328.679C646.519 338.049 627.472 348.968 609.061 359.529C583.864 373.981 557.811 388.918 530.678 400.097C520.292 404.393 509.678 408.118 498.885 411.253C463.809 421.392 424.507 424.93 382.06 421.774C346.221 419.109 307.85 411.843 264.658 399.559C259.398 398.062 253.953 396.455 248.473 394.79C221.992 386.744 195.234 377.576 169.36 368.709C115.486 350.24 59.7791 331.135 2.69644 320.806C-181.824 287.377 -372.332 330.719 -506.903 436.751L-507.261 436.295C-473.52 409.704 -435.641 386.715 -394.668 367.934C-353.919 349.368 -311.323 335.158 -267.589 325.54C-179.431 305.996 -85.9305 304.152 2.80045 320.239C59.9236 330.592 115.654 349.72 169.551 368.16C195.419 377.027 222.154 386.195 248.64 394.236C254.126 395.9 259.565 397.507 264.826 398.999C357.892 425.468 434.392 429.294 498.735 410.699C509.509 407.569 520.103 403.851 530.47 399.559C557.574 388.397 583.61 373.466 608.79 359.026C627.212 348.46 646.265 337.534 665.601 328.158C686.962 317.803 709.135 309.214 731.898 302.476C765.974 292.359 801.272 286.938 836.814 286.365C872.975 285.844 909.051 290.012 944.141 298.764C999.686 312.493 1051.28 341.344 1103.64 372.223C1160.61 405.797 1208.6 432.341 1264.09 443.538C1348.77 460.584 1455.62 435.792 1496 355.408L1496.52 355.668C1477.92 392.698 1443.95 420.525 1398.28 436.156C1372.72 444.89 1344.85 449.324 1316.65 449.324Z" fill="white"/>
<path d="M1336.2 469.596C1317.59 469.604 1299.04 467.735 1280.81 464.018C1226.98 452.989 1177.92 426.832 1128.2 398.698C1085.34 374.42 1031.99 344.211 978.002 328.413C904.544 306.915 834.293 303.805 769.216 319.164C746.545 324.463 724.439 331.935 703.202 341.477C680.907 351.529 659.224 364.021 638.258 376.067C616.581 388.542 594.159 401.444 571.031 411.675C560.967 416.155 550.673 420.099 540.192 423.491C476.947 443.855 401.765 442.497 310.352 419.329C305.15 418.011 299.768 416.589 294.358 415.109C264.721 407.016 234.818 397.392 205.916 388.108C156.244 372.154 104.884 355.65 52.6451 345.962C-138.494 310.499 -340.28 353.217 -487.14 460.237L-487.481 459.769C-340.494 352.662 -138.54 309.903 52.7492 345.39C105.028 355.09 156.406 371.599 206.089 387.588C234.992 396.871 264.86 406.467 294.479 414.583C299.89 416.063 305.265 417.473 310.462 418.797C401.794 441.919 476.849 443.3 539.989 422.97C550.449 419.585 560.722 415.647 570.765 411.172C593.887 400.958 616.275 388.05 637.94 375.593C658.918 363.523 680.612 351.038 702.936 340.979C724.206 331.423 746.348 323.939 769.054 318.632C802.147 310.817 837.166 307.788 873.103 309.62C907.313 311.354 942.643 317.505 978.112 327.887C1032.16 343.702 1085.54 373.934 1128.43 398.224C1178.1 426.329 1227.13 452.463 1280.87 463.474C1362.95 480.29 1471.62 460.734 1516.17 378.061L1516.68 378.339C1496.89 415.045 1462.05 442.381 1415.92 457.382C1390.99 465.48 1363.76 469.59 1336.2 469.596Z" fill="white"/>
<path d="M1355.87 490.829C1336.31 490.827 1316.8 488.816 1297.65 484.828C1245.21 473.886 1197.48 449.567 1153.09 425.584L1146.57 422.058C1103.11 398.548 1058.18 374.241 1012.03 358.408C937.625 332.876 868.438 325.407 806.39 336.211C783.818 340.073 761.746 346.438 740.584 355.189C715.537 365.594 691.577 379.559 668.403 393.057C649.963 403.797 630.899 414.901 611.395 424.162C601.654 428.821 591.684 432.984 581.522 436.636C548.844 448.295 512.919 454.122 473.137 454.128C437.379 454.128 398.505 449.423 356.058 440.012C350.902 438.856 345.59 437.63 340.266 436.336C307.144 428.289 273.83 418.266 241.61 408.589C196.475 395.016 149.809 380.981 102.675 372.033C-95.0188 334.506 -308.089 376.6 -467.284 484.638L-467.608 484.164C-426.802 456.585 -383.225 433.348 -337.587 414.832C-291.578 396.156 -243.865 381.987 -195.12 372.524C-146.08 362.987 -96.2529 358.079 -46.2948 357.865C3.72249 357.629 53.6474 362.184 102.796 371.467C149.96 380.421 196.649 394.461 241.795 408.034C274.004 417.722 307.311 427.74 340.416 435.781C345.74 437.075 351.047 438.313 356.203 439.451C445.76 459.302 519.404 458.203 581.342 436.099C591.487 432.453 601.441 428.296 611.164 423.642C630.645 414.393 649.703 403.294 668.126 392.565C691.317 379.056 715.294 365.085 740.382 354.657C761.584 345.892 783.696 339.516 806.309 335.645C868.455 324.829 937.735 332.304 1012.23 357.865C1058.43 373.715 1103.39 398.034 1146.86 421.555L1153.38 425.081C1197.74 449.035 1245.43 473.342 1297.79 484.268C1379.92 501.407 1489.64 482.834 1536.49 401.606L1537 401.895C1516.01 438.313 1480.3 465.123 1433.72 479.505C1409.29 487.025 1382.76 490.829 1355.87 490.829Z" fill="white"/>
<path d="M1375.78 512.985C1355.18 512.983 1334.65 510.816 1314.5 506.523C1265.71 496.204 1220.05 474.868 1177.98 453.342C1169.58 449.041 1161.04 444.607 1152.78 440.324C1118.09 422.335 1082.25 403.739 1046.07 389.276C971.101 359.31 902.972 347.483 843.577 354.125C821.129 356.562 799.078 361.827 777.951 369.796C750.366 380.282 724.458 395.693 699.405 410.589C683.948 419.78 667.971 429.283 651.745 437.549C641.531 442.752 632.091 447.047 622.842 450.683C587.003 464.805 547.152 471.845 502.498 471.845C471.358 471.845 437.883 468.423 401.766 461.596C396.645 460.625 391.402 459.573 386.159 458.469C349.372 450.689 312.48 440.284 276.809 430.226C236.391 418.832 194.598 407.051 152.66 399.011C-54.0915 358.489 -272.838 398.93 -447.502 509.945L-447.814 509.453C-403.972 481.671 -357.504 458.267 -309.082 439.578C-260.452 420.804 -210.174 406.617 -158.904 397.201C-108.324 387.902 -57.0035 383.216 -5.57558 383.201H-3.04371C49.252 383.335 101.417 388.437 152.747 398.438C194.714 406.531 236.513 418.3 276.942 429.694C312.607 439.752 349.487 450.145 386.257 457.926C391.459 459.03 396.726 460.082 401.864 461.047C489.671 477.649 561.881 474.094 622.617 450.168C631.866 446.538 641.288 442.249 651.485 437.058C667.67 428.798 683.665 419.3 699.105 410.115C724.186 395.201 750.112 379.785 777.72 369.281C798.887 361.304 820.978 356.037 843.467 353.605C875.26 350.044 909.747 351.743 945.933 358.64C977.471 364.651 1011.22 374.825 1046.24 388.791C1082.45 403.242 1118.31 421.867 1153 439.862C1161.26 444.151 1169.8 448.579 1178.19 452.879C1220.24 474.383 1265.85 495.701 1314.58 506.002C1396.71 523.581 1507.5 506.054 1556.69 426.029L1557.18 426.329C1535 462.417 1498.42 488.759 1451.4 502.563C1427.64 509.476 1401.9 512.985 1375.78 512.985Z" fill="white"/>
<path d="M-427.704 535.865L-428.005 535.368C-381.132 507.388 -331.753 483.838 -280.509 465.024C-177.813 427.321 -69.1483 408.486 40.2464 409.427C94.8102 409.901 149.211 415.461 202.743 426.035C238.773 433.185 274.895 442.711 309.838 451.92C349.689 462.429 390.904 473.308 432.143 480.678C525.076 497.326 600.888 492.146 663.901 464.851C687.272 454.723 709.463 441.151 730.92 428.006C757.574 411.693 785.136 394.826 815.114 384.507C854.832 370.842 899.897 368.258 949.048 376.837C989.425 383.877 1032.35 398.103 1080.27 420.324C1103.19 430.948 1126.18 442.665 1148.42 453.995C1206.62 483.655 1266.82 514.321 1331.41 528.35C1416.44 546.813 1525.33 530.084 1576.92 451.093L1577.4 451.411C1554.05 487.164 1516.59 513.02 1469.08 526.188C1426.49 537.992 1377.55 538.957 1331.29 528.911C1266.62 514.87 1206.39 484.187 1148.15 454.51C1125.92 443.186 1102.94 431.468 1080.02 420.85C974.315 371.842 887.717 360.154 815.275 385.057C785.361 395.352 757.829 412.225 731.198 428.497C709.723 441.648 687.514 455.238 664.109 465.377C630.432 479.967 592.049 488.331 550.007 490.233C514.168 491.863 474.462 488.84 432.015 481.239C390.789 473.845 349.568 462.99 309.682 452.457C274.751 443.249 238.634 433.723 202.627 426.578C-11.0268 384.189 -240.779 424.012 -427.704 535.865Z" fill="white"/>
<path d="M-450.457 559.12L-450.763 558.623C-363.206 505.083 -265.821 467.868 -161.309 447.995C-59.1939 428.674 45.4439 426.665 148.226 442.053C202.459 450.18 257.767 462.637 311.237 474.684C335.104 480.059 359.793 485.62 384.106 490.736C441.871 502.875 485.456 507.794 525.44 506.783C559.475 505.887 589.603 500.702 617.535 490.944C630.975 486.279 645.183 480.065 660.97 471.961C674.375 465.082 687.745 457.388 700.676 449.955C723.931 436.578 747.978 422.751 773.383 412.907C795.751 404.322 819.148 398.707 842.975 396.207C902.127 389.768 968.239 401.028 1034.18 428.786C1036.62 429.815 1039.14 430.896 1041.64 432.006C1067.81 443.567 1093.66 457.307 1118.66 470.631C1150.65 487.672 1183.73 505.315 1217.8 518.396C1244.01 528.523 1271.16 535.996 1298.86 540.703C1308.05 542.246 1317.58 543.414 1327.19 544.171C1423.3 551.877 1507.6 521.049 1552.67 461.787L1553.14 462.14C1540.71 478.339 1525.68 492.367 1508.67 503.656C1492.25 514.639 1473.56 523.714 1453.11 530.564C1414.86 543.379 1371.3 548.287 1327.14 544.749C1317.52 543.975 1307.97 542.807 1298.77 541.281C1271.04 536.564 1243.85 529.077 1217.61 518.934C1183.51 505.829 1150.41 488.193 1118.41 471.14C1093.42 457.845 1067.58 444.053 1041.43 432.532C1038.92 431.428 1036.41 430.347 1033.97 429.318C968.123 401.572 902.11 390.352 843.056 396.785C819.277 399.276 795.928 404.879 773.609 413.451C748.244 423.277 724.22 437.093 700.982 450.446C688.046 457.891 674.664 465.579 661.253 472.47C645.437 480.562 631.194 486.811 617.743 491.488C589.754 501.262 559.568 506.453 525.474 507.355C485.444 508.372 441.818 503.419 384.002 491.297C359.683 486.181 334.994 480.62 311.127 475.244C257.651 463.198 202.355 450.741 148.116 442.619C102.163 435.715 55.7599 432.237 9.29102 432.214C-154.673 432.226 -314.129 475.741 -450.457 559.12Z" fill="white"/>
<path d="M-473.249 583.391L-473.556 582.9C-391.443 531.494 -299.348 494.845 -199.819 473.966C-104.77 454.023 -6.01566 449.023 93.6925 459.093C167.776 466.573 249.327 480.949 336.093 501.817C386.771 513.956 432.425 524.17 477.941 526.638C512.59 528.447 543.093 525.638 571.192 518.066C585.569 514.233 600.286 508.909 616.182 501.782C634.807 493.429 653.178 483.232 670.987 473.376C690.56 462.521 710.804 451.301 731.683 442.324C754.004 432.801 777.316 425.794 801.188 421.433C865.022 409.814 932.151 416.774 995.309 441.566C997.853 442.566 1000.45 443.618 1003.02 444.699C1031.11 456.468 1058.43 471.665 1084.86 486.365C1116.33 503.869 1148.87 521.962 1182.89 534.384C1209.4 544.061 1236.69 550.506 1266.32 554.084C1275.61 555.2 1285.36 555.974 1295.31 556.396C1392.23 560.327 1479.38 529.367 1528.44 473.55L1528.87 473.931C1502.92 503.453 1467.6 525.719 1423.87 540.101C1384.77 552.968 1340.3 558.801 1295.28 556.974C1285.32 556.57 1275.56 555.818 1266.25 554.662C1236.58 551.078 1209.25 544.627 1182.7 534.933C1148.63 522.499 1116.07 504.389 1084.58 486.874C1058.17 472.186 1030.85 456.995 1002.8 445.254C1000.23 444.179 997.639 443.127 995.095 442.133C932.042 417.375 865.034 410.427 801.292 422.028C777.467 426.38 754.201 433.373 731.926 442.878C711.075 451.844 690.849 463.058 671.282 473.902C653.484 483.77 635.085 493.973 616.437 502.331C600.511 509.47 585.765 514.811 571.349 518.65C543.192 526.239 512.636 529.054 477.912 527.239C432.35 524.771 386.672 514.522 335.966 502.383C249.223 481.521 167.695 467.151 93.6405 459.671C-111.4 438.959 -312.724 482.897 -473.249 583.391Z" fill="white"/>
<path d="M-496.018 608.792L-496.33 608.3C-424.074 561.912 -339.649 529.286 -238.132 508.552C-145.244 489.58 -50.2126 482.69 39.1543 477.262C76.4675 474.996 117.133 477.689 163.476 485.505C207.749 492.967 251.34 504.106 288.092 514.02C296.873 516.367 305.723 518.8 314.284 521.147C354.314 532.13 392.119 542.535 430.472 547.622C465.525 552.2 496.411 551.773 524.88 546.31C540.779 543.212 556.361 538.665 571.43 532.726C595.495 523.379 618.975 510.523 641.675 498.089C657.364 489.499 673.589 480.614 690.006 472.869C712.318 462.388 735.55 453.992 759.407 447.787C827.039 430.393 895.174 433.052 956.453 455.481C959.089 456.44 961.766 457.463 964.413 458.521C993.975 470.313 1022.32 486.724 1049.73 502.598C1081.12 520.766 1113.57 539.553 1148 551.495C1174.25 560.599 1202.34 566.195 1233.8 568.582C1243.18 569.293 1253.15 569.669 1263.45 569.692H1264.73C1363.44 569.692 1450.66 539.362 1504.22 486.378L1504.62 486.788C1476.36 514.754 1439.36 536.258 1394.65 550.709C1354.69 563.628 1309.3 570.397 1263.43 570.27C1253.12 570.27 1243.14 569.871 1233.75 569.16C1202.21 566.767 1174.1 561.166 1147.8 552.039C1113.33 540.084 1080.85 521.28 1049.44 503.095C1022.05 487.233 993.715 470.834 964.2 459.059C961.552 458.007 958.881 456.984 956.251 456.018C895.082 433.636 827.062 430.983 759.546 448.348C735.718 454.54 712.514 462.925 690.232 473.394C673.827 481.129 657.612 490.008 641.93 498.598C619.212 511.037 595.714 523.905 571.615 533.281C556.514 539.232 540.899 543.789 524.967 546.894C496.434 552.368 465.491 552.796 430.374 548.212C392.003 543.09 354.175 532.708 314.134 521.72C305.573 519.373 296.723 516.945 287.942 514.592C211.946 494.077 123.804 472.689 39.1543 477.834C-153.672 489.557 -339.707 508.39 -496.018 608.792Z" fill="white"/>
<path d="M-518.789 635.122L-519.107 634.642C-486.51 613.11 -451.868 594.97 -413.208 579.195C-378.779 565.178 -342.026 553.345 -300.742 543.067C-224.156 523.991 -143.893 513.407 -66.278 503.181C-49.5723 500.973 -32.3001 498.696 -15.4094 496.378C22.794 491.129 65.6624 491.753 112.005 498.216C150.896 503.638 192.776 513.112 240.038 527.165C256.922 532.159 273.657 537.57 289.843 542.83C321.844 553.2 352.064 562.998 382.909 569.548C418.477 576.987 449.743 578.935 478.478 575.507C494.84 573.508 510.957 569.859 526.584 564.617C556.064 554.79 584.389 539.183 611.742 524.014C623.645 517.436 635.951 510.633 648.246 504.361C670.596 492.891 693.771 483.106 717.578 475.088C789.384 451.174 856.663 449.573 917.549 470.337C920.255 471.256 923.018 472.25 925.758 473.29C956.591 485.002 985.754 502.534 1013.96 519.488C1045.45 538.425 1078.02 558.004 1113.05 569.553C1139.23 578.189 1168.07 582.929 1201.22 584.005C1210.79 584.323 1220.7 584.3 1231.51 583.924C1331.65 580.536 1422.19 550.004 1479.93 500.152L1480.31 500.592C1449.73 526.986 1411.06 547.738 1365.35 562.258C1324.55 575.23 1278.27 582.924 1231.54 584.502C1220.71 584.878 1210.78 584.901 1201.19 584.583C1168 583.479 1139.11 578.727 1112.86 570.074C1077.77 558.513 1045.18 538.905 1013.66 519.957C985.476 503.014 956.337 485.493 925.55 473.805C922.821 472.764 920.064 471.776 917.359 470.851C856.594 450.145 789.465 451.752 717.786 475.626C694.007 483.633 670.859 493.407 648.535 504.864C636.246 511.13 623.945 517.933 612.043 524.517C584.638 539.668 556.296 555.333 526.792 565.16C511.128 570.416 494.972 574.072 478.571 576.074C449.772 579.542 418.453 577.565 382.816 570.108C351.943 563.553 321.705 553.749 289.692 543.373C273.507 538.125 256.778 532.703 239.899 527.714C136.618 496.996 55.5003 487.216 -15.2996 496.944C-32.2076 499.256 -49.4798 501.569 -66.1681 503.748C-222.057 524.303 -383.207 545.564 -518.789 635.122Z" fill="white"/>
<path d="M-541.557 662.128L-541.881 661.654C-490.319 626.526 -430.068 599.017 -357.685 577.542C-293.232 558.42 -225.583 545.819 -160.153 533.61C-130.481 528.078 -99.7984 522.361 -69.942 516.13C-30.594 507.91 13.2975 506.413 60.5186 511.667C102.138 516.292 146.371 526.119 192.008 540.951C214.899 548.333 237.166 556.854 258.692 565.097C285.011 575.172 309.867 584.687 335.388 592.115C371.424 602.479 403.066 606.803 432.114 605.335C448.921 604.469 465.578 601.723 481.774 597.15C516.977 587.236 550.256 568.316 582.442 550.027C590.321 545.553 598.465 540.922 606.523 536.489C630.582 523.251 653.883 511.997 675.774 503.025C710.197 488.927 743.47 479.996 774.656 476.481C811.183 472.371 846.178 475.51 878.659 485.828C881.462 486.713 884.306 487.678 887.116 488.719C919.117 500.28 948.967 518.899 977.87 536.888C1009.58 556.64 1042.37 577.068 1078.12 588.271C1104.75 596.624 1133.53 600.41 1168.66 600.144C1178.24 600.075 1188.37 599.658 1199.61 598.878C1302.17 591.803 1393.11 561.883 1455.69 514.644L1456.03 515.107C1393.39 562.414 1302.34 592.369 1199.67 599.456C1188.41 600.236 1178.28 600.653 1168.67 600.722C1133.46 600.982 1104.65 597.196 1077.96 588.82C1042.12 577.594 1009.33 557.154 977.587 537.373C948.724 519.402 918.885 500.811 886.937 489.256C884.133 488.245 881.295 487.279 878.503 486.366C818.495 467.29 750.366 473.071 676.011 503.551C654.138 512.511 630.859 523.783 606.818 536.98C598.766 541.414 590.633 546.044 582.742 550.518C550.533 568.825 517.22 587.762 481.947 597.693C465.71 602.278 449.01 605.031 432.16 605.901C403.049 607.375 371.343 603.011 335.244 592.658C309.699 585.224 284.832 575.704 258.501 565.623C236.981 557.385 214.726 548.859 191.846 541.489C94.3809 509.87 3.90415 501.297 -69.8091 516.685C-99.6654 522.916 -130.354 528.633 -160.031 534.165C-291.134 558.622 -426.675 583.877 -541.557 662.128Z" fill="white"/>
<path d="M-564.333 689.597L-564.662 689.123C-445.416 605.091 -297.273 553.697 -124.435 536.372C-71.6762 531.089 -28.9466 529.436 10.0257 531.17C60.3162 533.407 104.132 541.286 143.972 555.246C171.493 564.836 197.731 576.564 223.113 587.912C245.293 597.831 266.242 607.201 287.855 615.19C324.307 628.531 356.325 635.237 385.742 635.676C402.974 635.939 420.173 634.095 436.958 630.184C478.132 620.554 516.324 597.883 553.262 575.952C557.115 573.666 560.96 571.389 564.794 569.119C590.806 553.772 613.443 541.459 633.958 531.476C711.758 493.597 779.084 483.903 839.744 501.822C842.635 502.672 845.525 503.608 848.444 504.608C881.555 516.019 912.065 535.661 941.563 554.662C973.558 575.258 1006.63 596.559 1043.16 607.45C1069.98 615.456 1099.5 618.398 1136.07 616.699C1145.65 616.253 1155.99 615.45 1167.68 614.242C1240.92 606.727 1346.13 585.917 1431.38 529.551L1431.7 530.031C1396.5 553.298 1354.48 572.535 1306.79 587.206C1263.68 600.473 1216.89 609.75 1167.74 614.82C1156.04 616.028 1145.69 616.832 1136.09 617.277C1099.46 618.959 1069.88 616.011 1042.99 607.987C1006.39 597.074 973.274 575.749 941.25 555.13C911.77 536.147 881.3 516.522 848.253 505.135C845.363 504.14 842.473 503.21 839.582 502.36C779.043 484.481 711.833 494.169 634.195 531.973C613.691 541.956 591.084 554.263 565.071 569.599C561.218 571.865 557.364 574.142 553.51 576.431C516.515 598.397 478.306 621.08 437.044 630.734C420.215 634.656 402.969 636.505 385.69 636.237C356.21 635.792 324.128 629.08 287.606 615.716C265.976 607.716 245.015 598.374 222.824 588.426C197.459 577.085 171.227 565.356 143.729 555.772C54.3507 524.453 -41.9817 528.679 -124.429 536.939C-297.145 554.263 -445.167 605.64 -564.333 689.597Z" fill="white"/>
<path d="M-587.095 717.366L-587.437 716.898C-476.063 635.393 -338.631 581.576 -178.962 556.916C-99.5894 544.662 3.37895 535.049 95.9482 569.819C127.163 581.472 156.303 596.501 184.506 611.034C203.581 620.86 221.651 630.173 240.346 638.543C277.67 655.133 309.134 663.948 339.395 666.29C357.031 667.689 374.775 666.751 392.165 663.498C440.074 654.428 484.174 626.589 523.088 602.028C545.759 587.836 569.205 573.16 592.171 560.194C628.589 539.633 661.329 525.933 692.29 518.32C730.574 508.903 767.119 508.828 800.894 518.094C803.854 518.909 806.866 519.829 809.843 520.794C844.017 532.014 875.122 552.679 905.221 572.668C937.534 594.131 970.94 616.329 1008.28 626.924C1035.38 634.618 1065.65 636.751 1103.56 633.583C1113.24 632.774 1123.51 631.618 1135.84 629.942C1209.79 619.918 1316.9 596.993 1407.18 544.789L1407.47 545.286C1317.09 597.548 1209.91 620.491 1135.9 630.497C1123.55 632.173 1113.29 633.335 1103.59 634.138C1065.61 637.295 1035.27 635.173 1008.1 627.462C970.68 616.843 937.234 594.623 904.886 573.125C874.827 553.159 843.763 532.517 809.663 521.32C806.692 520.343 803.692 519.441 800.744 518.632C739.297 501.77 673.11 515.129 592.454 560.674C569.5 573.634 546.06 588.305 523.395 602.49C484.44 627.08 440.288 654.948 392.275 664.041C374.834 667.307 357.037 668.249 339.349 666.844C309.03 664.492 277.497 655.659 240.109 639.046C221.403 630.664 203.35 621.363 184.24 611.513C156.054 596.993 126.909 581.975 95.7459 570.327C3.31539 535.638 -99.5779 545.245 -178.869 557.489C-338.452 582.131 -475.797 635.919 -587.095 717.366Z" fill="white"/>
</g>
</g>
<defs>
<linearGradient id="paint0_linear_613_798" x1="-26" y1="189.5" x2="1149.5" y2="309.5" gradientUnits="userSpaceOnUse">
<stop stop-color="#880185"/>
<stop offset="1" stop-color="#292D32"/>
</linearGradient>
<clipPath id="clip0_613_798">
<rect width="802" height="506" fill="white"/>
</clipPath>
</defs>
</svg>
