<svg fill="#FFFFFF" xmlns="http://www.w3.org/2000/svg"  viewBox="0 0 64 64" width="64px" height="64px"><path d="M56.456,17.442c-0.339-1.44-1.421-2.595-2.866-3.053C49.761,13.174,41.454,12,32,12s-17.761,1.174-21.591,2.389 c-1.445,0.458-2.527,1.613-2.866,3.053C6.903,20.161,6,25.203,6,32c0,6.797,0.903,11.839,1.544,14.558 c0.339,1.44,1.421,2.595,2.866,3.053C14.239,50.826,22.546,52,32,52s17.761-1.174,21.591-2.389 c1.445-0.458,2.527-1.613,2.866-3.053C57.097,43.839,58,38.797,58,32C58,25.203,57.097,20.161,56.456,17.442z M27,40V24l14.857,8 L27,40z"/></svg>